<?xml version="1.0" standalone="no"?>
 <!DOCTYPE svg PUBLIC "-//W3C//DTD SVG 1.1//EN" 
 "http://www.w3.org/Graphics/SVG/1.1/DTD/svg11.dtd"> 
<svg xmlns="http://www.w3.org/2000/svg" version="1.1" 
    width="15.0012cm" height="15.0012cm" viewBox="0 0 59060 59060 ">
<title>SVG Picture created as circuit-F.SilkS.svg date 2016/06/10 22:46:16 </title>
  <desc>Picture generated by PCBNEW </desc>
<g style="fill:#000000; fill-opacity:1;stroke:#000000; stroke-opacity:1;
stroke-linecap:round; stroke-linejoin:round; "
 transform="translate(0 0) scale(1 1)">
</g>
<g style="fill:#000000; fill-opacity:0.0; 
stroke:#000000; stroke-width:-0.000393701; stroke-opacity:1; 
stroke-linecap:round; stroke-linejoin:round;">
</g>
<g style="fill:#000000; fill-opacity:0.0; 
stroke:#000000; stroke-width:39.3701; stroke-opacity:1; 
stroke-linecap:round; stroke-linejoin:round;">
</g>
<g style="fill:#000000; fill-opacity:0.0; 
stroke:#000000; stroke-width:59.0551; stroke-opacity:1; 
stroke-linecap:round; stroke-linejoin:round;">
<rect x="11815.9" y="41737.2" width="42519.7" height="12598.4" rx="0" />
</g>
<g style="fill:#000000; fill-opacity:0.0; 
stroke:#000000; stroke-width:39.3701; stroke-opacity:1; 
stroke-linecap:round; stroke-linejoin:round;">
</g>
<g style="fill:#000000; fill-opacity:0.0; 
stroke:#000000; stroke-width:59.0551; stroke-opacity:1; 
stroke-linecap:round; stroke-linejoin:round;">
<rect x="3937.01" y="3937.01" width="51186" height="51186" rx="0" />
</g>
<g style="fill:#000000; fill-opacity:0.0; 
stroke:#000000; stroke-width:39.3701; stroke-opacity:1; 
stroke-linecap:round; stroke-linejoin:round;">
</g>
<g style="fill:#000000; fill-opacity:0.0; 
stroke:#000000; stroke-width:59.0551; stroke-opacity:1; 
stroke-linecap:round; stroke-linejoin:round;">
<rect x="4724.41" y="4724.41" width="49611.2" height="49611.2" rx="0" />
</g>
<g style="fill:#000000; fill-opacity:0.0; 
stroke:#000000; stroke-width:39.3701; stroke-opacity:1; 
stroke-linecap:round; stroke-linejoin:round;">
</g>
<g style="fill:#000000; fill-opacity:0.0; 
stroke:#000000; stroke-width:59.0551; stroke-opacity:1; 
stroke-linecap:round; stroke-linejoin:round;">
<path d="M23622 4724
L23622 3937
" />
</g>
<g style="fill:#000000; fill-opacity:0.0; 
stroke:#000000; stroke-width:39.3701; stroke-opacity:1; 
stroke-linecap:round; stroke-linejoin:round;">
</g>
<g style="fill:#000000; fill-opacity:0.0; 
stroke:#000000; stroke-width:59.0551; stroke-opacity:1; 
stroke-linecap:round; stroke-linejoin:round;">
<path d="M43307 4724
L43307 3937
" />
</g>
<g style="fill:#000000; fill-opacity:0.0; 
stroke:#000000; stroke-width:39.3701; stroke-opacity:1; 
stroke-linecap:round; stroke-linejoin:round;">
</g>
<g style="fill:#000000; fill-opacity:0.0; 
stroke:#000000; stroke-width:59.0551; stroke-opacity:1; 
stroke-linecap:round; stroke-linejoin:round;">
<path d="M14169 4562
L13877 4562
" />
<path d="M14023 4562
L14023 4050
L13974 4123
L13925 4172
L13877 4196
" />
</g>
<g style="fill:#000000; fill-opacity:0.0; 
stroke:#000000; stroke-width:39.3701; stroke-opacity:1; 
stroke-linecap:round; stroke-linejoin:round;">
</g>
<g style="fill:#000000; fill-opacity:0.0; 
stroke:#000000; stroke-width:59.0551; stroke-opacity:1; 
stroke-linecap:round; stroke-linejoin:round;">
<path d="M33562 4099
L33586 4074
L33635 4050
L33757 4050
L33805 4074
L33830 4099
L33854 4147
L33854 4196
L33830 4269
L33537 4562
L33854 4562
" />
</g>
<g style="fill:#000000; fill-opacity:0.0; 
stroke:#000000; stroke-width:39.3701; stroke-opacity:1; 
stroke-linecap:round; stroke-linejoin:round;">
</g>
<g style="fill:#000000; fill-opacity:0.0; 
stroke:#000000; stroke-width:59.0551; stroke-opacity:1; 
stroke-linecap:round; stroke-linejoin:round;">
<path d="M53222 4050
L53539 4050
L53368 4245
L53442 4245
L53490 4269
L53515 4294
L53539 4342
L53539 4464
L53515 4513
L53490 4537
L53442 4562
L53295 4562
L53247 4537
L53222 4513
" />
</g>
<g style="fill:#000000; fill-opacity:0.0; 
stroke:#000000; stroke-width:39.3701; stroke-opacity:1; 
stroke-linecap:round; stroke-linejoin:round;">
</g>
<g style="fill:#000000; fill-opacity:0.0; 
stroke:#000000; stroke-width:59.0551; stroke-opacity:1; 
stroke-linecap:round; stroke-linejoin:round;">
<path d="M23622 54335
L23622 55122
" />
</g>
<g style="fill:#000000; fill-opacity:0.0; 
stroke:#000000; stroke-width:39.3701; stroke-opacity:1; 
stroke-linecap:round; stroke-linejoin:round;">
</g>
<g style="fill:#000000; fill-opacity:0.0; 
stroke:#000000; stroke-width:59.0551; stroke-opacity:1; 
stroke-linecap:round; stroke-linejoin:round;">
<path d="M43307 54335
L43307 55122
" />
</g>
<g style="fill:#000000; fill-opacity:0.0; 
stroke:#000000; stroke-width:39.3701; stroke-opacity:1; 
stroke-linecap:round; stroke-linejoin:round;">
</g>
<g style="fill:#000000; fill-opacity:0.0; 
stroke:#000000; stroke-width:59.0551; stroke-opacity:1; 
stroke-linecap:round; stroke-linejoin:round;">
<path d="M14169 54960
L13877 54960
" />
<path d="M14023 54960
L14023 54449
L13974 54522
L13925 54570
L13877 54595
" />
</g>
<g style="fill:#000000; fill-opacity:0.0; 
stroke:#000000; stroke-width:39.3701; stroke-opacity:1; 
stroke-linecap:round; stroke-linejoin:round;">
</g>
<g style="fill:#000000; fill-opacity:0.0; 
stroke:#000000; stroke-width:59.0551; stroke-opacity:1; 
stroke-linecap:round; stroke-linejoin:round;">
<path d="M33562 54497
L33586 54473
L33635 54449
L33757 54449
L33805 54473
L33830 54497
L33854 54546
L33854 54595
L33830 54668
L33537 54960
L33854 54960
" />
</g>
<g style="fill:#000000; fill-opacity:0.0; 
stroke:#000000; stroke-width:39.3701; stroke-opacity:1; 
stroke-linecap:round; stroke-linejoin:round;">
</g>
<g style="fill:#000000; fill-opacity:0.0; 
stroke:#000000; stroke-width:59.0551; stroke-opacity:1; 
stroke-linecap:round; stroke-linejoin:round;">
<path d="M53222 54449
L53539 54449
L53368 54643
L53442 54643
L53490 54668
L53515 54692
L53539 54741
L53539 54863
L53515 54912
L53490 54936
L53442 54960
L53295 54960
L53247 54936
L53222 54912
" />
</g>
<g style="fill:#000000; fill-opacity:0.0; 
stroke:#000000; stroke-width:39.3701; stroke-opacity:1; 
stroke-linecap:round; stroke-linejoin:round;">
</g>
<g style="fill:#000000; fill-opacity:0.0; 
stroke:#000000; stroke-width:59.0551; stroke-opacity:1; 
stroke-linecap:round; stroke-linejoin:round;">
<path d="M3937 23622
L4724 23622
" />
</g>
<g style="fill:#000000; fill-opacity:0.0; 
stroke:#000000; stroke-width:39.3701; stroke-opacity:1; 
stroke-linecap:round; stroke-linejoin:round;">
</g>
<g style="fill:#000000; fill-opacity:0.0; 
stroke:#000000; stroke-width:59.0551; stroke-opacity:1; 
stroke-linecap:round; stroke-linejoin:round;">
<path d="M3937 43307
L4724 43307
" />
</g>
<g style="fill:#000000; fill-opacity:0.0; 
stroke:#000000; stroke-width:39.3701; stroke-opacity:1; 
stroke-linecap:round; stroke-linejoin:round;">
</g>
<g style="fill:#000000; fill-opacity:0.0; 
stroke:#000000; stroke-width:59.0551; stroke-opacity:1; 
stroke-linecap:round; stroke-linejoin:round;">
<path d="M4208 13864
L4452 13864
" />
<path d="M4160 14011
L4330 13499
L4501 14011
" />
</g>
<g style="fill:#000000; fill-opacity:0.0; 
stroke:#000000; stroke-width:39.3701; stroke-opacity:1; 
stroke-linecap:round; stroke-linejoin:round;">
</g>
<g style="fill:#000000; fill-opacity:0.0; 
stroke:#000000; stroke-width:59.0551; stroke-opacity:1; 
stroke-linecap:round; stroke-linejoin:round;">
<path d="M4367 33428
L4440 33452
L4464 33476
L4489 33525
L4489 33598
L4464 33647
L4440 33671
L4391 33696
L4196 33696
L4196 33184
L4367 33184
L4416 33208
L4440 33233
L4464 33281
L4464 33330
L4440 33379
L4416 33403
L4367 33428
L4196 33428
" />
</g>
<g style="fill:#000000; fill-opacity:0.0; 
stroke:#000000; stroke-width:39.3701; stroke-opacity:1; 
stroke-linecap:round; stroke-linejoin:round;">
</g>
<g style="fill:#000000; fill-opacity:0.0; 
stroke:#000000; stroke-width:59.0551; stroke-opacity:1; 
stroke-linecap:round; stroke-linejoin:round;">
<path d="M4489 53332
L4464 53356
L4391 53381
L4342 53381
L4269 53356
L4221 53308
L4196 53259
L4172 53161
L4172 53088
L4196 52991
L4221 52942
L4269 52893
L4342 52869
L4391 52869
L4464 52893
L4489 52918
" />
</g>
<g style="fill:#000000; fill-opacity:0.0; 
stroke:#000000; stroke-width:39.3701; stroke-opacity:1; 
stroke-linecap:round; stroke-linejoin:round;">
</g>
<g style="fill:#000000; fill-opacity:0.0; 
stroke:#000000; stroke-width:59.0551; stroke-opacity:1; 
stroke-linecap:round; stroke-linejoin:round;">
<path d="M55122 23622
L54335 23622
" />
</g>
<g style="fill:#000000; fill-opacity:0.0; 
stroke:#000000; stroke-width:39.3701; stroke-opacity:1; 
stroke-linecap:round; stroke-linejoin:round;">
</g>
<g style="fill:#000000; fill-opacity:0.0; 
stroke:#000000; stroke-width:59.0551; stroke-opacity:1; 
stroke-linecap:round; stroke-linejoin:round;">
<path d="M55122 43307
L54335 43307
" />
</g>
<g style="fill:#000000; fill-opacity:0.0; 
stroke:#000000; stroke-width:39.3701; stroke-opacity:1; 
stroke-linecap:round; stroke-linejoin:round;">
</g>
<g style="fill:#000000; fill-opacity:0.0; 
stroke:#000000; stroke-width:59.0551; stroke-opacity:1; 
stroke-linecap:round; stroke-linejoin:round;">
<path d="M54607 13864
L54851 13864
" />
<path d="M54558 14011
L54729 13499
L54899 14011
" />
</g>
<g style="fill:#000000; fill-opacity:0.0; 
stroke:#000000; stroke-width:39.3701; stroke-opacity:1; 
stroke-linecap:round; stroke-linejoin:round;">
</g>
<g style="fill:#000000; fill-opacity:0.0; 
stroke:#000000; stroke-width:59.0551; stroke-opacity:1; 
stroke-linecap:round; stroke-linejoin:round;">
<path d="M54765 33428
L54838 33452
L54863 33476
L54887 33525
L54887 33598
L54863 33647
L54838 33671
L54790 33696
L54595 33696
L54595 33184
L54765 33184
L54814 33208
L54838 33233
L54863 33281
L54863 33330
L54838 33379
L54814 33403
L54765 33428
L54595 33428
" />
</g>
<g style="fill:#000000; fill-opacity:0.0; 
stroke:#000000; stroke-width:39.3701; stroke-opacity:1; 
stroke-linecap:round; stroke-linejoin:round;">
</g>
<g style="fill:#000000; fill-opacity:0.0; 
stroke:#000000; stroke-width:59.0551; stroke-opacity:1; 
stroke-linecap:round; stroke-linejoin:round;">
<path d="M54887 53332
L54863 53356
L54790 53381
L54741 53381
L54668 53356
L54619 53308
L54595 53259
L54570 53161
L54570 53088
L54595 52991
L54619 52942
L54668 52893
L54741 52869
L54790 52869
L54863 52893
L54887 52918
" />
</g>
<g style="fill:#000000; fill-opacity:0.0; 
stroke:#000000; stroke-width:39.3701; stroke-opacity:1; 
stroke-linecap:round; stroke-linejoin:round;">
</g>
<g style="fill:#000000; fill-opacity:0.0; 
stroke:#000000; stroke-width:59.0551; stroke-opacity:1; 
stroke-linecap:round; stroke-linejoin:round;">
<path d="M21011 52673
L21011 52083
L21152 52083
L21236 52111
L21292 52167
L21320 52223
L21349 52336
L21349 52420
L21320 52533
L21292 52589
L21236 52645
L21152 52673
L21011 52673
" />
<path d="M21855 52673
L21855 52364
L21827 52308
L21770 52279
L21658 52279
L21602 52308
" />
<path d="M21855 52645
L21799 52673
L21658 52673
L21602 52645
L21574 52589
L21574 52533
L21602 52476
L21658 52448
L21799 52448
L21855 52420
" />
<path d="M22052 52279
L22277 52279
" />
<path d="M22136 52083
L22136 52589
L22164 52645
L22220 52673
L22277 52673
" />
<path d="M22698 52645
L22642 52673
L22530 52673
L22473 52645
L22445 52589
L22445 52364
L22473 52308
L22530 52279
L22642 52279
L22698 52308
L22727 52364
L22727 52420
L22445 52476
" />
<path d="M22980 52617
L23008 52645
L22980 52673
L22952 52645
L22980 52617
L22980 52673
" />
<path d="M22980 52308
L23008 52336
L22980 52364
L22952 52336
L22980 52308
L22980 52364
" />
<path d="M23683 52139
L23711 52111
L23767 52083
L23908 52083
L23964 52111
L23992 52139
L24020 52195
L24020 52251
L23992 52336
L23655 52673
L24020 52673
" />
<path d="M24386 52083
L24442 52083
L24498 52111
L24526 52139
L24554 52195
L24583 52308
L24583 52448
L24554 52561
L24526 52617
L24498 52645
L24442 52673
L24386 52673
L24329 52645
L24301 52617
L24273 52561
L24245 52448
L24245 52308
L24273 52195
L24301 52139
L24329 52111
L24386 52083
" />
<path d="M25145 52673
L24808 52673
" />
<path d="M24976 52673
L24976 52083
L24920 52167
L24864 52223
L24808 52251
" />
<path d="M25651 52083
L25539 52083
L25482 52111
L25454 52139
L25398 52223
L25370 52336
L25370 52561
L25398 52617
L25426 52645
L25482 52673
L25595 52673
L25651 52645
L25679 52617
L25707 52561
L25707 52420
L25679 52364
L25651 52336
L25595 52308
L25482 52308
L25426 52336
L25398 52364
L25370 52420
" />
<path d="M25961 52448
L26410 52448
" />
<path d="M26804 52083
L26860 52083
L26917 52111
L26945 52139
L26973 52195
L27001 52308
L27001 52448
L26973 52561
L26945 52617
L26917 52645
L26860 52673
L26804 52673
L26748 52645
L26720 52617
L26692 52561
L26664 52448
L26664 52308
L26692 52195
L26720 52139
L26748 52111
L26804 52083
" />
<path d="M27507 52083
L27395 52083
L27338 52111
L27310 52139
L27254 52223
L27226 52336
L27226 52561
L27254 52617
L27282 52645
L27338 52673
L27451 52673
L27507 52645
L27535 52617
L27563 52561
L27563 52420
L27535 52364
L27507 52336
L27451 52308
L27338 52308
L27282 52336
L27254 52364
L27226 52420
" />
<path d="M27817 52448
L28266 52448
" />
<path d="M28857 52673
L28520 52673
" />
<path d="M28688 52673
L28688 52083
L28632 52167
L28576 52223
L28520 52251
" />
<path d="M29223 52083
L29279 52083
L29335 52111
L29363 52139
L29391 52195
L29419 52308
L29419 52448
L29391 52561
L29363 52617
L29335 52645
L29279 52673
L29223 52673
L29166 52645
L29138 52617
L29110 52561
L29082 52448
L29082 52308
L29110 52195
L29138 52139
L29166 52111
L29223 52083
" />
</g>
<g style="fill:#000000; fill-opacity:0.0; 
stroke:#000000; stroke-width:39.3701; stroke-opacity:1; 
stroke-linecap:round; stroke-linejoin:round;">
</g>
<g style="fill:#000000; fill-opacity:0.0; 
stroke:#000000; stroke-width:59.0551; stroke-opacity:1; 
stroke-linecap:round; stroke-linejoin:round;">
<path d="M11815 52957
L54335 52957
" />
</g>
<g style="fill:#000000; fill-opacity:0.0; 
stroke:#000000; stroke-width:39.3701; stroke-opacity:1; 
stroke-linecap:round; stroke-linejoin:round;">
</g>
<g style="fill:#000000; fill-opacity:0.0; 
stroke:#000000; stroke-width:59.0551; stroke-opacity:1; 
stroke-linecap:round; stroke-linejoin:round;">
<path d="M12350 53775
L12350 53185
" />
<path d="M12687 53775
L12434 53438
" />
<path d="M12687 53185
L12350 53522
" />
<path d="M12940 53775
L12940 53382
" />
<path d="M12940 53185
L12912 53213
L12940 53241
L12968 53213
L12940 53185
L12940 53241
" />
<path d="M13559 53719
L13531 53747
L13446 53775
L13390 53775
L13306 53747
L13250 53691
L13221 53635
L13193 53522
L13193 53438
L13221 53326
L13250 53269
L13306 53213
L13390 53185
L13446 53185
L13531 53213
L13559 53241
" />
<path d="M14065 53775
L14065 53466
L14037 53410
L13981 53382
L13868 53382
L13812 53410
" />
<path d="M14065 53747
L14009 53775
L13868 53775
L13812 53747
L13784 53691
L13784 53635
L13812 53579
L13868 53551
L14009 53551
L14065 53522
" />
<path d="M14599 53775
L14599 53185
" />
<path d="M14599 53747
L14543 53775
L14431 53775
L14374 53747
L14346 53719
L14318 53663
L14318 53494
L14346 53438
L14374 53410
L14431 53382
L14543 53382
L14599 53410
" />
<path d="M15331 53466
L15527 53466
" />
<path d="M15612 53775
L15331 53775
L15331 53185
L15612 53185
" />
<path d="M15865 53719
L15893 53747
L15865 53775
L15837 53747
L15865 53719
L15865 53775
" />
<path d="M16146 53775
L16146 53185
L16287 53185
L16371 53213
L16427 53269
L16455 53326
L16484 53438
L16484 53522
L16455 53635
L16427 53691
L16371 53747
L16287 53775
L16146 53775
" />
<path d="M16737 53719
L16765 53747
L16737 53775
L16709 53747
L16737 53719
L16737 53775
" />
<path d="M16990 53607
L17271 53607
" />
<path d="M16934 53775
L17130 53185
L17327 53775
" />
<path d="M17524 53719
L17552 53747
L17524 53775
L17496 53747
L17524 53719
L17524 53775
" />
<path d="M18705 53775
L18705 53185
" />
<path d="M18761 53551
L18930 53775
" />
<path d="M18930 53382
L18705 53607
" />
<path d="M19183 53775
L19183 53382
" />
<path d="M19183 53185
L19155 53213
L19183 53241
L19211 53213
L19183 53185
L19183 53241
" />
<path d="M19718 53747
L19661 53775
L19549 53775
L19493 53747
L19464 53719
L19436 53663
L19436 53494
L19464 53438
L19493 53410
L19549 53382
L19661 53382
L19718 53410
" />
<path d="M20224 53775
L20224 53466
L20196 53410
L20139 53382
L20027 53382
L19971 53410
" />
<path d="M20224 53747
L20167 53775
L20027 53775
L19971 53747
L19943 53691
L19943 53635
L19971 53579
L20027 53551
L20167 53551
L20224 53522
" />
<path d="M20758 53775
L20758 53185
" />
<path d="M20758 53747
L20702 53775
L20589 53775
L20533 53747
L20505 53719
L20477 53663
L20477 53494
L20505 53438
L20533 53410
L20589 53382
L20702 53382
L20758 53410
" />
<path d="M21742 53382
L21742 53775
" />
<path d="M21602 53157
L21461 53579
L21827 53579
" />
<path d="M22052 53719
L22080 53747
L22052 53775
L22024 53747
L22052 53719
L22052 53775
" />
<path d="M22445 53185
L22502 53185
L22558 53213
L22586 53241
L22614 53297
L22642 53410
L22642 53551
L22614 53663
L22586 53719
L22558 53747
L22502 53775
L22445 53775
L22389 53747
L22361 53719
L22333 53663
L22305 53551
L22305 53410
L22333 53297
L22361 53241
L22389 53213
L22445 53185
" />
<path d="M22895 53719
L22923 53747
L22895 53775
L22867 53747
L22895 53719
L22895 53775
" />
<path d="M23148 53241
L23176 53213
L23233 53185
L23373 53185
L23430 53213
L23458 53241
L23486 53297
L23486 53354
L23458 53438
L23120 53775
L23486 53775
" />
<path d="M23739 53551
L24189 53551
" />
<path d="M23964 53775
L23964 53326
" />
<path d="M24723 53775
L24723 53185
" />
<path d="M24723 53747
L24667 53775
L24554 53775
L24498 53747
L24470 53719
L24442 53663
L24442 53494
L24470 53438
L24498 53410
L24554 53382
L24667 53382
L24723 53410
" />
<path d="M24920 53382
L25145 53382
" />
<path d="M25004 53775
L25004 53269
L25033 53213
L25089 53185
L25145 53185
" />
<path d="M25314 53747
L25370 53775
L25482 53775
L25539 53747
L25567 53691
L25567 53663
L25539 53607
L25482 53579
L25398 53579
L25342 53551
L25314 53494
L25314 53466
L25342 53410
L25398 53382
L25482 53382
L25539 53410
" />
<path d="M26073 53382
L26073 53860
L26045 53916
L26017 53944
L25961 53972
L25876 53972
L25820 53944
" />
<path d="M26073 53747
L26017 53775
L25904 53775
L25848 53747
L25820 53719
L25792 53663
L25792 53494
L25820 53438
L25848 53410
L25904 53382
L26017 53382
L26073 53410
" />
<path d="M26664 53775
L26326 53775
" />
<path d="M26495 53775
L26495 53185
L26439 53269
L26382 53326
L26326 53354
" />
<path d="M26917 53551
L27367 53551
" />
<path d="M27620 53747
L27676 53775
L27788 53775
L27845 53747
L27873 53691
L27873 53663
L27845 53607
L27788 53579
L27704 53579
L27648 53551
L27620 53494
L27620 53466
L27648 53410
L27704 53382
L27788 53382
L27845 53410
" />
<path d="M28042 53382
L28266 53382
" />
<path d="M28126 53185
L28126 53691
L28154 53747
L28210 53775
L28266 53775
" />
<path d="M28716 53775
L28716 53466
L28688 53410
L28632 53382
L28520 53382
L28463 53410
" />
<path d="M28716 53747
L28660 53775
L28520 53775
L28463 53747
L28435 53691
L28435 53635
L28463 53579
L28520 53551
L28660 53551
L28716 53522
" />
<path d="M28998 53775
L28998 53185
" />
<path d="M28998 53410
L29054 53382
L29166 53382
L29223 53410
L29251 53438
L29279 53494
L29279 53663
L29251 53719
L29223 53747
L29166 53775
L29054 53775
L28998 53747
" />
<path d="M29616 53775
L29560 53747
L29532 53691
L29532 53185
" />
<path d="M30066 53747
L30010 53775
L29898 53775
L29841 53747
L29813 53691
L29813 53466
L29841 53410
L29898 53382
L30010 53382
L30066 53410
L30094 53466
L30094 53522
L29813 53579
" />
</g>
<g style="fill:#000000; fill-opacity:0.0; 
stroke:#000000; stroke-width:39.3701; stroke-opacity:1; 
stroke-linecap:round; stroke-linejoin:round;">
</g>
<g style="fill:#000000; fill-opacity:0.0; 
stroke:#000000; stroke-width:59.0551; stroke-opacity:1; 
stroke-linecap:round; stroke-linejoin:round;">
<path d="M11815 51776
L54335 51776
" />
</g>
<g style="fill:#000000; fill-opacity:0.0; 
stroke:#000000; stroke-width:39.3701; stroke-opacity:1; 
stroke-linecap:round; stroke-linejoin:round;">
</g>
<g style="fill:#000000; fill-opacity:0.0; 
stroke:#000000; stroke-width:118.11; stroke-opacity:1; 
stroke-linecap:round; stroke-linejoin:round;">
<path d="M46152 52673
L45955 52392
" />
<path d="M45814 52673
L45814 52083
L46039 52083
L46095 52111
L46124 52139
L46152 52195
L46152 52279
L46124 52336
L46095 52364
L46039 52392
L45814 52392
" />
<path d="M46630 52645
L46574 52673
L46461 52673
L46405 52645
L46377 52589
L46377 52364
L46405 52308
L46461 52279
L46574 52279
L46630 52308
L46658 52364
L46658 52420
L46377 52476
" />
<path d="M46855 52279
L46995 52673
L47136 52279
" />
<path d="M47361 52617
L47389 52645
L47361 52673
L47333 52645
L47361 52617
L47361 52673
" />
<path d="M47361 52308
L47389 52336
L47361 52364
L47333 52336
L47361 52308
L47361 52364
" />
<path d="M48401 52673
L48064 52673
" />
<path d="M48233 52673
L48233 52083
L48176 52167
L48120 52223
L48064 52251
" />
<path d="M48655 52617
L48683 52645
L48655 52673
L48626 52645
L48655 52617
L48655 52673
" />
<path d="M49048 52083
L49104 52083
L49161 52111
L49189 52139
L49217 52195
L49245 52308
L49245 52448
L49217 52561
L49189 52617
L49161 52645
L49104 52673
L49048 52673
L48992 52645
L48964 52617
L48936 52561
L48908 52448
L48908 52308
L48936 52195
L48964 52139
L48992 52111
L49048 52083
" />
</g>
<g style="fill:#000000; fill-opacity:0.0; 
stroke:#000000; stroke-width:39.3701; stroke-opacity:1; 
stroke-linecap:round; stroke-linejoin:round;">
</g>
<g style="fill:#000000; fill-opacity:0.0; 
stroke:#000000; stroke-width:59.0551; stroke-opacity:1; 
stroke-linecap:round; stroke-linejoin:round;">
<path d="M12322 52645
L12406 52673
L12547 52673
L12603 52645
L12631 52617
L12659 52561
L12659 52504
L12631 52448
L12603 52420
L12547 52392
L12434 52364
L12378 52336
L12350 52308
L12322 52251
L12322 52195
L12350 52139
L12378 52111
L12434 52083
L12575 52083
L12659 52111
" />
<path d="M12912 52673
L12912 52279
" />
<path d="M12912 52083
L12884 52111
L12912 52139
L12940 52111
L12912 52083
L12912 52139
" />
<path d="M13137 52279
L13446 52279
L13137 52673
L13446 52673
" />
<path d="M13896 52645
L13840 52673
L13728 52673
L13671 52645
L13643 52589
L13643 52364
L13671 52308
L13728 52279
L13840 52279
L13896 52308
L13925 52364
L13925 52420
L13643 52476
" />
<path d="M14178 52617
L14206 52645
L14178 52673
L14149 52645
L14178 52617
L14178 52673
" />
<path d="M14178 52308
L14206 52336
L14178 52364
L14149 52336
L14178 52308
L14178 52364
" />
<path d="M14909 52083
L14909 52561
L14937 52617
L14965 52645
L15021 52673
L15134 52673
L15190 52645
L15218 52617
L15246 52561
L15246 52083
" />
<path d="M15499 52645
L15556 52673
L15668 52673
L15724 52645
L15752 52589
L15752 52561
L15724 52504
L15668 52476
L15584 52476
L15527 52448
L15499 52392
L15499 52364
L15527 52308
L15584 52279
L15668 52279
L15724 52308
" />
<path d="M16230 52645
L16174 52673
L16062 52673
L16006 52645
L15977 52589
L15977 52364
L16006 52308
L16062 52279
L16174 52279
L16230 52308
L16259 52364
L16259 52420
L15977 52476
" />
<path d="M16512 52673
L16512 52279
" />
<path d="M16512 52392
L16540 52336
L16568 52308
L16624 52279
L16680 52279
" />
</g>
<g style="fill:#000000; fill-opacity:0.0; 
stroke:#000000; stroke-width:39.3701; stroke-opacity:1; 
stroke-linecap:round; stroke-linejoin:round;">
</g>
<g style="fill:#000000; fill-opacity:0.0; 
stroke:#000000; stroke-width:59.0551; stroke-opacity:1; 
stroke-linecap:round; stroke-linejoin:round;">
<path d="M45814 53775
L45814 53185
" />
<path d="M46349 53775
L46349 53185
" />
<path d="M46349 53747
L46292 53775
L46180 53775
L46124 53747
L46095 53719
L46067 53663
L46067 53494
L46095 53438
L46124 53410
L46180 53382
L46292 53382
L46349 53410
" />
<path d="M46630 53719
L46658 53747
L46630 53775
L46602 53747
L46630 53719
L46630 53775
" />
<path d="M46630 53410
L46658 53438
L46630 53466
L46602 53438
L46630 53410
L46630 53466
" />
<path d="M47670 53775
L47333 53775
" />
<path d="M47502 53775
L47502 53185
L47445 53269
L47389 53326
L47333 53354
" />
<path d="M48345 53157
L47839 53916
" />
<path d="M48851 53775
L48514 53775
" />
<path d="M48683 53775
L48683 53185
L48626 53269
L48570 53326
L48514 53354
" />
</g>
<g style="fill:#000000; fill-opacity:0.0; 
stroke:#000000; stroke-width:39.3701; stroke-opacity:1; 
stroke-linecap:round; stroke-linejoin:round;">
</g>
<g style="fill:#000000; fill-opacity:0.0; 
stroke:#000000; stroke-width:59.0551; stroke-opacity:1; 
stroke-linecap:round; stroke-linejoin:round;">
<path d="M11815 50201
L54335 50201
" />
</g>
<g style="fill:#000000; fill-opacity:0.0; 
stroke:#000000; stroke-width:39.3701; stroke-opacity:1; 
stroke-linecap:round; stroke-linejoin:round;">
</g>
<g style="fill:#000000; fill-opacity:0.0; 
stroke:#000000; stroke-width:157.48; stroke-opacity:1; 
stroke-linecap:round; stroke-linejoin:round;">
<path d="M12387 50479
L12837 50479
" />
<path d="M12514 51266
L12612 50479
" />
<path d="M13001 51266
L13067 50741
" />
<path d="M13100 50479
L13057 50516
L13090 50554
L13132 50516
L13100 50479
L13090 50554
" />
<path d="M13329 50741
L13629 50741
" />
<path d="M13475 50479
L13390 51154
L13418 51229
L13489 51266
L13564 51266
" />
<path d="M13939 51266
L13868 51229
L13840 51154
L13925 50479
" />
<path d="M14543 51229
L14464 51266
L14314 51266
L14243 51229
L14215 51154
L14253 50854
L14299 50779
L14379 50741
L14529 50741
L14599 50779
L14628 50854
L14618 50929
L14234 51004
" />
<path d="M14923 51191
L14956 51229
L14913 51266
L14881 51229
L14923 51191
L14913 51266
" />
<path d="M14974 50779
L15007 50816
L14965 50854
L14932 50816
L14974 50779
L14965 50854
" />
<path d="M16348 51191
L16305 51229
L16188 51266
L16113 51266
L16006 51229
L15940 51154
L15912 51079
L15893 50929
L15907 50816
L15963 50666
L16010 50591
L16095 50516
L16212 50479
L16287 50479
L16395 50516
L16427 50554
" />
<path d="M17013 51266
L17065 50854
L17037 50779
L16966 50741
L16816 50741
L16737 50779
" />
<path d="M17018 51229
L16938 51266
L16751 51266
L16680 51229
L16652 51154
L16662 51079
L16709 51004
L16788 50966
L16976 50966
L17055 50929
" />
<path d="M17388 51266
L17454 50741
" />
<path d="M17435 50891
L17482 50816
L17524 50779
L17604 50741
L17679 50741
" />
<path d="M17829 50741
L18129 50741
" />
<path d="M17974 50479
L17890 51154
L17918 51229
L17988 51266
L18063 51266
" />
<path d="M18630 51229
L18551 51266
L18401 51266
L18330 51229
L18302 51154
L18340 50854
L18386 50779
L18466 50741
L18616 50741
L18686 50779
L18715 50854
L18705 50929
L18321 51004
" />
<path d="M19943 51229
L19863 51266
L19713 51266
L19643 51229
L19610 51191
L19582 51116
L19610 50891
L19657 50816
L19699 50779
L19778 50741
L19928 50741
L19999 50779
" />
<path d="M20275 51266
L20341 50741
" />
<path d="M20374 50479
L20332 50516
L20364 50554
L20407 50516
L20374 50479
L20364 50554
" />
<path d="M20650 51266
L20716 50741
" />
<path d="M20697 50891
L20744 50816
L20786 50779
L20866 50741
L20941 50741
" />
<path d="M21480 51229
L21400 51266
L21250 51266
L21180 51229
L21147 51191
L21119 51116
L21147 50891
L21194 50816
L21236 50779
L21316 50741
L21466 50741
L21536 50779
" />
<path d="M22216 50741
L22150 51266
" />
<path d="M21878 50741
L21827 51154
L21855 51229
L21925 51266
L22038 51266
L22117 51229
L22159 51191
" />
<path d="M22525 51266
L22591 50741
" />
<path d="M22623 50479
L22581 50516
L22614 50554
L22656 50516
L22623 50479
L22614 50554
" />
<path d="M22853 50741
L23153 50741
" />
<path d="M22998 50479
L22914 51154
L22942 51229
L23012 51266
L23087 51266
" />
</g>
<g style="fill:#000000; fill-opacity:0.0; 
stroke:#000000; stroke-width:39.3701; stroke-opacity:1; 
stroke-linecap:round; stroke-linejoin:round;">
</g>
<g style="fill:#000000; fill-opacity:0.0; 
stroke:#000000; stroke-width:59.0551; stroke-opacity:1; 
stroke-linecap:round; stroke-linejoin:round;">
<path d="M12547 49450
L12350 49450
" />
<path d="M12350 49760
L12350 49169
L12631 49169
" />
<path d="M12856 49760
L12856 49366
" />
<path d="M12856 49169
L12828 49197
L12856 49225
L12884 49197
L12856 49169
L12856 49225
" />
<path d="M13221 49760
L13165 49732
L13137 49675
L13137 49169
" />
<path d="M13671 49732
L13615 49760
L13503 49760
L13446 49732
L13418 49675
L13418 49450
L13446 49394
L13503 49366
L13615 49366
L13671 49394
L13700 49450
L13700 49507
L13418 49563
" />
<path d="M13953 49703
L13981 49732
L13953 49760
L13925 49732
L13953 49703
L13953 49760
" />
<path d="M13953 49394
L13981 49422
L13953 49450
L13925 49422
L13953 49394
L13953 49450
" />
<path d="M14937 49732
L14881 49760
L14768 49760
L14712 49732
L14684 49703
L14656 49647
L14656 49479
L14684 49422
L14712 49394
L14768 49366
L14881 49366
L14937 49394
" />
<path d="M15190 49760
L15190 49366
" />
<path d="M15190 49169
L15162 49197
L15190 49225
L15218 49197
L15190 49169
L15190 49225
" />
<path d="M15471 49760
L15471 49366
" />
<path d="M15471 49479
L15499 49422
L15527 49394
L15584 49366
L15640 49366
" />
<path d="M16090 49732
L16034 49760
L15921 49760
L15865 49732
L15837 49703
L15809 49647
L15809 49479
L15837 49422
L15865 49394
L15921 49366
L16034 49366
L16090 49394
" />
<path d="M16596 49366
L16596 49760
" />
<path d="M16343 49366
L16343 49675
L16371 49732
L16427 49760
L16512 49760
L16568 49732
L16596 49703
" />
<path d="M16877 49760
L16877 49366
" />
<path d="M16877 49169
L16849 49197
L16877 49225
L16905 49197
L16877 49169
L16877 49225
" />
<path d="M17074 49366
L17299 49366
" />
<path d="M17158 49169
L17158 49675
L17187 49732
L17243 49760
L17299 49760
" />
<path d="M17496 49703
L17524 49732
L17496 49760
L17468 49732
L17496 49703
L17496 49760
" />
<path d="M17777 49760
L17777 49169
" />
<path d="M17833 49535
L18002 49760
" />
<path d="M18002 49366
L17777 49591
" />
<path d="M18255 49760
L18255 49366
" />
<path d="M18255 49169
L18227 49197
L18255 49225
L18283 49197
L18255 49169
L18255 49225
" />
<path d="M18790 49732
L18733 49760
L18621 49760
L18565 49732
L18536 49703
L18508 49647
L18508 49479
L18536 49422
L18565 49394
L18621 49366
L18733 49366
L18790 49394
" />
<path d="M19296 49760
L19296 49450
L19268 49394
L19211 49366
L19099 49366
L19043 49394
" />
<path d="M19296 49732
L19239 49760
L19099 49760
L19043 49732
L19015 49675
L19015 49619
L19043 49563
L19099 49535
L19239 49535
L19296 49507
" />
<path d="M19830 49760
L19830 49169
" />
<path d="M19830 49732
L19774 49760
L19661 49760
L19605 49732
L19577 49703
L19549 49647
L19549 49479
L19577 49422
L19605 49394
L19661 49366
L19774 49366
L19830 49394
" />
<path d="M19971 49816
L20421 49816
" />
<path d="M20561 49366
L20561 49957
" />
<path d="M20561 49394
L20617 49366
L20730 49366
L20786 49394
L20814 49422
L20842 49479
L20842 49647
L20814 49703
L20786 49732
L20730 49760
L20617 49760
L20561 49732
" />
<path d="M21349 49732
L21292 49760
L21180 49760
L21124 49732
L21095 49703
L21067 49647
L21067 49479
L21095 49422
L21124 49394
L21180 49366
L21292 49366
L21349 49394
" />
<path d="M21602 49760
L21602 49169
" />
<path d="M21602 49394
L21658 49366
L21770 49366
L21827 49394
L21855 49422
L21883 49479
L21883 49647
L21855 49703
L21827 49732
L21770 49760
L21658 49760
L21602 49732
" />
</g>
<g style="fill:#000000; fill-opacity:0.0; 
stroke:#000000; stroke-width:39.3701; stroke-opacity:1; 
stroke-linecap:round; stroke-linejoin:round;">
</g>
<g style="fill:#000000; fill-opacity:0.0; 
stroke:#000000; stroke-width:59.0551; stroke-opacity:1; 
stroke-linecap:round; stroke-linejoin:round;">
<path d="M11815 47839
L54335 47839
" />
</g>
<g style="fill:#000000; fill-opacity:0.0; 
stroke:#000000; stroke-width:39.3701; stroke-opacity:1; 
stroke-linecap:round; stroke-linejoin:round;">
</g>
<g style="fill:#000000; fill-opacity:0.0; 
stroke:#000000; stroke-width:59.0551; stroke-opacity:1; 
stroke-linecap:round; stroke-linejoin:round;">
<path d="M12322 48669
L12406 48697
L12547 48697
L12603 48669
L12631 48640
L12659 48584
L12659 48528
L12631 48472
L12603 48444
L12547 48416
L12434 48387
L12378 48359
L12350 48331
L12322 48275
L12322 48219
L12350 48162
L12378 48134
L12434 48106
L12575 48106
L12659 48134
" />
<path d="M12912 48697
L12912 48106
" />
<path d="M13165 48697
L13165 48387
L13137 48331
L13081 48303
L12997 48303
L12940 48331
L12912 48359
" />
<path d="M13671 48669
L13615 48697
L13503 48697
L13446 48669
L13418 48612
L13418 48387
L13446 48331
L13503 48303
L13615 48303
L13671 48331
L13700 48387
L13700 48444
L13418 48500
" />
<path d="M14178 48669
L14121 48697
L14009 48697
L13953 48669
L13925 48612
L13925 48387
L13953 48331
L14009 48303
L14121 48303
L14178 48331
L14206 48387
L14206 48444
L13925 48500
" />
<path d="M14374 48303
L14599 48303
" />
<path d="M14459 48106
L14459 48612
L14487 48669
L14543 48697
L14599 48697
" />
<path d="M14796 48640
L14824 48669
L14796 48697
L14768 48669
L14796 48640
L14796 48697
" />
<path d="M14796 48331
L14824 48359
L14796 48387
L14768 48359
L14796 48331
L14796 48387
" />
</g>
<g style="fill:#000000; fill-opacity:0.0; 
stroke:#000000; stroke-width:39.3701; stroke-opacity:1; 
stroke-linecap:round; stroke-linejoin:round;">
</g>
<g style="fill:#000000; fill-opacity:0.0; 
stroke:#000000; stroke-width:118.11; stroke-opacity:1; 
stroke-linecap:round; stroke-linejoin:round;">
<path d="M12350 47516
L12350 46925
" />
<path d="M12631 47516
L12631 46925
L12856 46925
L12912 46953
L12940 46981
L12968 47038
L12968 47122
L12940 47178
L12912 47206
L12856 47234
L12631 47234
" />
<path d="M13193 47488
L13278 47516
L13418 47516
L13475 47488
L13503 47459
L13531 47403
L13531 47347
L13503 47291
L13475 47263
L13418 47234
L13306 47206
L13250 47178
L13221 47150
L13193 47094
L13193 47038
L13221 46981
L13250 46953
L13306 46925
L13446 46925
L13531 46953
" />
<path d="M13756 47347
L14037 47347
" />
<path d="M13700 47516
L13896 46925
L14093 47516
" />
</g>
<g style="fill:#000000; fill-opacity:0.0; 
stroke:#000000; stroke-width:39.3701; stroke-opacity:1; 
stroke-linecap:round; stroke-linejoin:round;">
</g>
<g style="fill:#000000; fill-opacity:0.0; 
stroke:#000000; stroke-width:59.0551; stroke-opacity:1; 
stroke-linecap:round; stroke-linejoin:round;">
<path d="M19689 51776
L19689 52957
" />
</g>
<g style="fill:#000000; fill-opacity:0.0; 
stroke:#000000; stroke-width:39.3701; stroke-opacity:1; 
stroke-linecap:round; stroke-linejoin:round;">
</g>
<g style="fill:#000000; fill-opacity:0.0; 
stroke:#000000; stroke-width:59.0551; stroke-opacity:1; 
stroke-linecap:round; stroke-linejoin:round;">
<path d="M44886 51776
L44886 54335
" />
</g>
<g style="fill:#C2C200; fill-opacity:0.0; 
stroke:#C2C200; stroke-width:59.0551; stroke-opacity:1; 
stroke-linecap:round; stroke-linejoin:round;">
<path d="M12000 38500
L12000 7500
" />
<path d="M46000 38500
L12000 38500
" />
<path d="M46000 7500
L46000 38500
" />
<path d="M12000 7500
L46000 7500
" />
<path d="M26003 15122
L26003 14729
" />
<path d="M26003 14916
L26228 14916
" />
<path d="M26228 15122
L26228 14729
" />
<path d="M26640 15085
L26621 15104
L26565 15122
L26528 15122
L26471 15104
L26434 15066
L26415 15029
L26396 14954
L26396 14898
L26415 14823
L26434 14785
L26471 14748
L26528 14729
L26565 14729
L26621 14748
L26640 14766
" />
<path d="M27015 15122
L26790 15122
" />
<path d="M26903 15122
L26903 14729
L26865 14785
L26828 14823
L26790 14841
" />
<path d="M44459 7170
L44459 6776
L44609 6776
L44646 6795
L44665 6814
L44684 6851
L44684 6907
L44665 6945
L44646 6964
L44609 6982
L44459 6982
" />
<path d="M45059 7170
L44834 7170
" />
<path d="M44946 7170
L44946 6776
L44909 6832
L44871 6870
L44834 6889
" />
<path d="M44459 30170
L44459 29776
L44609 29776
L44646 29795
L44665 29814
L44684 29851
L44684 29907
L44665 29945
L44646 29964
L44609 29982
L44459 29982
" />
<path d="M44834 29814
L44853 29795
L44890 29776
L44984 29776
L45021 29795
L45040 29814
L45059 29851
L45059 29889
L45040 29945
L44815 30170
L45059 30170
" />
<path d="M44459 19170
L44459 18776
L44609 18776
L44646 18795
L44665 18814
L44684 18851
L44684 18907
L44665 18945
L44646 18964
L44609 18982
L44459 18982
" />
<path d="M44815 18776
L45059 18776
L44928 18926
L44984 18926
L45021 18945
L45040 18964
L45059 19001
L45059 19095
L45040 19132
L45021 19151
L44984 19170
L44871 19170
L44834 19151
L44815 19132
" />
<path d="M13209 25185
L13209 24792
L13359 24792
L13396 24811
L13415 24829
L13434 24867
L13434 24923
L13415 24961
L13396 24979
L13359 24998
L13209 24998
" />
<path d="M13771 24923
L13771 25185
" />
<path d="M13678 24773
L13584 25054
L13828 25054
" />
<path d="M39056 15663
L38868 15794
" />
<path d="M39056 15888
L38662 15888
L38662 15738
L38681 15701
L38699 15682
L38737 15663
L38793 15663
L38831 15682
L38849 15701
L38868 15738
L38868 15888
" />
<path d="M39056 15288
L39056 15513
" />
<path d="M39056 15401
L38662 15401
L38718 15438
L38756 15476
L38774 15513
" />
<path d="M38282 17800
L38151 17612
" />
<path d="M38057 17800
L38057 17406
L38207 17406
L38244 17425
L38263 17443
L38282 17481
L38282 17537
L38263 17575
L38244 17593
L38207 17612
L38057 17612
" />
<path d="M38432 17443
L38451 17425
L38488 17406
L38582 17406
L38619 17425
L38638 17443
L38657 17481
L38657 17518
L38638 17575
L38413 17800
L38657 17800
" />
<path d="M38086 22556
L37955 22368
" />
<path d="M37861 22556
L37861 22162
L38011 22162
L38048 22181
L38067 22199
L38086 22237
L38086 22293
L38067 22331
L38048 22349
L38011 22368
L37861 22368
" />
<path d="M38217 22162
L38461 22162
L38330 22312
L38386 22312
L38423 22331
L38442 22349
L38461 22387
L38461 22481
L38442 22518
L38423 22537
L38386 22556
L38273 22556
L38236 22537
L38217 22518
" />
<path d="M38086 24556
L37955 24368
" />
<path d="M37861 24556
L37861 24162
L38011 24162
L38048 24181
L38067 24199
L38086 24237
L38086 24293
L38067 24331
L38048 24349
L38011 24368
L37861 24368
" />
<path d="M38423 24293
L38423 24556
" />
<path d="M38330 24143
L38236 24424
L38480 24424
" />
<path d="M21032 14800
L20901 14612
" />
<path d="M20807 14800
L20807 14406
L20957 14406
L20994 14425
L21013 14443
L21032 14481
L21032 14537
L21013 14575
L20994 14593
L20957 14612
L20807 14612
" />
<path d="M21388 14406
L21201 14406
L21182 14593
L21201 14575
L21238 14556
L21332 14556
L21369 14575
L21388 14593
L21407 14631
L21407 14725
L21388 14762
L21369 14781
L21332 14800
L21238 14800
L21201 14781
L21182 14762
" />
<path d="M21032 16800
L20901 16612
" />
<path d="M20807 16800
L20807 16406
L20957 16406
L20994 16425
L21013 16443
L21032 16481
L21032 16537
L21013 16575
L20994 16593
L20957 16612
L20807 16612
" />
<path d="M21369 16406
L21294 16406
L21257 16425
L21238 16443
L21201 16500
L21182 16575
L21182 16725
L21201 16762
L21219 16781
L21257 16800
L21332 16800
L21369 16781
L21388 16762
L21407 16725
L21407 16631
L21388 16593
L21369 16575
L21332 16556
L21257 16556
L21219 16575
L21201 16593
L21182 16631
" />
<path d="M21032 20800
L20901 20612
" />
<path d="M20807 20800
L20807 20406
L20957 20406
L20994 20425
L21013 20443
L21032 20481
L21032 20537
L21013 20575
L20994 20593
L20957 20612
L20807 20612
" />
<path d="M21163 20406
L21426 20406
L21257 20800
" />
<path d="M21032 18800
L20901 18612
" />
<path d="M20807 18800
L20807 18406
L20957 18406
L20994 18425
L21013 18443
L21032 18481
L21032 18537
L21013 18575
L20994 18593
L20957 18612
L20807 18612
" />
<path d="M21257 18575
L21219 18556
L21201 18537
L21182 18500
L21182 18481
L21201 18443
L21219 18425
L21257 18406
L21332 18406
L21369 18425
L21388 18443
L21407 18481
L21407 18500
L21388 18537
L21369 18556
L21332 18575
L21257 18575
L21219 18593
L21201 18612
L21182 18650
L21182 18725
L21201 18762
L21219 18781
L21257 18800
L21332 18800
L21369 18781
L21388 18762
L21407 18725
L21407 18650
L21388 18612
L21369 18593
L21332 18575
" />
<path d="M22032 27800
L21901 27612
" />
<path d="M21807 27800
L21807 27406
L21957 27406
L21994 27425
L22013 27443
L22032 27481
L22032 27537
L22013 27575
L21994 27593
L21957 27612
L21807 27612
" />
<path d="M22219 27800
L22294 27800
L22332 27781
L22351 27762
L22388 27706
L22407 27631
L22407 27481
L22388 27443
L22369 27425
L22332 27406
L22257 27406
L22219 27425
L22201 27443
L22182 27481
L22182 27575
L22201 27612
L22219 27631
L22257 27650
L22332 27650
L22369 27631
L22388 27612
L22407 27575
" />
<path d="M21844 29800
L21713 29612
" />
<path d="M21619 29800
L21619 29406
L21769 29406
L21807 29425
L21826 29443
L21844 29481
L21844 29537
L21826 29575
L21807 29593
L21769 29612
L21619 29612
" />
<path d="M22219 29800
L21994 29800
" />
<path d="M22107 29800
L22107 29406
L22069 29462
L22032 29500
L21994 29518
" />
<path d="M22463 29406
L22501 29406
L22538 29425
L22557 29443
L22576 29481
L22594 29556
L22594 29650
L22576 29725
L22557 29762
L22538 29781
L22501 29800
L22463 29800
L22426 29781
L22407 29762
L22388 29725
L22369 29650
L22369 29556
L22388 29481
L22407 29443
L22426 29425
L22463 29406
" />
<path d="M21844 31800
L21713 31612
" />
<path d="M21619 31800
L21619 31406
L21769 31406
L21807 31425
L21826 31443
L21844 31481
L21844 31537
L21826 31575
L21807 31593
L21769 31612
L21619 31612
" />
<path d="M22219 31800
L21994 31800
" />
<path d="M22107 31800
L22107 31406
L22069 31462
L22032 31500
L21994 31518
" />
<path d="M22594 31800
L22369 31800
" />
<path d="M22482 31800
L22482 31406
L22444 31462
L22407 31500
L22369 31518
" />
<path d="M21844 33550
L21713 33362
" />
<path d="M21619 33550
L21619 33156
L21769 33156
L21807 33175
L21826 33193
L21844 33231
L21844 33287
L21826 33325
L21807 33343
L21769 33362
L21619 33362
" />
<path d="M22219 33550
L21994 33550
" />
<path d="M22107 33550
L22107 33156
L22069 33212
L22032 33250
L21994 33268
" />
<path d="M22369 33193
L22388 33175
L22426 33156
L22519 33156
L22557 33175
L22576 33193
L22594 33231
L22594 33268
L22576 33325
L22351 33550
L22594 33550
" />
<path d="M26003 26122
L26003 25729
" />
<path d="M26003 25916
L26228 25916
" />
<path d="M26228 26122
L26228 25729
" />
<path d="M26640 26085
L26621 26104
L26565 26122
L26528 26122
L26471 26104
L26434 26066
L26415 26029
L26396 25954
L26396 25898
L26415 25823
L26434 25785
L26471 25748
L26528 25729
L26565 25729
L26621 25748
L26640 25766
" />
<path d="M26790 25766
L26809 25748
L26846 25729
L26940 25729
L26978 25748
L26996 25766
L27015 25804
L27015 25841
L26996 25898
L26771 26122
L27015 26122
" />
<path d="M33959 14170
L33959 13776
L34109 13776
L34146 13795
L34165 13814
L34184 13851
L34184 13907
L34165 13945
L34146 13964
L34109 13982
L33959 13982
" />
<path d="M34521 13776
L34446 13776
L34409 13795
L34390 13814
L34353 13870
L34334 13945
L34334 14095
L34353 14132
L34371 14151
L34409 14170
L34484 14170
L34521 14151
L34540 14132
L34559 14095
L34559 14001
L34540 13964
L34521 13945
L34484 13926
L34409 13926
L34371 13945
L34353 13964
L34334 14001
" />
<path d="M33959 20170
L33959 19776
L34109 19776
L34146 19795
L34165 19814
L34184 19851
L34184 19907
L34165 19945
L34146 19964
L34109 19982
L33959 19982
" />
<path d="M34315 19776
L34578 19776
L34409 20170
" />
<path d="M41700 24284
L41700 24603
L41718 24640
L41737 24659
L41775 24678
L41850 24678
L41887 24659
L41906 24640
L41925 24603
L41925 24284
" />
<path d="M42318 24678
L42093 24678
" />
<path d="M42206 24678
L42206 24284
L42168 24340
L42131 24378
L42093 24396
" />
<path d="M30700 12284
L30700 12603
L30718 12640
L30737 12659
L30775 12678
L30850 12678
L30887 12659
L30906 12640
L30925 12603
L30925 12284
" />
<path d="M31093 12321
L31112 12303
L31149 12284
L31243 12284
L31281 12303
L31299 12321
L31318 12359
L31318 12396
L31299 12453
L31074 12678
L31318 12678
" />
<path d="M32200 29784
L32200 30103
L32218 30140
L32237 30159
L32275 30178
L32350 30178
L32387 30159
L32406 30140
L32425 30103
L32425 29784
" />
<path d="M32574 29784
L32818 29784
L32687 29934
L32743 29934
L32781 29953
L32799 29971
L32818 30009
L32818 30103
L32799 30140
L32781 30159
L32743 30178
L32631 30178
L32593 30159
L32574 30140
" />
</g>
<g style="fill:#008484; fill-opacity:0.0; 
stroke:#008484; stroke-width:59.0551; stroke-opacity:1; 
stroke-linecap:round; stroke-linejoin:round;">
<path d="M26553 16096
L26553 16596
" />
<path d="M29446 16096
L29446 16596
" />
<path d="M29446 23903
L29446 23403
" />
<path d="M26553 23903
L26553 23403
" />
<path d="M26553 16096
L29446 16096
" />
<path d="M26553 23903
L29446 23903
" />
<path d="M26553 16596
L26185 16596
" />
<path d="M44238 8389
L44238 9000
" />
<path d="M44750 8389
L44238 8389
" />
<path d="M46400 8950
L48700 8950
" />
<path d="M48700 8950
L48700 9050
" />
<path d="M48700 9050
L46400 9050
" />
<path d="M46400 9050
L46400 9000
" />
<path d="M46400 9000
L48700 9000
" />
<path d="M45350 8900
L45200 8900
" />
<path d="M45350 9100
L45200 9100
" />
<path d="M45350 9900
L45200 9900
" />
<path d="M45350 10100
L45200 10100
" />
<path d="M45350 10900
L45200 10900
" />
<path d="M45350 11100
L45200 11100
" />
<path d="M45350 14100
L45200 14100
" />
<path d="M45350 13900
L45200 13900
" />
<path d="M45350 13100
L45200 13100
" />
<path d="M45350 12900
L45200 12900
" />
<path d="M45350 12100
L45200 12100
" />
<path d="M45350 11900
L45200 11900
" />
<path d="M45350 8500
L46350 8500
" />
<path d="M45350 9500
L46350 9500
" />
<path d="M45350 9500
L45350 10500
" />
<path d="M45350 10500
L46350 10500
" />
<path d="M46350 9900
L48750 9900
" />
<path d="M48750 9900
L48750 10100
" />
<path d="M48750 10100
L46350 10100
" />
<path d="M46350 10500
L46350 9500
" />
<path d="M46350 9500
L46350 8500
" />
<path d="M48750 9100
L46350 9100
" />
<path d="M48750 8900
L48750 9100
" />
<path d="M46350 8900
L48750 8900
" />
<path d="M45350 9500
L46350 9500
" />
<path d="M45350 8500
L45350 9500
" />
<path d="M45350 12500
L46350 12500
" />
<path d="M45350 12500
L45350 13500
" />
<path d="M45350 13500
L46350 13500
" />
<path d="M46350 12900
L48750 12900
" />
<path d="M48750 12900
L48750 13100
" />
<path d="M48750 13100
L46350 13100
" />
<path d="M46350 13500
L46350 12500
" />
<path d="M46350 14500
L46350 13500
" />
<path d="M48750 14100
L46350 14100
" />
<path d="M48750 13900
L48750 14100
" />
<path d="M46350 13900
L48750 13900
" />
<path d="M45350 14500
L46350 14500
" />
<path d="M45350 13500
L45350 14500
" />
<path d="M45350 13500
L46350 13500
" />
<path d="M45350 11500
L46350 11500
" />
<path d="M45350 11500
L45350 12500
" />
<path d="M45350 12500
L46350 12500
" />
<path d="M46350 11900
L48750 11900
" />
<path d="M48750 11900
L48750 12100
" />
<path d="M48750 12100
L46350 12100
" />
<path d="M46350 12500
L46350 11500
" />
<path d="M46350 11500
L46350 10500
" />
<path d="M48750 11100
L46350 11100
" />
<path d="M48750 10900
L48750 11100
" />
<path d="M46350 10900
L48750 10900
" />
<path d="M45350 11500
L46350 11500
" />
<path d="M45350 10500
L45350 11500
" />
<path d="M45350 10500
L46350 10500
" />
<path d="M44238 31389
L44238 32000
" />
<path d="M44750 31389
L44238 31389
" />
<path d="M46400 31950
L48700 31950
" />
<path d="M48700 31950
L48700 32050
" />
<path d="M48700 32050
L46400 32050
" />
<path d="M46400 32050
L46400 32000
" />
<path d="M46400 32000
L48700 32000
" />
<path d="M45350 31900
L45200 31900
" />
<path d="M45350 32100
L45200 32100
" />
<path d="M45350 32900
L45200 32900
" />
<path d="M45350 33100
L45200 33100
" />
<path d="M45350 33900
L45200 33900
" />
<path d="M45350 34100
L45200 34100
" />
<path d="M45350 37100
L45200 37100
" />
<path d="M45350 36900
L45200 36900
" />
<path d="M45350 36100
L45200 36100
" />
<path d="M45350 35900
L45200 35900
" />
<path d="M45350 35100
L45200 35100
" />
<path d="M45350 34900
L45200 34900
" />
<path d="M45350 31500
L46350 31500
" />
<path d="M45350 32500
L46350 32500
" />
<path d="M45350 32500
L45350 33500
" />
<path d="M45350 33500
L46350 33500
" />
<path d="M46350 32900
L48750 32900
" />
<path d="M48750 32900
L48750 33100
" />
<path d="M48750 33100
L46350 33100
" />
<path d="M46350 33500
L46350 32500
" />
<path d="M46350 32500
L46350 31500
" />
<path d="M48750 32100
L46350 32100
" />
<path d="M48750 31900
L48750 32100
" />
<path d="M46350 31900
L48750 31900
" />
<path d="M45350 32500
L46350 32500
" />
<path d="M45350 31500
L45350 32500
" />
<path d="M45350 35500
L46350 35500
" />
<path d="M45350 35500
L45350 36500
" />
<path d="M45350 36500
L46350 36500
" />
<path d="M46350 35900
L48750 35900
" />
<path d="M48750 35900
L48750 36100
" />
<path d="M48750 36100
L46350 36100
" />
<path d="M46350 36500
L46350 35500
" />
<path d="M46350 37500
L46350 36500
" />
<path d="M48750 37100
L46350 37100
" />
<path d="M48750 36900
L48750 37100
" />
<path d="M46350 36900
L48750 36900
" />
<path d="M45350 37500
L46350 37500
" />
<path d="M45350 36500
L45350 37500
" />
<path d="M45350 36500
L46350 36500
" />
<path d="M45350 34500
L46350 34500
" />
<path d="M45350 34500
L45350 35500
" />
<path d="M45350 35500
L46350 35500
" />
<path d="M46350 34900
L48750 34900
" />
<path d="M48750 34900
L48750 35100
" />
<path d="M48750 35100
L46350 35100
" />
<path d="M46350 35500
L46350 34500
" />
<path d="M46350 34500
L46350 33500
" />
<path d="M48750 34100
L46350 34100
" />
<path d="M48750 33900
L48750 34100
" />
<path d="M46350 33900
L48750 33900
" />
<path d="M45350 34500
L46350 34500
" />
<path d="M45350 33500
L45350 34500
" />
<path d="M45350 33500
L46350 33500
" />
<path d="M44238 20389
L44238 21000
" />
<path d="M44750 20389
L44238 20389
" />
<path d="M46400 20950
L48700 20950
" />
<path d="M48700 20950
L48700 21050
" />
<path d="M48700 21050
L46400 21050
" />
<path d="M46400 21050
L46400 21000
" />
<path d="M46400 21000
L48700 21000
" />
<path d="M45350 20900
L45200 20900
" />
<path d="M45350 21100
L45200 21100
" />
<path d="M45350 21900
L45200 21900
" />
<path d="M45350 22100
L45200 22100
" />
<path d="M45350 22900
L45200 22900
" />
<path d="M45350 23100
L45200 23100
" />
<path d="M45350 26100
L45200 26100
" />
<path d="M45350 25900
L45200 25900
" />
<path d="M45350 25100
L45200 25100
" />
<path d="M45350 24900
L45200 24900
" />
<path d="M45350 24100
L45200 24100
" />
<path d="M45350 23900
L45200 23900
" />
<path d="M45350 20500
L46350 20500
" />
<path d="M45350 21500
L46350 21500
" />
<path d="M45350 21500
L45350 22500
" />
<path d="M45350 22500
L46350 22500
" />
<path d="M46350 21900
L48750 21900
" />
<path d="M48750 21900
L48750 22100
" />
<path d="M48750 22100
L46350 22100
" />
<path d="M46350 22500
L46350 21500
" />
<path d="M46350 21500
L46350 20500
" />
<path d="M48750 21100
L46350 21100
" />
<path d="M48750 20900
L48750 21100
" />
<path d="M46350 20900
L48750 20900
" />
<path d="M45350 21500
L46350 21500
" />
<path d="M45350 20500
L45350 21500
" />
<path d="M45350 24500
L46350 24500
" />
<path d="M45350 24500
L45350 25500
" />
<path d="M45350 25500
L46350 25500
" />
<path d="M46350 24900
L48750 24900
" />
<path d="M48750 24900
L48750 25100
" />
<path d="M48750 25100
L46350 25100
" />
<path d="M46350 25500
L46350 24500
" />
<path d="M46350 26500
L46350 25500
" />
<path d="M48750 26100
L46350 26100
" />
<path d="M48750 25900
L48750 26100
" />
<path d="M46350 25900
L48750 25900
" />
<path d="M45350 26500
L46350 26500
" />
<path d="M45350 25500
L45350 26500
" />
<path d="M45350 25500
L46350 25500
" />
<path d="M45350 23500
L46350 23500
" />
<path d="M45350 23500
L45350 24500
" />
<path d="M45350 24500
L46350 24500
" />
<path d="M46350 23900
L48750 23900
" />
<path d="M48750 23900
L48750 24100
" />
<path d="M48750 24100
L46350 24100
" />
<path d="M46350 24500
L46350 23500
" />
<path d="M46350 23500
L46350 22500
" />
<path d="M48750 23100
L46350 23100
" />
<path d="M48750 22900
L48750 23100
" />
<path d="M46350 22900
L48750 22900
" />
<path d="M45350 23500
L46350 23500
" />
<path d="M45350 22500
L45350 23500
" />
<path d="M45350 22500
L46350 22500
" />
<path d="M14011 23610
L14011 23000
" />
<path d="M13500 23610
L14011 23610
" />
<path d="M11850 23050
L9550 23050
" />
<path d="M9550 23050
L9550 22950
" />
<path d="M9550 22950
L11850 22950
" />
<path d="M11850 22950
L11850 23000
" />
<path d="M11850 23000
L9550 23000
" />
<path d="M12900 23100
L13050 23100
" />
<path d="M12900 22900
L13050 22900
" />
<path d="M12900 22100
L13050 22100
" />
<path d="M12900 21900
L13050 21900
" />
<path d="M12900 21100
L13050 21100
" />
<path d="M12900 20900
L13050 20900
" />
<path d="M12900 17900
L13050 17900
" />
<path d="M12900 18100
L13050 18100
" />
<path d="M12900 18900
L13050 18900
" />
<path d="M12900 19100
L13050 19100
" />
<path d="M12900 19900
L13050 19900
" />
<path d="M12900 20100
L13050 20100
" />
<path d="M12900 23500
L11900 23500
" />
<path d="M12900 22500
L11900 22500
" />
<path d="M12900 22500
L12900 21500
" />
<path d="M12900 21500
L11900 21500
" />
<path d="M11900 22100
L9500 22100
" />
<path d="M9500 22100
L9500 21900
" />
<path d="M9500 21900
L11900 21900
" />
<path d="M11900 21500
L11900 22500
" />
<path d="M11900 22500
L11900 23500
" />
<path d="M9500 22900
L11900 22900
" />
<path d="M9500 23100
L9500 22900
" />
<path d="M11900 23100
L9500 23100
" />
<path d="M12900 22500
L11900 22500
" />
<path d="M12900 23500
L12900 22500
" />
<path d="M12900 19500
L11900 19500
" />
<path d="M12900 19500
L12900 18500
" />
<path d="M12900 18500
L11900 18500
" />
<path d="M11900 19100
L9500 19100
" />
<path d="M9500 19100
L9500 18900
" />
<path d="M9500 18900
L11900 18900
" />
<path d="M11900 18500
L11900 19500
" />
<path d="M11900 17500
L11900 18500
" />
<path d="M9500 17900
L11900 17900
" />
<path d="M9500 18100
L9500 17900
" />
<path d="M11900 18100
L9500 18100
" />
<path d="M12900 17500
L11900 17500
" />
<path d="M12900 18500
L12900 17500
" />
<path d="M12900 18500
L11900 18500
" />
<path d="M12900 20500
L11900 20500
" />
<path d="M12900 20500
L12900 19500
" />
<path d="M12900 19500
L11900 19500
" />
<path d="M11900 20100
L9500 20100
" />
<path d="M9500 20100
L9500 19900
" />
<path d="M9500 19900
L11900 19900
" />
<path d="M11900 19500
L11900 20500
" />
<path d="M11900 20500
L11900 21500
" />
<path d="M9500 20900
L11900 20900
" />
<path d="M9500 21100
L9500 20900
" />
<path d="M11900 21100
L9500 21100
" />
<path d="M12900 20500
L11900 20500
" />
<path d="M12900 21500
L12900 20500
" />
<path d="M12900 21500
L11900 21500
" />
<path d="M38000 14500
L38000 16500
" />
<path d="M38000 16500
L37000 16500
" />
<path d="M37000 16500
L37000 14500
" />
<path d="M37000 14500
L38000 14500
" />
<path d="M37250 18500
L39250 18500
" />
<path d="M39250 18500
L39250 19500
" />
<path d="M39250 19500
L37250 19500
" />
<path d="M37250 19500
L37250 18500
" />
<path d="M39250 21500
L37250 21500
" />
<path d="M37250 21500
L37250 20500
" />
<path d="M37250 20500
L39250 20500
" />
<path d="M39250 20500
L39250 21500
" />
<path d="M39250 23500
L37250 23500
" />
<path d="M37250 23500
L37250 22500
" />
<path d="M37250 22500
L39250 22500
" />
<path d="M39250 22500
L39250 23500
" />
<path d="M20000 15500
L22000 15500
" />
<path d="M22000 15500
L22000 16500
" />
<path d="M22000 16500
L20000 16500
" />
<path d="M20000 16500
L20000 15500
" />
<path d="M20000 17500
L22000 17500
" />
<path d="M22000 17500
L22000 18500
" />
<path d="M22000 18500
L20000 18500
" />
<path d="M20000 18500
L20000 17500
" />
<path d="M20000 21500
L22000 21500
" />
<path d="M22000 21500
L22000 22500
" />
<path d="M22000 22500
L20000 22500
" />
<path d="M20000 22500
L20000 21500
" />
<path d="M20000 19500
L22000 19500
" />
<path d="M22000 19500
L22000 20500
" />
<path d="M22000 20500
L20000 20500
" />
<path d="M20000 20500
L20000 19500
" />
<path d="M21000 28500
L23000 28500
" />
<path d="M23000 28500
L23000 29500
" />
<path d="M23000 29500
L21000 29500
" />
<path d="M21000 29500
L21000 28500
" />
<path d="M21000 30500
L23000 30500
" />
<path d="M23000 30500
L23000 31500
" />
<path d="M23000 31500
L21000 31500
" />
<path d="M21000 31500
L21000 30500
" />
<path d="M21000 32500
L23000 32500
" />
<path d="M23000 32500
L23000 33500
" />
<path d="M23000 33500
L21000 33500
" />
<path d="M21000 33500
L21000 32500
" />
<path d="M21000 34250
L23000 34250
" />
<path d="M23000 34250
L23000 35250
" />
<path d="M23000 35250
L21000 35250
" />
<path d="M21000 35250
L21000 34250
" />
<path d="M26553 27096
L26553 27596
" />
<path d="M29446 27096
L29446 27596
" />
<path d="M29446 34903
L29446 34403
" />
<path d="M26553 34903
L26553 34403
" />
<path d="M26553 27096
L29446 27096
" />
<path d="M26553 34903
L29446 34903
" />
<path d="M26553 27596
L26185 27596
" />
<path d="M33750 16500
L33750 19500
" />
<path d="M34750 16500
L34750 19500
" />
<path d="M34860 15389
L34860 16000
" />
<path d="M33750 19500
L34750 19500
" />
<path d="M34750 16500
L33750 16500
" />
<path d="M33639 16000
L33639 15389
" />
<path d="M33639 15389
L34860 15389
" />
<path d="M33750 22500
L33750 25500
" />
<path d="M34750 22500
L34750 25500
" />
<path d="M34860 21389
L34860 22000
" />
<path d="M33750 25500
L34750 25500
" />
<path d="M34750 22500
L33750 22500
" />
<path d="M33639 22000
L33639 21389
" />
<path d="M33639 21389
L34860 21389
" />
</g>
<g style="fill:#840000; fill-opacity:0.0; 
stroke:#840000; stroke-width:59.0551; stroke-opacity:1; 
stroke-linecap:round; stroke-linejoin:round;">
</g>
<g style="fill:#840000; fill-opacity:0.0; 
stroke:#840000; stroke-width:629.921; stroke-opacity:1; 
stroke-linecap:round; stroke-linejoin:round;">
<path d="M26500 17000
L26500 17000
" />
<path d="M26500 18000
L26500 18000
" />
<path d="M26500 19000
L26500 19000
" />
<path d="M26500 20000
L26500 20000
" />
<path d="M26500 21000
L26500 21000
" />
<path d="M26500 22000
L26500 22000
" />
<path d="M26500 23000
L26500 23000
" />
<path d="M29500 23000
L29500 23000
" />
<path d="M29500 22000
L29500 22000
" />
<path d="M29500 21000
L29500 21000
" />
<path d="M29500 20000
L29500 20000
" />
<path d="M29500 19000
L29500 19000
" />
<path d="M29500 18000
L29500 18000
" />
<path d="M29500 17000
L29500 17000
" />
</g>
<g style="fill:#840000; fill-opacity:0.0; 
stroke:#840000; stroke-width:0; stroke-opacity:1; 
stroke-linecap:round; stroke-linejoin:round;">
</g>
<g style="fill:#840000; fill-opacity:1.0; 
stroke:#840000; stroke-width:0; stroke-opacity:1; 
stroke-linecap:round; stroke-linejoin:round;">
<polyline style="fill-rule:evenodd;"
points="44350,9340
44350,8660
45150,8660
45150,9340
44350,9340
" /> 
</g>
<g style="fill:#840000; fill-opacity:1.0; 
stroke:#840000; stroke-width:680; stroke-opacity:1; 
stroke-linecap:round; stroke-linejoin:round;">
</g>
<g style="fill:#840000; fill-opacity:0.0; 
stroke:#840000; stroke-width:680; stroke-opacity:1; 
stroke-linecap:round; stroke-linejoin:round;">
<path d="M44690 10000
L44810 10000
" />
<path d="M44690 11000
L44810 11000
" />
<path d="M44690 12000
L44810 12000
" />
<path d="M44690 13000
L44810 13000
" />
<path d="M44690 14000
L44810 14000
" />
</g>
<g style="fill:#840000; fill-opacity:0.0; 
stroke:#840000; stroke-width:0; stroke-opacity:1; 
stroke-linecap:round; stroke-linejoin:round;">
</g>
<g style="fill:#840000; fill-opacity:1.0; 
stroke:#840000; stroke-width:0; stroke-opacity:1; 
stroke-linecap:round; stroke-linejoin:round;">
<polyline style="fill-rule:evenodd;"
points="44350,32340
44350,31660
45150,31660
45150,32340
44350,32340
" /> 
</g>
<g style="fill:#840000; fill-opacity:1.0; 
stroke:#840000; stroke-width:680; stroke-opacity:1; 
stroke-linecap:round; stroke-linejoin:round;">
</g>
<g style="fill:#840000; fill-opacity:0.0; 
stroke:#840000; stroke-width:680; stroke-opacity:1; 
stroke-linecap:round; stroke-linejoin:round;">
<path d="M44690 33000
L44810 33000
" />
<path d="M44690 34000
L44810 34000
" />
<path d="M44690 35000
L44810 35000
" />
<path d="M44690 36000
L44810 36000
" />
<path d="M44690 37000
L44810 37000
" />
</g>
<g style="fill:#840000; fill-opacity:0.0; 
stroke:#840000; stroke-width:0; stroke-opacity:1; 
stroke-linecap:round; stroke-linejoin:round;">
</g>
<g style="fill:#840000; fill-opacity:1.0; 
stroke:#840000; stroke-width:0; stroke-opacity:1; 
stroke-linecap:round; stroke-linejoin:round;">
<polyline style="fill-rule:evenodd;"
points="44350,21340
44350,20660
45150,20660
45150,21340
44350,21340
" /> 
</g>
<g style="fill:#840000; fill-opacity:1.0; 
stroke:#840000; stroke-width:680; stroke-opacity:1; 
stroke-linecap:round; stroke-linejoin:round;">
</g>
<g style="fill:#840000; fill-opacity:0.0; 
stroke:#840000; stroke-width:680; stroke-opacity:1; 
stroke-linecap:round; stroke-linejoin:round;">
<path d="M44690 22000
L44810 22000
" />
<path d="M44690 23000
L44810 23000
" />
<path d="M44690 24000
L44810 24000
" />
<path d="M44690 25000
L44810 25000
" />
<path d="M44690 26000
L44810 26000
" />
</g>
<g style="fill:#840000; fill-opacity:0.0; 
stroke:#840000; stroke-width:0; stroke-opacity:1; 
stroke-linecap:round; stroke-linejoin:round;">
</g>
<g style="fill:#840000; fill-opacity:1.0; 
stroke:#840000; stroke-width:0; stroke-opacity:1; 
stroke-linecap:round; stroke-linejoin:round;">
<polyline style="fill-rule:evenodd;"
points="13900,22660
13900,23340
13100,23340
13100,22660
13900,22660
" /> 
</g>
<g style="fill:#840000; fill-opacity:1.0; 
stroke:#840000; stroke-width:680; stroke-opacity:1; 
stroke-linecap:round; stroke-linejoin:round;">
</g>
<g style="fill:#840000; fill-opacity:0.0; 
stroke:#840000; stroke-width:680; stroke-opacity:1; 
stroke-linecap:round; stroke-linejoin:round;">
<path d="M13560 22000
L13440 22000
" />
<path d="M13560 21000
L13440 21000
" />
<path d="M13560 20000
L13440 20000
" />
<path d="M13560 19000
L13440 19000
" />
<path d="M13560 18000
L13440 18000
" />
</g>
<g style="fill:#840000; fill-opacity:1.0; 
stroke:#840000; stroke-width:0; stroke-opacity:1; 
stroke-linecap:round; stroke-linejoin:round;">
<circle cx="37500" cy="14000" r="393.5" /> 
</g>
<g style="fill:#840000; fill-opacity:1.0; 
stroke:#840000; stroke-width:39.3701; stroke-opacity:1; 
stroke-linecap:round; stroke-linejoin:round;">
</g>
<g style="fill:#840000; fill-opacity:1.0; 
stroke:#840000; stroke-width:0; stroke-opacity:1; 
stroke-linecap:round; stroke-linejoin:round;">
<circle cx="37500" cy="17000" r="393.5" /> 
</g>
<g style="fill:#840000; fill-opacity:1.0; 
stroke:#840000; stroke-width:39.3701; stroke-opacity:1; 
stroke-linecap:round; stroke-linejoin:round;">
</g>
<g style="fill:#840000; fill-opacity:1.0; 
stroke:#840000; stroke-width:0; stroke-opacity:1; 
stroke-linecap:round; stroke-linejoin:round;">
<circle cx="36750" cy="19000" r="393.5" /> 
</g>
<g style="fill:#840000; fill-opacity:1.0; 
stroke:#840000; stroke-width:39.3701; stroke-opacity:1; 
stroke-linecap:round; stroke-linejoin:round;">
</g>
<g style="fill:#840000; fill-opacity:1.0; 
stroke:#840000; stroke-width:0; stroke-opacity:1; 
stroke-linecap:round; stroke-linejoin:round;">
<circle cx="39750" cy="19000" r="393.5" /> 
</g>
<g style="fill:#840000; fill-opacity:1.0; 
stroke:#840000; stroke-width:39.3701; stroke-opacity:1; 
stroke-linecap:round; stroke-linejoin:round;">
</g>
<g style="fill:#840000; fill-opacity:1.0; 
stroke:#840000; stroke-width:0; stroke-opacity:1; 
stroke-linecap:round; stroke-linejoin:round;">
<circle cx="39750" cy="21000" r="393.5" /> 
</g>
<g style="fill:#840000; fill-opacity:1.0; 
stroke:#840000; stroke-width:39.3701; stroke-opacity:1; 
stroke-linecap:round; stroke-linejoin:round;">
</g>
<g style="fill:#840000; fill-opacity:1.0; 
stroke:#840000; stroke-width:0; stroke-opacity:1; 
stroke-linecap:round; stroke-linejoin:round;">
<circle cx="36750" cy="21000" r="393.5" /> 
</g>
<g style="fill:#840000; fill-opacity:1.0; 
stroke:#840000; stroke-width:39.3701; stroke-opacity:1; 
stroke-linecap:round; stroke-linejoin:round;">
</g>
<g style="fill:#840000; fill-opacity:1.0; 
stroke:#840000; stroke-width:0; stroke-opacity:1; 
stroke-linecap:round; stroke-linejoin:round;">
<circle cx="39750" cy="23000" r="393.5" /> 
</g>
<g style="fill:#840000; fill-opacity:1.0; 
stroke:#840000; stroke-width:39.3701; stroke-opacity:1; 
stroke-linecap:round; stroke-linejoin:round;">
</g>
<g style="fill:#840000; fill-opacity:1.0; 
stroke:#840000; stroke-width:0; stroke-opacity:1; 
stroke-linecap:round; stroke-linejoin:round;">
<circle cx="36750" cy="23000" r="393.5" /> 
</g>
<g style="fill:#840000; fill-opacity:1.0; 
stroke:#840000; stroke-width:39.3701; stroke-opacity:1; 
stroke-linecap:round; stroke-linejoin:round;">
</g>
<g style="fill:#840000; fill-opacity:1.0; 
stroke:#840000; stroke-width:0; stroke-opacity:1; 
stroke-linecap:round; stroke-linejoin:round;">
<circle cx="19500" cy="16000" r="393.5" /> 
</g>
<g style="fill:#840000; fill-opacity:1.0; 
stroke:#840000; stroke-width:39.3701; stroke-opacity:1; 
stroke-linecap:round; stroke-linejoin:round;">
</g>
<g style="fill:#840000; fill-opacity:1.0; 
stroke:#840000; stroke-width:0; stroke-opacity:1; 
stroke-linecap:round; stroke-linejoin:round;">
<circle cx="22500" cy="16000" r="393.5" /> 
</g>
<g style="fill:#840000; fill-opacity:1.0; 
stroke:#840000; stroke-width:39.3701; stroke-opacity:1; 
stroke-linecap:round; stroke-linejoin:round;">
</g>
<g style="fill:#840000; fill-opacity:1.0; 
stroke:#840000; stroke-width:0; stroke-opacity:1; 
stroke-linecap:round; stroke-linejoin:round;">
<circle cx="19500" cy="18000" r="393.5" /> 
</g>
<g style="fill:#840000; fill-opacity:1.0; 
stroke:#840000; stroke-width:39.3701; stroke-opacity:1; 
stroke-linecap:round; stroke-linejoin:round;">
</g>
<g style="fill:#840000; fill-opacity:1.0; 
stroke:#840000; stroke-width:0; stroke-opacity:1; 
stroke-linecap:round; stroke-linejoin:round;">
<circle cx="22500" cy="18000" r="393.5" /> 
</g>
<g style="fill:#840000; fill-opacity:1.0; 
stroke:#840000; stroke-width:39.3701; stroke-opacity:1; 
stroke-linecap:round; stroke-linejoin:round;">
</g>
<g style="fill:#840000; fill-opacity:1.0; 
stroke:#840000; stroke-width:0; stroke-opacity:1; 
stroke-linecap:round; stroke-linejoin:round;">
<circle cx="19500" cy="22000" r="393.5" /> 
</g>
<g style="fill:#840000; fill-opacity:1.0; 
stroke:#840000; stroke-width:39.3701; stroke-opacity:1; 
stroke-linecap:round; stroke-linejoin:round;">
</g>
<g style="fill:#840000; fill-opacity:1.0; 
stroke:#840000; stroke-width:0; stroke-opacity:1; 
stroke-linecap:round; stroke-linejoin:round;">
<circle cx="22500" cy="22000" r="393.5" /> 
</g>
<g style="fill:#840000; fill-opacity:1.0; 
stroke:#840000; stroke-width:39.3701; stroke-opacity:1; 
stroke-linecap:round; stroke-linejoin:round;">
</g>
<g style="fill:#840000; fill-opacity:1.0; 
stroke:#840000; stroke-width:0; stroke-opacity:1; 
stroke-linecap:round; stroke-linejoin:round;">
<circle cx="19500" cy="20000" r="393.5" /> 
</g>
<g style="fill:#840000; fill-opacity:1.0; 
stroke:#840000; stroke-width:39.3701; stroke-opacity:1; 
stroke-linecap:round; stroke-linejoin:round;">
</g>
<g style="fill:#840000; fill-opacity:1.0; 
stroke:#840000; stroke-width:0; stroke-opacity:1; 
stroke-linecap:round; stroke-linejoin:round;">
<circle cx="22500" cy="20000" r="393.5" /> 
</g>
<g style="fill:#840000; fill-opacity:1.0; 
stroke:#840000; stroke-width:39.3701; stroke-opacity:1; 
stroke-linecap:round; stroke-linejoin:round;">
</g>
<g style="fill:#840000; fill-opacity:1.0; 
stroke:#840000; stroke-width:0; stroke-opacity:1; 
stroke-linecap:round; stroke-linejoin:round;">
<circle cx="20500" cy="29000" r="393.5" /> 
</g>
<g style="fill:#840000; fill-opacity:1.0; 
stroke:#840000; stroke-width:39.3701; stroke-opacity:1; 
stroke-linecap:round; stroke-linejoin:round;">
</g>
<g style="fill:#840000; fill-opacity:1.0; 
stroke:#840000; stroke-width:0; stroke-opacity:1; 
stroke-linecap:round; stroke-linejoin:round;">
<circle cx="23500" cy="29000" r="393.5" /> 
</g>
<g style="fill:#840000; fill-opacity:1.0; 
stroke:#840000; stroke-width:39.3701; stroke-opacity:1; 
stroke-linecap:round; stroke-linejoin:round;">
</g>
<g style="fill:#840000; fill-opacity:1.0; 
stroke:#840000; stroke-width:0; stroke-opacity:1; 
stroke-linecap:round; stroke-linejoin:round;">
<circle cx="20500" cy="31000" r="393.5" /> 
</g>
<g style="fill:#840000; fill-opacity:1.0; 
stroke:#840000; stroke-width:39.3701; stroke-opacity:1; 
stroke-linecap:round; stroke-linejoin:round;">
</g>
<g style="fill:#840000; fill-opacity:1.0; 
stroke:#840000; stroke-width:0; stroke-opacity:1; 
stroke-linecap:round; stroke-linejoin:round;">
<circle cx="23500" cy="31000" r="393.5" /> 
</g>
<g style="fill:#840000; fill-opacity:1.0; 
stroke:#840000; stroke-width:39.3701; stroke-opacity:1; 
stroke-linecap:round; stroke-linejoin:round;">
</g>
<g style="fill:#840000; fill-opacity:1.0; 
stroke:#840000; stroke-width:0; stroke-opacity:1; 
stroke-linecap:round; stroke-linejoin:round;">
<circle cx="20500" cy="33000" r="393.5" /> 
</g>
<g style="fill:#840000; fill-opacity:1.0; 
stroke:#840000; stroke-width:39.3701; stroke-opacity:1; 
stroke-linecap:round; stroke-linejoin:round;">
</g>
<g style="fill:#840000; fill-opacity:1.0; 
stroke:#840000; stroke-width:0; stroke-opacity:1; 
stroke-linecap:round; stroke-linejoin:round;">
<circle cx="23500" cy="33000" r="393.5" /> 
</g>
<g style="fill:#840000; fill-opacity:1.0; 
stroke:#840000; stroke-width:39.3701; stroke-opacity:1; 
stroke-linecap:round; stroke-linejoin:round;">
</g>
<g style="fill:#840000; fill-opacity:1.0; 
stroke:#840000; stroke-width:0; stroke-opacity:1; 
stroke-linecap:round; stroke-linejoin:round;">
<circle cx="20500" cy="34750" r="393.5" /> 
</g>
<g style="fill:#840000; fill-opacity:1.0; 
stroke:#840000; stroke-width:39.3701; stroke-opacity:1; 
stroke-linecap:round; stroke-linejoin:round;">
</g>
<g style="fill:#840000; fill-opacity:1.0; 
stroke:#840000; stroke-width:0; stroke-opacity:1; 
stroke-linecap:round; stroke-linejoin:round;">
<circle cx="23500" cy="34750" r="393.5" /> 
</g>
<g style="fill:#840000; fill-opacity:1.0; 
stroke:#840000; stroke-width:39.3701; stroke-opacity:1; 
stroke-linecap:round; stroke-linejoin:round;">
</g>
<g style="fill:#840000; fill-opacity:1.0; 
stroke:#840000; stroke-width:629.921; stroke-opacity:1; 
stroke-linecap:round; stroke-linejoin:round;">
</g>
<g style="fill:#840000; fill-opacity:0.0; 
stroke:#840000; stroke-width:629.921; stroke-opacity:1; 
stroke-linecap:round; stroke-linejoin:round;">
<path d="M26500 28000
L26500 28000
" />
<path d="M26500 29000
L26500 29000
" />
<path d="M26500 30000
L26500 30000
" />
<path d="M26500 31000
L26500 31000
" />
<path d="M26500 32000
L26500 32000
" />
<path d="M26500 33000
L26500 33000
" />
<path d="M26500 34000
L26500 34000
" />
<path d="M29500 34000
L29500 34000
" />
<path d="M29500 33000
L29500 33000
" />
<path d="M29500 32000
L29500 32000
" />
<path d="M29500 31000
L29500 31000
" />
<path d="M29500 30000
L29500 30000
" />
<path d="M29500 29000
L29500 29000
" />
<path d="M29500 28000
L29500 28000
" />
</g>
<g style="fill:#840000; fill-opacity:0.0; 
stroke:#840000; stroke-width:0; stroke-opacity:1; 
stroke-linecap:round; stroke-linejoin:round;">
</g>
<g style="fill:#840000; fill-opacity:1.0; 
stroke:#840000; stroke-width:0; stroke-opacity:1; 
stroke-linecap:round; stroke-linejoin:round;">
<polyline style="fill-rule:evenodd;"
points="33850,16340
33850,15660
34650,15660
34650,16340
33850,16340
" /> 
</g>
<g style="fill:#840000; fill-opacity:1.0; 
stroke:#840000; stroke-width:680; stroke-opacity:1; 
stroke-linecap:round; stroke-linejoin:round;">
</g>
<g style="fill:#840000; fill-opacity:0.0; 
stroke:#840000; stroke-width:680; stroke-opacity:1; 
stroke-linecap:round; stroke-linejoin:round;">
<path d="M34190 17000
L34310 17000
" />
<path d="M34190 18000
L34310 18000
" />
<path d="M34190 19000
L34310 19000
" />
</g>
<g style="fill:#840000; fill-opacity:0.0; 
stroke:#840000; stroke-width:0; stroke-opacity:1; 
stroke-linecap:round; stroke-linejoin:round;">
</g>
<g style="fill:#840000; fill-opacity:1.0; 
stroke:#840000; stroke-width:0; stroke-opacity:1; 
stroke-linecap:round; stroke-linejoin:round;">
<polyline style="fill-rule:evenodd;"
points="33850,22340
33850,21660
34650,21660
34650,22340
33850,22340
" /> 
</g>
<g style="fill:#840000; fill-opacity:1.0; 
stroke:#840000; stroke-width:680; stroke-opacity:1; 
stroke-linecap:round; stroke-linejoin:round;">
</g>
<g style="fill:#840000; fill-opacity:0.0; 
stroke:#840000; stroke-width:680; stroke-opacity:1; 
stroke-linecap:round; stroke-linejoin:round;">
<path d="M34190 23000
L34310 23000
" />
<path d="M34190 24000
L34310 24000
" />
<path d="M34190 25000
L34310 25000
" />
</g>
<g style="fill:#840000; fill-opacity:1.0; 
stroke:#840000; stroke-width:0; stroke-opacity:1; 
stroke-linecap:round; stroke-linejoin:round;">
<circle cx="42750" cy="26000" r="590.5" /> 
</g>
<g style="fill:#840000; fill-opacity:1.0; 
stroke:#840000; stroke-width:39.3701; stroke-opacity:1; 
stroke-linecap:round; stroke-linejoin:round;">
</g>
<g style="fill:#840000; fill-opacity:1.0; 
stroke:#840000; stroke-width:0; stroke-opacity:1; 
stroke-linecap:round; stroke-linejoin:round;">
<circle cx="30250" cy="14000" r="590.5" /> 
</g>
<g style="fill:#840000; fill-opacity:1.0; 
stroke:#840000; stroke-width:39.3701; stroke-opacity:1; 
stroke-linecap:round; stroke-linejoin:round;">
</g>
<g style="fill:#840000; fill-opacity:1.0; 
stroke:#840000; stroke-width:0; stroke-opacity:1; 
stroke-linecap:round; stroke-linejoin:round;">
<circle cx="31750" cy="31500" r="590.5" /> 
</g>
<g style="fill:#840000; fill-opacity:1.0; 
stroke:#840000; stroke-width:39.3701; stroke-opacity:1; 
stroke-linecap:round; stroke-linejoin:round;">
</g> 
</svg>
