<?xml version="1.0" standalone="no"?>
 <!DOCTYPE svg PUBLIC "-//W3C//DTD SVG 1.1//EN" 
 "http://www.w3.org/Graphics/SVG/1.1/DTD/svg11.dtd"> 
<svg xmlns="http://www.w3.org/2000/svg" version="1.1" 
    width="15.0012cm" height="15.0012cm" viewBox="0 0 59060 59060 ">
<title>SVG Picture created as circuit-F.Fab.svg date 2016/06/10 22:46:16 </title>
  <desc>Picture generated by PCBNEW </desc>
<g style="fill:#000000; fill-opacity:1;stroke:#000000; stroke-opacity:1;
stroke-linecap:round; stroke-linejoin:round; "
 transform="translate(0 0) scale(1 1)">
</g>
<g style="fill:#000000; fill-opacity:0.0; 
stroke:#000000; stroke-width:-0.000393701; stroke-opacity:1; 
stroke-linecap:round; stroke-linejoin:round;">
</g>
<g style="fill:#000000; fill-opacity:0.0; 
stroke:#000000; stroke-width:39.3701; stroke-opacity:1; 
stroke-linecap:round; stroke-linejoin:round;">
</g>
<g style="fill:#000000; fill-opacity:0.0; 
stroke:#000000; stroke-width:59.0551; stroke-opacity:1; 
stroke-linecap:round; stroke-linejoin:round;">
<rect x="11815.9" y="41737.2" width="42519.7" height="12598.4" rx="0" />
</g>
<g style="fill:#000000; fill-opacity:0.0; 
stroke:#000000; stroke-width:39.3701; stroke-opacity:1; 
stroke-linecap:round; stroke-linejoin:round;">
</g>
<g style="fill:#000000; fill-opacity:0.0; 
stroke:#000000; stroke-width:59.0551; stroke-opacity:1; 
stroke-linecap:round; stroke-linejoin:round;">
<rect x="3937.01" y="3937.01" width="51186" height="51186" rx="0" />
</g>
<g style="fill:#000000; fill-opacity:0.0; 
stroke:#000000; stroke-width:39.3701; stroke-opacity:1; 
stroke-linecap:round; stroke-linejoin:round;">
</g>
<g style="fill:#000000; fill-opacity:0.0; 
stroke:#000000; stroke-width:59.0551; stroke-opacity:1; 
stroke-linecap:round; stroke-linejoin:round;">
<rect x="4724.41" y="4724.41" width="49611.2" height="49611.2" rx="0" />
</g>
<g style="fill:#000000; fill-opacity:0.0; 
stroke:#000000; stroke-width:39.3701; stroke-opacity:1; 
stroke-linecap:round; stroke-linejoin:round;">
</g>
<g style="fill:#000000; fill-opacity:0.0; 
stroke:#000000; stroke-width:59.0551; stroke-opacity:1; 
stroke-linecap:round; stroke-linejoin:round;">
<path d="M23622 4724
L23622 3937
" />
</g>
<g style="fill:#000000; fill-opacity:0.0; 
stroke:#000000; stroke-width:39.3701; stroke-opacity:1; 
stroke-linecap:round; stroke-linejoin:round;">
</g>
<g style="fill:#000000; fill-opacity:0.0; 
stroke:#000000; stroke-width:59.0551; stroke-opacity:1; 
stroke-linecap:round; stroke-linejoin:round;">
<path d="M43307 4724
L43307 3937
" />
</g>
<g style="fill:#000000; fill-opacity:0.0; 
stroke:#000000; stroke-width:39.3701; stroke-opacity:1; 
stroke-linecap:round; stroke-linejoin:round;">
</g>
<g style="fill:#000000; fill-opacity:0.0; 
stroke:#000000; stroke-width:59.0551; stroke-opacity:1; 
stroke-linecap:round; stroke-linejoin:round;">
<path d="M14169 4562
L13877 4562
" />
<path d="M14023 4562
L14023 4050
L13974 4123
L13925 4172
L13877 4196
" />
</g>
<g style="fill:#000000; fill-opacity:0.0; 
stroke:#000000; stroke-width:39.3701; stroke-opacity:1; 
stroke-linecap:round; stroke-linejoin:round;">
</g>
<g style="fill:#000000; fill-opacity:0.0; 
stroke:#000000; stroke-width:59.0551; stroke-opacity:1; 
stroke-linecap:round; stroke-linejoin:round;">
<path d="M33562 4099
L33586 4074
L33635 4050
L33757 4050
L33805 4074
L33830 4099
L33854 4147
L33854 4196
L33830 4269
L33537 4562
L33854 4562
" />
</g>
<g style="fill:#000000; fill-opacity:0.0; 
stroke:#000000; stroke-width:39.3701; stroke-opacity:1; 
stroke-linecap:round; stroke-linejoin:round;">
</g>
<g style="fill:#000000; fill-opacity:0.0; 
stroke:#000000; stroke-width:59.0551; stroke-opacity:1; 
stroke-linecap:round; stroke-linejoin:round;">
<path d="M53222 4050
L53539 4050
L53368 4245
L53442 4245
L53490 4269
L53515 4294
L53539 4342
L53539 4464
L53515 4513
L53490 4537
L53442 4562
L53295 4562
L53247 4537
L53222 4513
" />
</g>
<g style="fill:#000000; fill-opacity:0.0; 
stroke:#000000; stroke-width:39.3701; stroke-opacity:1; 
stroke-linecap:round; stroke-linejoin:round;">
</g>
<g style="fill:#000000; fill-opacity:0.0; 
stroke:#000000; stroke-width:59.0551; stroke-opacity:1; 
stroke-linecap:round; stroke-linejoin:round;">
<path d="M23622 54335
L23622 55122
" />
</g>
<g style="fill:#000000; fill-opacity:0.0; 
stroke:#000000; stroke-width:39.3701; stroke-opacity:1; 
stroke-linecap:round; stroke-linejoin:round;">
</g>
<g style="fill:#000000; fill-opacity:0.0; 
stroke:#000000; stroke-width:59.0551; stroke-opacity:1; 
stroke-linecap:round; stroke-linejoin:round;">
<path d="M43307 54335
L43307 55122
" />
</g>
<g style="fill:#000000; fill-opacity:0.0; 
stroke:#000000; stroke-width:39.3701; stroke-opacity:1; 
stroke-linecap:round; stroke-linejoin:round;">
</g>
<g style="fill:#000000; fill-opacity:0.0; 
stroke:#000000; stroke-width:59.0551; stroke-opacity:1; 
stroke-linecap:round; stroke-linejoin:round;">
<path d="M14169 54960
L13877 54960
" />
<path d="M14023 54960
L14023 54449
L13974 54522
L13925 54570
L13877 54595
" />
</g>
<g style="fill:#000000; fill-opacity:0.0; 
stroke:#000000; stroke-width:39.3701; stroke-opacity:1; 
stroke-linecap:round; stroke-linejoin:round;">
</g>
<g style="fill:#000000; fill-opacity:0.0; 
stroke:#000000; stroke-width:59.0551; stroke-opacity:1; 
stroke-linecap:round; stroke-linejoin:round;">
<path d="M33562 54497
L33586 54473
L33635 54449
L33757 54449
L33805 54473
L33830 54497
L33854 54546
L33854 54595
L33830 54668
L33537 54960
L33854 54960
" />
</g>
<g style="fill:#000000; fill-opacity:0.0; 
stroke:#000000; stroke-width:39.3701; stroke-opacity:1; 
stroke-linecap:round; stroke-linejoin:round;">
</g>
<g style="fill:#000000; fill-opacity:0.0; 
stroke:#000000; stroke-width:59.0551; stroke-opacity:1; 
stroke-linecap:round; stroke-linejoin:round;">
<path d="M53222 54449
L53539 54449
L53368 54643
L53442 54643
L53490 54668
L53515 54692
L53539 54741
L53539 54863
L53515 54912
L53490 54936
L53442 54960
L53295 54960
L53247 54936
L53222 54912
" />
</g>
<g style="fill:#000000; fill-opacity:0.0; 
stroke:#000000; stroke-width:39.3701; stroke-opacity:1; 
stroke-linecap:round; stroke-linejoin:round;">
</g>
<g style="fill:#000000; fill-opacity:0.0; 
stroke:#000000; stroke-width:59.0551; stroke-opacity:1; 
stroke-linecap:round; stroke-linejoin:round;">
<path d="M3937 23622
L4724 23622
" />
</g>
<g style="fill:#000000; fill-opacity:0.0; 
stroke:#000000; stroke-width:39.3701; stroke-opacity:1; 
stroke-linecap:round; stroke-linejoin:round;">
</g>
<g style="fill:#000000; fill-opacity:0.0; 
stroke:#000000; stroke-width:59.0551; stroke-opacity:1; 
stroke-linecap:round; stroke-linejoin:round;">
<path d="M3937 43307
L4724 43307
" />
</g>
<g style="fill:#000000; fill-opacity:0.0; 
stroke:#000000; stroke-width:39.3701; stroke-opacity:1; 
stroke-linecap:round; stroke-linejoin:round;">
</g>
<g style="fill:#000000; fill-opacity:0.0; 
stroke:#000000; stroke-width:59.0551; stroke-opacity:1; 
stroke-linecap:round; stroke-linejoin:round;">
<path d="M4208 13864
L4452 13864
" />
<path d="M4160 14011
L4330 13499
L4501 14011
" />
</g>
<g style="fill:#000000; fill-opacity:0.0; 
stroke:#000000; stroke-width:39.3701; stroke-opacity:1; 
stroke-linecap:round; stroke-linejoin:round;">
</g>
<g style="fill:#000000; fill-opacity:0.0; 
stroke:#000000; stroke-width:59.0551; stroke-opacity:1; 
stroke-linecap:round; stroke-linejoin:round;">
<path d="M4367 33428
L4440 33452
L4464 33476
L4489 33525
L4489 33598
L4464 33647
L4440 33671
L4391 33696
L4196 33696
L4196 33184
L4367 33184
L4416 33208
L4440 33233
L4464 33281
L4464 33330
L4440 33379
L4416 33403
L4367 33428
L4196 33428
" />
</g>
<g style="fill:#000000; fill-opacity:0.0; 
stroke:#000000; stroke-width:39.3701; stroke-opacity:1; 
stroke-linecap:round; stroke-linejoin:round;">
</g>
<g style="fill:#000000; fill-opacity:0.0; 
stroke:#000000; stroke-width:59.0551; stroke-opacity:1; 
stroke-linecap:round; stroke-linejoin:round;">
<path d="M4489 53332
L4464 53356
L4391 53381
L4342 53381
L4269 53356
L4221 53308
L4196 53259
L4172 53161
L4172 53088
L4196 52991
L4221 52942
L4269 52893
L4342 52869
L4391 52869
L4464 52893
L4489 52918
" />
</g>
<g style="fill:#000000; fill-opacity:0.0; 
stroke:#000000; stroke-width:39.3701; stroke-opacity:1; 
stroke-linecap:round; stroke-linejoin:round;">
</g>
<g style="fill:#000000; fill-opacity:0.0; 
stroke:#000000; stroke-width:59.0551; stroke-opacity:1; 
stroke-linecap:round; stroke-linejoin:round;">
<path d="M55122 23622
L54335 23622
" />
</g>
<g style="fill:#000000; fill-opacity:0.0; 
stroke:#000000; stroke-width:39.3701; stroke-opacity:1; 
stroke-linecap:round; stroke-linejoin:round;">
</g>
<g style="fill:#000000; fill-opacity:0.0; 
stroke:#000000; stroke-width:59.0551; stroke-opacity:1; 
stroke-linecap:round; stroke-linejoin:round;">
<path d="M55122 43307
L54335 43307
" />
</g>
<g style="fill:#000000; fill-opacity:0.0; 
stroke:#000000; stroke-width:39.3701; stroke-opacity:1; 
stroke-linecap:round; stroke-linejoin:round;">
</g>
<g style="fill:#000000; fill-opacity:0.0; 
stroke:#000000; stroke-width:59.0551; stroke-opacity:1; 
stroke-linecap:round; stroke-linejoin:round;">
<path d="M54607 13864
L54851 13864
" />
<path d="M54558 14011
L54729 13499
L54899 14011
" />
</g>
<g style="fill:#000000; fill-opacity:0.0; 
stroke:#000000; stroke-width:39.3701; stroke-opacity:1; 
stroke-linecap:round; stroke-linejoin:round;">
</g>
<g style="fill:#000000; fill-opacity:0.0; 
stroke:#000000; stroke-width:59.0551; stroke-opacity:1; 
stroke-linecap:round; stroke-linejoin:round;">
<path d="M54765 33428
L54838 33452
L54863 33476
L54887 33525
L54887 33598
L54863 33647
L54838 33671
L54790 33696
L54595 33696
L54595 33184
L54765 33184
L54814 33208
L54838 33233
L54863 33281
L54863 33330
L54838 33379
L54814 33403
L54765 33428
L54595 33428
" />
</g>
<g style="fill:#000000; fill-opacity:0.0; 
stroke:#000000; stroke-width:39.3701; stroke-opacity:1; 
stroke-linecap:round; stroke-linejoin:round;">
</g>
<g style="fill:#000000; fill-opacity:0.0; 
stroke:#000000; stroke-width:59.0551; stroke-opacity:1; 
stroke-linecap:round; stroke-linejoin:round;">
<path d="M54887 53332
L54863 53356
L54790 53381
L54741 53381
L54668 53356
L54619 53308
L54595 53259
L54570 53161
L54570 53088
L54595 52991
L54619 52942
L54668 52893
L54741 52869
L54790 52869
L54863 52893
L54887 52918
" />
</g>
<g style="fill:#000000; fill-opacity:0.0; 
stroke:#000000; stroke-width:39.3701; stroke-opacity:1; 
stroke-linecap:round; stroke-linejoin:round;">
</g>
<g style="fill:#000000; fill-opacity:0.0; 
stroke:#000000; stroke-width:59.0551; stroke-opacity:1; 
stroke-linecap:round; stroke-linejoin:round;">
<path d="M21011 52673
L21011 52083
L21152 52083
L21236 52111
L21292 52167
L21320 52223
L21349 52336
L21349 52420
L21320 52533
L21292 52589
L21236 52645
L21152 52673
L21011 52673
" />
<path d="M21855 52673
L21855 52364
L21827 52308
L21770 52279
L21658 52279
L21602 52308
" />
<path d="M21855 52645
L21799 52673
L21658 52673
L21602 52645
L21574 52589
L21574 52533
L21602 52476
L21658 52448
L21799 52448
L21855 52420
" />
<path d="M22052 52279
L22277 52279
" />
<path d="M22136 52083
L22136 52589
L22164 52645
L22220 52673
L22277 52673
" />
<path d="M22698 52645
L22642 52673
L22530 52673
L22473 52645
L22445 52589
L22445 52364
L22473 52308
L22530 52279
L22642 52279
L22698 52308
L22727 52364
L22727 52420
L22445 52476
" />
<path d="M22980 52617
L23008 52645
L22980 52673
L22952 52645
L22980 52617
L22980 52673
" />
<path d="M22980 52308
L23008 52336
L22980 52364
L22952 52336
L22980 52308
L22980 52364
" />
<path d="M23683 52139
L23711 52111
L23767 52083
L23908 52083
L23964 52111
L23992 52139
L24020 52195
L24020 52251
L23992 52336
L23655 52673
L24020 52673
" />
<path d="M24386 52083
L24442 52083
L24498 52111
L24526 52139
L24554 52195
L24583 52308
L24583 52448
L24554 52561
L24526 52617
L24498 52645
L24442 52673
L24386 52673
L24329 52645
L24301 52617
L24273 52561
L24245 52448
L24245 52308
L24273 52195
L24301 52139
L24329 52111
L24386 52083
" />
<path d="M25145 52673
L24808 52673
" />
<path d="M24976 52673
L24976 52083
L24920 52167
L24864 52223
L24808 52251
" />
<path d="M25651 52083
L25539 52083
L25482 52111
L25454 52139
L25398 52223
L25370 52336
L25370 52561
L25398 52617
L25426 52645
L25482 52673
L25595 52673
L25651 52645
L25679 52617
L25707 52561
L25707 52420
L25679 52364
L25651 52336
L25595 52308
L25482 52308
L25426 52336
L25398 52364
L25370 52420
" />
<path d="M25961 52448
L26410 52448
" />
<path d="M26804 52083
L26860 52083
L26917 52111
L26945 52139
L26973 52195
L27001 52308
L27001 52448
L26973 52561
L26945 52617
L26917 52645
L26860 52673
L26804 52673
L26748 52645
L26720 52617
L26692 52561
L26664 52448
L26664 52308
L26692 52195
L26720 52139
L26748 52111
L26804 52083
" />
<path d="M27507 52083
L27395 52083
L27338 52111
L27310 52139
L27254 52223
L27226 52336
L27226 52561
L27254 52617
L27282 52645
L27338 52673
L27451 52673
L27507 52645
L27535 52617
L27563 52561
L27563 52420
L27535 52364
L27507 52336
L27451 52308
L27338 52308
L27282 52336
L27254 52364
L27226 52420
" />
<path d="M27817 52448
L28266 52448
" />
<path d="M28857 52673
L28520 52673
" />
<path d="M28688 52673
L28688 52083
L28632 52167
L28576 52223
L28520 52251
" />
<path d="M29223 52083
L29279 52083
L29335 52111
L29363 52139
L29391 52195
L29419 52308
L29419 52448
L29391 52561
L29363 52617
L29335 52645
L29279 52673
L29223 52673
L29166 52645
L29138 52617
L29110 52561
L29082 52448
L29082 52308
L29110 52195
L29138 52139
L29166 52111
L29223 52083
" />
</g>
<g style="fill:#000000; fill-opacity:0.0; 
stroke:#000000; stroke-width:39.3701; stroke-opacity:1; 
stroke-linecap:round; stroke-linejoin:round;">
</g>
<g style="fill:#000000; fill-opacity:0.0; 
stroke:#000000; stroke-width:59.0551; stroke-opacity:1; 
stroke-linecap:round; stroke-linejoin:round;">
<path d="M11815 52957
L54335 52957
" />
</g>
<g style="fill:#000000; fill-opacity:0.0; 
stroke:#000000; stroke-width:39.3701; stroke-opacity:1; 
stroke-linecap:round; stroke-linejoin:round;">
</g>
<g style="fill:#000000; fill-opacity:0.0; 
stroke:#000000; stroke-width:59.0551; stroke-opacity:1; 
stroke-linecap:round; stroke-linejoin:round;">
<path d="M12350 53775
L12350 53185
" />
<path d="M12687 53775
L12434 53438
" />
<path d="M12687 53185
L12350 53522
" />
<path d="M12940 53775
L12940 53382
" />
<path d="M12940 53185
L12912 53213
L12940 53241
L12968 53213
L12940 53185
L12940 53241
" />
<path d="M13559 53719
L13531 53747
L13446 53775
L13390 53775
L13306 53747
L13250 53691
L13221 53635
L13193 53522
L13193 53438
L13221 53326
L13250 53269
L13306 53213
L13390 53185
L13446 53185
L13531 53213
L13559 53241
" />
<path d="M14065 53775
L14065 53466
L14037 53410
L13981 53382
L13868 53382
L13812 53410
" />
<path d="M14065 53747
L14009 53775
L13868 53775
L13812 53747
L13784 53691
L13784 53635
L13812 53579
L13868 53551
L14009 53551
L14065 53522
" />
<path d="M14599 53775
L14599 53185
" />
<path d="M14599 53747
L14543 53775
L14431 53775
L14374 53747
L14346 53719
L14318 53663
L14318 53494
L14346 53438
L14374 53410
L14431 53382
L14543 53382
L14599 53410
" />
<path d="M15331 53466
L15527 53466
" />
<path d="M15612 53775
L15331 53775
L15331 53185
L15612 53185
" />
<path d="M15865 53719
L15893 53747
L15865 53775
L15837 53747
L15865 53719
L15865 53775
" />
<path d="M16146 53775
L16146 53185
L16287 53185
L16371 53213
L16427 53269
L16455 53326
L16484 53438
L16484 53522
L16455 53635
L16427 53691
L16371 53747
L16287 53775
L16146 53775
" />
<path d="M16737 53719
L16765 53747
L16737 53775
L16709 53747
L16737 53719
L16737 53775
" />
<path d="M16990 53607
L17271 53607
" />
<path d="M16934 53775
L17130 53185
L17327 53775
" />
<path d="M17524 53719
L17552 53747
L17524 53775
L17496 53747
L17524 53719
L17524 53775
" />
<path d="M18705 53775
L18705 53185
" />
<path d="M18761 53551
L18930 53775
" />
<path d="M18930 53382
L18705 53607
" />
<path d="M19183 53775
L19183 53382
" />
<path d="M19183 53185
L19155 53213
L19183 53241
L19211 53213
L19183 53185
L19183 53241
" />
<path d="M19718 53747
L19661 53775
L19549 53775
L19493 53747
L19464 53719
L19436 53663
L19436 53494
L19464 53438
L19493 53410
L19549 53382
L19661 53382
L19718 53410
" />
<path d="M20224 53775
L20224 53466
L20196 53410
L20139 53382
L20027 53382
L19971 53410
" />
<path d="M20224 53747
L20167 53775
L20027 53775
L19971 53747
L19943 53691
L19943 53635
L19971 53579
L20027 53551
L20167 53551
L20224 53522
" />
<path d="M20758 53775
L20758 53185
" />
<path d="M20758 53747
L20702 53775
L20589 53775
L20533 53747
L20505 53719
L20477 53663
L20477 53494
L20505 53438
L20533 53410
L20589 53382
L20702 53382
L20758 53410
" />
<path d="M21742 53382
L21742 53775
" />
<path d="M21602 53157
L21461 53579
L21827 53579
" />
<path d="M22052 53719
L22080 53747
L22052 53775
L22024 53747
L22052 53719
L22052 53775
" />
<path d="M22445 53185
L22502 53185
L22558 53213
L22586 53241
L22614 53297
L22642 53410
L22642 53551
L22614 53663
L22586 53719
L22558 53747
L22502 53775
L22445 53775
L22389 53747
L22361 53719
L22333 53663
L22305 53551
L22305 53410
L22333 53297
L22361 53241
L22389 53213
L22445 53185
" />
<path d="M22895 53719
L22923 53747
L22895 53775
L22867 53747
L22895 53719
L22895 53775
" />
<path d="M23148 53241
L23176 53213
L23233 53185
L23373 53185
L23430 53213
L23458 53241
L23486 53297
L23486 53354
L23458 53438
L23120 53775
L23486 53775
" />
<path d="M23739 53551
L24189 53551
" />
<path d="M23964 53775
L23964 53326
" />
<path d="M24723 53775
L24723 53185
" />
<path d="M24723 53747
L24667 53775
L24554 53775
L24498 53747
L24470 53719
L24442 53663
L24442 53494
L24470 53438
L24498 53410
L24554 53382
L24667 53382
L24723 53410
" />
<path d="M24920 53382
L25145 53382
" />
<path d="M25004 53775
L25004 53269
L25033 53213
L25089 53185
L25145 53185
" />
<path d="M25314 53747
L25370 53775
L25482 53775
L25539 53747
L25567 53691
L25567 53663
L25539 53607
L25482 53579
L25398 53579
L25342 53551
L25314 53494
L25314 53466
L25342 53410
L25398 53382
L25482 53382
L25539 53410
" />
<path d="M26073 53382
L26073 53860
L26045 53916
L26017 53944
L25961 53972
L25876 53972
L25820 53944
" />
<path d="M26073 53747
L26017 53775
L25904 53775
L25848 53747
L25820 53719
L25792 53663
L25792 53494
L25820 53438
L25848 53410
L25904 53382
L26017 53382
L26073 53410
" />
<path d="M26664 53775
L26326 53775
" />
<path d="M26495 53775
L26495 53185
L26439 53269
L26382 53326
L26326 53354
" />
<path d="M26917 53551
L27367 53551
" />
<path d="M27620 53747
L27676 53775
L27788 53775
L27845 53747
L27873 53691
L27873 53663
L27845 53607
L27788 53579
L27704 53579
L27648 53551
L27620 53494
L27620 53466
L27648 53410
L27704 53382
L27788 53382
L27845 53410
" />
<path d="M28042 53382
L28266 53382
" />
<path d="M28126 53185
L28126 53691
L28154 53747
L28210 53775
L28266 53775
" />
<path d="M28716 53775
L28716 53466
L28688 53410
L28632 53382
L28520 53382
L28463 53410
" />
<path d="M28716 53747
L28660 53775
L28520 53775
L28463 53747
L28435 53691
L28435 53635
L28463 53579
L28520 53551
L28660 53551
L28716 53522
" />
<path d="M28998 53775
L28998 53185
" />
<path d="M28998 53410
L29054 53382
L29166 53382
L29223 53410
L29251 53438
L29279 53494
L29279 53663
L29251 53719
L29223 53747
L29166 53775
L29054 53775
L28998 53747
" />
<path d="M29616 53775
L29560 53747
L29532 53691
L29532 53185
" />
<path d="M30066 53747
L30010 53775
L29898 53775
L29841 53747
L29813 53691
L29813 53466
L29841 53410
L29898 53382
L30010 53382
L30066 53410
L30094 53466
L30094 53522
L29813 53579
" />
</g>
<g style="fill:#000000; fill-opacity:0.0; 
stroke:#000000; stroke-width:39.3701; stroke-opacity:1; 
stroke-linecap:round; stroke-linejoin:round;">
</g>
<g style="fill:#000000; fill-opacity:0.0; 
stroke:#000000; stroke-width:59.0551; stroke-opacity:1; 
stroke-linecap:round; stroke-linejoin:round;">
<path d="M11815 51776
L54335 51776
" />
</g>
<g style="fill:#000000; fill-opacity:0.0; 
stroke:#000000; stroke-width:39.3701; stroke-opacity:1; 
stroke-linecap:round; stroke-linejoin:round;">
</g>
<g style="fill:#000000; fill-opacity:0.0; 
stroke:#000000; stroke-width:118.11; stroke-opacity:1; 
stroke-linecap:round; stroke-linejoin:round;">
<path d="M46152 52673
L45955 52392
" />
<path d="M45814 52673
L45814 52083
L46039 52083
L46095 52111
L46124 52139
L46152 52195
L46152 52279
L46124 52336
L46095 52364
L46039 52392
L45814 52392
" />
<path d="M46630 52645
L46574 52673
L46461 52673
L46405 52645
L46377 52589
L46377 52364
L46405 52308
L46461 52279
L46574 52279
L46630 52308
L46658 52364
L46658 52420
L46377 52476
" />
<path d="M46855 52279
L46995 52673
L47136 52279
" />
<path d="M47361 52617
L47389 52645
L47361 52673
L47333 52645
L47361 52617
L47361 52673
" />
<path d="M47361 52308
L47389 52336
L47361 52364
L47333 52336
L47361 52308
L47361 52364
" />
<path d="M48401 52673
L48064 52673
" />
<path d="M48233 52673
L48233 52083
L48176 52167
L48120 52223
L48064 52251
" />
<path d="M48655 52617
L48683 52645
L48655 52673
L48626 52645
L48655 52617
L48655 52673
" />
<path d="M49048 52083
L49104 52083
L49161 52111
L49189 52139
L49217 52195
L49245 52308
L49245 52448
L49217 52561
L49189 52617
L49161 52645
L49104 52673
L49048 52673
L48992 52645
L48964 52617
L48936 52561
L48908 52448
L48908 52308
L48936 52195
L48964 52139
L48992 52111
L49048 52083
" />
</g>
<g style="fill:#000000; fill-opacity:0.0; 
stroke:#000000; stroke-width:39.3701; stroke-opacity:1; 
stroke-linecap:round; stroke-linejoin:round;">
</g>
<g style="fill:#000000; fill-opacity:0.0; 
stroke:#000000; stroke-width:59.0551; stroke-opacity:1; 
stroke-linecap:round; stroke-linejoin:round;">
<path d="M12322 52645
L12406 52673
L12547 52673
L12603 52645
L12631 52617
L12659 52561
L12659 52504
L12631 52448
L12603 52420
L12547 52392
L12434 52364
L12378 52336
L12350 52308
L12322 52251
L12322 52195
L12350 52139
L12378 52111
L12434 52083
L12575 52083
L12659 52111
" />
<path d="M12912 52673
L12912 52279
" />
<path d="M12912 52083
L12884 52111
L12912 52139
L12940 52111
L12912 52083
L12912 52139
" />
<path d="M13137 52279
L13446 52279
L13137 52673
L13446 52673
" />
<path d="M13896 52645
L13840 52673
L13728 52673
L13671 52645
L13643 52589
L13643 52364
L13671 52308
L13728 52279
L13840 52279
L13896 52308
L13925 52364
L13925 52420
L13643 52476
" />
<path d="M14178 52617
L14206 52645
L14178 52673
L14149 52645
L14178 52617
L14178 52673
" />
<path d="M14178 52308
L14206 52336
L14178 52364
L14149 52336
L14178 52308
L14178 52364
" />
<path d="M14909 52083
L14909 52561
L14937 52617
L14965 52645
L15021 52673
L15134 52673
L15190 52645
L15218 52617
L15246 52561
L15246 52083
" />
<path d="M15499 52645
L15556 52673
L15668 52673
L15724 52645
L15752 52589
L15752 52561
L15724 52504
L15668 52476
L15584 52476
L15527 52448
L15499 52392
L15499 52364
L15527 52308
L15584 52279
L15668 52279
L15724 52308
" />
<path d="M16230 52645
L16174 52673
L16062 52673
L16006 52645
L15977 52589
L15977 52364
L16006 52308
L16062 52279
L16174 52279
L16230 52308
L16259 52364
L16259 52420
L15977 52476
" />
<path d="M16512 52673
L16512 52279
" />
<path d="M16512 52392
L16540 52336
L16568 52308
L16624 52279
L16680 52279
" />
</g>
<g style="fill:#000000; fill-opacity:0.0; 
stroke:#000000; stroke-width:39.3701; stroke-opacity:1; 
stroke-linecap:round; stroke-linejoin:round;">
</g>
<g style="fill:#000000; fill-opacity:0.0; 
stroke:#000000; stroke-width:59.0551; stroke-opacity:1; 
stroke-linecap:round; stroke-linejoin:round;">
<path d="M45814 53775
L45814 53185
" />
<path d="M46349 53775
L46349 53185
" />
<path d="M46349 53747
L46292 53775
L46180 53775
L46124 53747
L46095 53719
L46067 53663
L46067 53494
L46095 53438
L46124 53410
L46180 53382
L46292 53382
L46349 53410
" />
<path d="M46630 53719
L46658 53747
L46630 53775
L46602 53747
L46630 53719
L46630 53775
" />
<path d="M46630 53410
L46658 53438
L46630 53466
L46602 53438
L46630 53410
L46630 53466
" />
<path d="M47670 53775
L47333 53775
" />
<path d="M47502 53775
L47502 53185
L47445 53269
L47389 53326
L47333 53354
" />
<path d="M48345 53157
L47839 53916
" />
<path d="M48851 53775
L48514 53775
" />
<path d="M48683 53775
L48683 53185
L48626 53269
L48570 53326
L48514 53354
" />
</g>
<g style="fill:#000000; fill-opacity:0.0; 
stroke:#000000; stroke-width:39.3701; stroke-opacity:1; 
stroke-linecap:round; stroke-linejoin:round;">
</g>
<g style="fill:#000000; fill-opacity:0.0; 
stroke:#000000; stroke-width:59.0551; stroke-opacity:1; 
stroke-linecap:round; stroke-linejoin:round;">
<path d="M11815 50201
L54335 50201
" />
</g>
<g style="fill:#000000; fill-opacity:0.0; 
stroke:#000000; stroke-width:39.3701; stroke-opacity:1; 
stroke-linecap:round; stroke-linejoin:round;">
</g>
<g style="fill:#000000; fill-opacity:0.0; 
stroke:#000000; stroke-width:157.48; stroke-opacity:1; 
stroke-linecap:round; stroke-linejoin:round;">
<path d="M12387 50479
L12837 50479
" />
<path d="M12514 51266
L12612 50479
" />
<path d="M13001 51266
L13067 50741
" />
<path d="M13100 50479
L13057 50516
L13090 50554
L13132 50516
L13100 50479
L13090 50554
" />
<path d="M13329 50741
L13629 50741
" />
<path d="M13475 50479
L13390 51154
L13418 51229
L13489 51266
L13564 51266
" />
<path d="M13939 51266
L13868 51229
L13840 51154
L13925 50479
" />
<path d="M14543 51229
L14464 51266
L14314 51266
L14243 51229
L14215 51154
L14253 50854
L14299 50779
L14379 50741
L14529 50741
L14599 50779
L14628 50854
L14618 50929
L14234 51004
" />
<path d="M14923 51191
L14956 51229
L14913 51266
L14881 51229
L14923 51191
L14913 51266
" />
<path d="M14974 50779
L15007 50816
L14965 50854
L14932 50816
L14974 50779
L14965 50854
" />
<path d="M16348 51191
L16305 51229
L16188 51266
L16113 51266
L16006 51229
L15940 51154
L15912 51079
L15893 50929
L15907 50816
L15963 50666
L16010 50591
L16095 50516
L16212 50479
L16287 50479
L16395 50516
L16427 50554
" />
<path d="M17013 51266
L17065 50854
L17037 50779
L16966 50741
L16816 50741
L16737 50779
" />
<path d="M17018 51229
L16938 51266
L16751 51266
L16680 51229
L16652 51154
L16662 51079
L16709 51004
L16788 50966
L16976 50966
L17055 50929
" />
<path d="M17388 51266
L17454 50741
" />
<path d="M17435 50891
L17482 50816
L17524 50779
L17604 50741
L17679 50741
" />
<path d="M17829 50741
L18129 50741
" />
<path d="M17974 50479
L17890 51154
L17918 51229
L17988 51266
L18063 51266
" />
<path d="M18630 51229
L18551 51266
L18401 51266
L18330 51229
L18302 51154
L18340 50854
L18386 50779
L18466 50741
L18616 50741
L18686 50779
L18715 50854
L18705 50929
L18321 51004
" />
<path d="M19943 51229
L19863 51266
L19713 51266
L19643 51229
L19610 51191
L19582 51116
L19610 50891
L19657 50816
L19699 50779
L19778 50741
L19928 50741
L19999 50779
" />
<path d="M20275 51266
L20341 50741
" />
<path d="M20374 50479
L20332 50516
L20364 50554
L20407 50516
L20374 50479
L20364 50554
" />
<path d="M20650 51266
L20716 50741
" />
<path d="M20697 50891
L20744 50816
L20786 50779
L20866 50741
L20941 50741
" />
<path d="M21480 51229
L21400 51266
L21250 51266
L21180 51229
L21147 51191
L21119 51116
L21147 50891
L21194 50816
L21236 50779
L21316 50741
L21466 50741
L21536 50779
" />
<path d="M22216 50741
L22150 51266
" />
<path d="M21878 50741
L21827 51154
L21855 51229
L21925 51266
L22038 51266
L22117 51229
L22159 51191
" />
<path d="M22525 51266
L22591 50741
" />
<path d="M22623 50479
L22581 50516
L22614 50554
L22656 50516
L22623 50479
L22614 50554
" />
<path d="M22853 50741
L23153 50741
" />
<path d="M22998 50479
L22914 51154
L22942 51229
L23012 51266
L23087 51266
" />
</g>
<g style="fill:#000000; fill-opacity:0.0; 
stroke:#000000; stroke-width:39.3701; stroke-opacity:1; 
stroke-linecap:round; stroke-linejoin:round;">
</g>
<g style="fill:#000000; fill-opacity:0.0; 
stroke:#000000; stroke-width:59.0551; stroke-opacity:1; 
stroke-linecap:round; stroke-linejoin:round;">
<path d="M12547 49450
L12350 49450
" />
<path d="M12350 49760
L12350 49169
L12631 49169
" />
<path d="M12856 49760
L12856 49366
" />
<path d="M12856 49169
L12828 49197
L12856 49225
L12884 49197
L12856 49169
L12856 49225
" />
<path d="M13221 49760
L13165 49732
L13137 49675
L13137 49169
" />
<path d="M13671 49732
L13615 49760
L13503 49760
L13446 49732
L13418 49675
L13418 49450
L13446 49394
L13503 49366
L13615 49366
L13671 49394
L13700 49450
L13700 49507
L13418 49563
" />
<path d="M13953 49703
L13981 49732
L13953 49760
L13925 49732
L13953 49703
L13953 49760
" />
<path d="M13953 49394
L13981 49422
L13953 49450
L13925 49422
L13953 49394
L13953 49450
" />
<path d="M14937 49732
L14881 49760
L14768 49760
L14712 49732
L14684 49703
L14656 49647
L14656 49479
L14684 49422
L14712 49394
L14768 49366
L14881 49366
L14937 49394
" />
<path d="M15190 49760
L15190 49366
" />
<path d="M15190 49169
L15162 49197
L15190 49225
L15218 49197
L15190 49169
L15190 49225
" />
<path d="M15471 49760
L15471 49366
" />
<path d="M15471 49479
L15499 49422
L15527 49394
L15584 49366
L15640 49366
" />
<path d="M16090 49732
L16034 49760
L15921 49760
L15865 49732
L15837 49703
L15809 49647
L15809 49479
L15837 49422
L15865 49394
L15921 49366
L16034 49366
L16090 49394
" />
<path d="M16596 49366
L16596 49760
" />
<path d="M16343 49366
L16343 49675
L16371 49732
L16427 49760
L16512 49760
L16568 49732
L16596 49703
" />
<path d="M16877 49760
L16877 49366
" />
<path d="M16877 49169
L16849 49197
L16877 49225
L16905 49197
L16877 49169
L16877 49225
" />
<path d="M17074 49366
L17299 49366
" />
<path d="M17158 49169
L17158 49675
L17187 49732
L17243 49760
L17299 49760
" />
<path d="M17496 49703
L17524 49732
L17496 49760
L17468 49732
L17496 49703
L17496 49760
" />
<path d="M17777 49760
L17777 49169
" />
<path d="M17833 49535
L18002 49760
" />
<path d="M18002 49366
L17777 49591
" />
<path d="M18255 49760
L18255 49366
" />
<path d="M18255 49169
L18227 49197
L18255 49225
L18283 49197
L18255 49169
L18255 49225
" />
<path d="M18790 49732
L18733 49760
L18621 49760
L18565 49732
L18536 49703
L18508 49647
L18508 49479
L18536 49422
L18565 49394
L18621 49366
L18733 49366
L18790 49394
" />
<path d="M19296 49760
L19296 49450
L19268 49394
L19211 49366
L19099 49366
L19043 49394
" />
<path d="M19296 49732
L19239 49760
L19099 49760
L19043 49732
L19015 49675
L19015 49619
L19043 49563
L19099 49535
L19239 49535
L19296 49507
" />
<path d="M19830 49760
L19830 49169
" />
<path d="M19830 49732
L19774 49760
L19661 49760
L19605 49732
L19577 49703
L19549 49647
L19549 49479
L19577 49422
L19605 49394
L19661 49366
L19774 49366
L19830 49394
" />
<path d="M19971 49816
L20421 49816
" />
<path d="M20561 49366
L20561 49957
" />
<path d="M20561 49394
L20617 49366
L20730 49366
L20786 49394
L20814 49422
L20842 49479
L20842 49647
L20814 49703
L20786 49732
L20730 49760
L20617 49760
L20561 49732
" />
<path d="M21349 49732
L21292 49760
L21180 49760
L21124 49732
L21095 49703
L21067 49647
L21067 49479
L21095 49422
L21124 49394
L21180 49366
L21292 49366
L21349 49394
" />
<path d="M21602 49760
L21602 49169
" />
<path d="M21602 49394
L21658 49366
L21770 49366
L21827 49394
L21855 49422
L21883 49479
L21883 49647
L21855 49703
L21827 49732
L21770 49760
L21658 49760
L21602 49732
" />
</g>
<g style="fill:#000000; fill-opacity:0.0; 
stroke:#000000; stroke-width:39.3701; stroke-opacity:1; 
stroke-linecap:round; stroke-linejoin:round;">
</g>
<g style="fill:#000000; fill-opacity:0.0; 
stroke:#000000; stroke-width:59.0551; stroke-opacity:1; 
stroke-linecap:round; stroke-linejoin:round;">
<path d="M11815 47839
L54335 47839
" />
</g>
<g style="fill:#000000; fill-opacity:0.0; 
stroke:#000000; stroke-width:39.3701; stroke-opacity:1; 
stroke-linecap:round; stroke-linejoin:round;">
</g>
<g style="fill:#000000; fill-opacity:0.0; 
stroke:#000000; stroke-width:59.0551; stroke-opacity:1; 
stroke-linecap:round; stroke-linejoin:round;">
<path d="M12322 48669
L12406 48697
L12547 48697
L12603 48669
L12631 48640
L12659 48584
L12659 48528
L12631 48472
L12603 48444
L12547 48416
L12434 48387
L12378 48359
L12350 48331
L12322 48275
L12322 48219
L12350 48162
L12378 48134
L12434 48106
L12575 48106
L12659 48134
" />
<path d="M12912 48697
L12912 48106
" />
<path d="M13165 48697
L13165 48387
L13137 48331
L13081 48303
L12997 48303
L12940 48331
L12912 48359
" />
<path d="M13671 48669
L13615 48697
L13503 48697
L13446 48669
L13418 48612
L13418 48387
L13446 48331
L13503 48303
L13615 48303
L13671 48331
L13700 48387
L13700 48444
L13418 48500
" />
<path d="M14178 48669
L14121 48697
L14009 48697
L13953 48669
L13925 48612
L13925 48387
L13953 48331
L14009 48303
L14121 48303
L14178 48331
L14206 48387
L14206 48444
L13925 48500
" />
<path d="M14374 48303
L14599 48303
" />
<path d="M14459 48106
L14459 48612
L14487 48669
L14543 48697
L14599 48697
" />
<path d="M14796 48640
L14824 48669
L14796 48697
L14768 48669
L14796 48640
L14796 48697
" />
<path d="M14796 48331
L14824 48359
L14796 48387
L14768 48359
L14796 48331
L14796 48387
" />
</g>
<g style="fill:#000000; fill-opacity:0.0; 
stroke:#000000; stroke-width:39.3701; stroke-opacity:1; 
stroke-linecap:round; stroke-linejoin:round;">
</g>
<g style="fill:#000000; fill-opacity:0.0; 
stroke:#000000; stroke-width:118.11; stroke-opacity:1; 
stroke-linecap:round; stroke-linejoin:round;">
<path d="M12350 47516
L12350 46925
" />
<path d="M12631 47516
L12631 46925
L12856 46925
L12912 46953
L12940 46981
L12968 47038
L12968 47122
L12940 47178
L12912 47206
L12856 47234
L12631 47234
" />
<path d="M13193 47488
L13278 47516
L13418 47516
L13475 47488
L13503 47459
L13531 47403
L13531 47347
L13503 47291
L13475 47263
L13418 47234
L13306 47206
L13250 47178
L13221 47150
L13193 47094
L13193 47038
L13221 46981
L13250 46953
L13306 46925
L13446 46925
L13531 46953
" />
<path d="M13756 47347
L14037 47347
" />
<path d="M13700 47516
L13896 46925
L14093 47516
" />
</g>
<g style="fill:#000000; fill-opacity:0.0; 
stroke:#000000; stroke-width:39.3701; stroke-opacity:1; 
stroke-linecap:round; stroke-linejoin:round;">
</g>
<g style="fill:#000000; fill-opacity:0.0; 
stroke:#000000; stroke-width:59.0551; stroke-opacity:1; 
stroke-linecap:round; stroke-linejoin:round;">
<path d="M19689 51776
L19689 52957
" />
</g>
<g style="fill:#000000; fill-opacity:0.0; 
stroke:#000000; stroke-width:39.3701; stroke-opacity:1; 
stroke-linecap:round; stroke-linejoin:round;">
</g>
<g style="fill:#000000; fill-opacity:0.0; 
stroke:#000000; stroke-width:59.0551; stroke-opacity:1; 
stroke-linecap:round; stroke-linejoin:round;">
<path d="M44886 51776
L44886 54335
" />
</g>
<g style="fill:#C2C200; fill-opacity:0.0; 
stroke:#C2C200; stroke-width:59.0551; stroke-opacity:1; 
stroke-linecap:round; stroke-linejoin:round;">
<path d="M12000 38500
L12000 7500
" />
<path d="M46000 38500
L12000 38500
" />
<path d="M46000 7500
L46000 38500
" />
<path d="M12000 7500
L46000 7500
" />
<path d="M24878 15713
L24878 15451
" />
<path d="M24878 15488
L24897 15469
L24934 15451
L24990 15451
L25028 15469
L25047 15507
L25047 15713
" />
<path d="M25047 15507
L25065 15469
L25103 15451
L25159 15451
L25197 15469
L25215 15507
L25215 15713
" />
<path d="M25365 15451
L25459 15713
" />
<path d="M25553 15451
L25459 15713
L25422 15807
L25403 15826
L25365 15844
" />
<path d="M25665 15319
L25928 15319
L25759 15713
" />
<path d="M26246 15451
L26246 15713
" />
<path d="M26153 15301
L26059 15582
L26303 15582
" />
<path d="M26453 15713
L26453 15319
" />
<path d="M26453 15507
L26678 15507
" />
<path d="M26678 15713
L26678 15319
" />
<path d="M27090 15676
L27071 15694
L27015 15713
L26978 15713
L26921 15694
L26884 15657
L26865 15619
L26846 15544
L26846 15488
L26865 15413
L26884 15376
L26921 15338
L26978 15319
L27015 15319
L27071 15338
L27090 15357
" />
<path d="M27203 15319
L27428 15319
" />
<path d="M27315 15713
L27315 15319
" />
<path d="M27634 15319
L27671 15319
L27709 15338
L27727 15357
L27746 15394
L27765 15469
L27765 15563
L27746 15638
L27727 15676
L27709 15694
L27671 15713
L27634 15713
L27596 15694
L27577 15676
L27559 15638
L27540 15563
L27540 15469
L27559 15394
L27577 15357
L27596 15338
L27634 15319
" />
<path d="M28102 15451
L28102 15713
" />
<path d="M28009 15301
L27915 15582
L28159 15582
" />
<path d="M43165 7920
L43147 7938
L43090 7957
L43053 7957
L42997 7938
L42959 7901
L42940 7863
L42922 7788
L42922 7732
L42940 7657
L42959 7620
L42997 7582
L43053 7563
L43090 7563
L43147 7582
L43165 7601
" />
<path d="M43409 7563
L43484 7563
L43522 7582
L43559 7620
L43578 7695
L43578 7826
L43559 7901
L43522 7938
L43484 7957
L43409 7957
L43372 7938
L43334 7901
L43315 7826
L43315 7695
L43334 7620
L43372 7582
L43409 7563
" />
<path d="M43747 7957
L43747 7563
L43971 7957
L43971 7563
" />
<path d="M44159 7957
L44159 7563
L44384 7957
L44384 7563
" />
<path d="M44478 7995
L44778 7995
" />
<path d="M44946 7563
L44984 7563
L45021 7582
L45040 7601
L45059 7638
L45078 7713
L45078 7807
L45059 7882
L45040 7920
L45021 7938
L44984 7957
L44946 7957
L44909 7938
L44890 7920
L44871 7882
L44853 7807
L44853 7713
L44871 7638
L44890 7601
L44909 7582
L44946 7563
" />
<path d="M45453 7957
L45228 7957
" />
<path d="M45340 7957
L45340 7563
L45303 7620
L45265 7657
L45228 7676
" />
<path d="M45584 7563
L45846 7957
" />
<path d="M45846 7563
L45584 7957
" />
<path d="M46071 7563
L46109 7563
L46146 7582
L46165 7601
L46184 7638
L46202 7713
L46202 7807
L46184 7882
L46165 7920
L46146 7938
L46109 7957
L46071 7957
L46034 7938
L46015 7920
L45996 7882
L45977 7807
L45977 7713
L45996 7638
L46015 7601
L46034 7582
L46071 7563
" />
<path d="M46540 7563
L46465 7563
L46427 7582
L46409 7601
L46371 7657
L46352 7732
L46352 7882
L46371 7920
L46390 7938
L46427 7957
L46502 7957
L46540 7938
L46559 7920
L46577 7882
L46577 7788
L46559 7751
L46540 7732
L46502 7713
L46427 7713
L46390 7732
L46371 7751
L46352 7788
" />
<path d="M43165 30920
L43147 30938
L43090 30957
L43053 30957
L42997 30938
L42959 30901
L42940 30863
L42922 30788
L42922 30732
L42940 30657
L42959 30620
L42997 30582
L43053 30563
L43090 30563
L43147 30582
L43165 30601
" />
<path d="M43409 30563
L43484 30563
L43522 30582
L43559 30620
L43578 30695
L43578 30826
L43559 30901
L43522 30938
L43484 30957
L43409 30957
L43372 30938
L43334 30901
L43315 30826
L43315 30695
L43334 30620
L43372 30582
L43409 30563
" />
<path d="M43747 30957
L43747 30563
L43971 30957
L43971 30563
" />
<path d="M44159 30957
L44159 30563
L44384 30957
L44384 30563
" />
<path d="M44478 30995
L44778 30995
" />
<path d="M44946 30563
L44984 30563
L45021 30582
L45040 30601
L45059 30638
L45078 30713
L45078 30807
L45059 30882
L45040 30920
L45021 30938
L44984 30957
L44946 30957
L44909 30938
L44890 30920
L44871 30882
L44853 30807
L44853 30713
L44871 30638
L44890 30601
L44909 30582
L44946 30563
" />
<path d="M45453 30957
L45228 30957
" />
<path d="M45340 30957
L45340 30563
L45303 30620
L45265 30657
L45228 30676
" />
<path d="M45584 30563
L45846 30957
" />
<path d="M45846 30563
L45584 30957
" />
<path d="M46071 30563
L46109 30563
L46146 30582
L46165 30601
L46184 30638
L46202 30713
L46202 30807
L46184 30882
L46165 30920
L46146 30938
L46109 30957
L46071 30957
L46034 30938
L46015 30920
L45996 30882
L45977 30807
L45977 30713
L45996 30638
L46015 30601
L46034 30582
L46071 30563
" />
<path d="M46540 30563
L46465 30563
L46427 30582
L46409 30601
L46371 30657
L46352 30732
L46352 30882
L46371 30920
L46390 30938
L46427 30957
L46502 30957
L46540 30938
L46559 30920
L46577 30882
L46577 30788
L46559 30751
L46540 30732
L46502 30713
L46427 30713
L46390 30732
L46371 30751
L46352 30788
" />
<path d="M43165 19920
L43147 19938
L43090 19957
L43053 19957
L42997 19938
L42959 19901
L42940 19863
L42922 19788
L42922 19732
L42940 19657
L42959 19620
L42997 19582
L43053 19563
L43090 19563
L43147 19582
L43165 19601
" />
<path d="M43409 19563
L43484 19563
L43522 19582
L43559 19620
L43578 19695
L43578 19826
L43559 19901
L43522 19938
L43484 19957
L43409 19957
L43372 19938
L43334 19901
L43315 19826
L43315 19695
L43334 19620
L43372 19582
L43409 19563
" />
<path d="M43747 19957
L43747 19563
L43971 19957
L43971 19563
" />
<path d="M44159 19957
L44159 19563
L44384 19957
L44384 19563
" />
<path d="M44478 19995
L44778 19995
" />
<path d="M44946 19563
L44984 19563
L45021 19582
L45040 19601
L45059 19638
L45078 19713
L45078 19807
L45059 19882
L45040 19920
L45021 19938
L44984 19957
L44946 19957
L44909 19938
L44890 19920
L44871 19882
L44853 19807
L44853 19713
L44871 19638
L44890 19601
L44909 19582
L44946 19563
" />
<path d="M45453 19957
L45228 19957
" />
<path d="M45340 19957
L45340 19563
L45303 19620
L45265 19657
L45228 19676
" />
<path d="M45584 19563
L45846 19957
" />
<path d="M45846 19563
L45584 19957
" />
<path d="M46071 19563
L46109 19563
L46146 19582
L46165 19601
L46184 19638
L46202 19713
L46202 19807
L46184 19882
L46165 19920
L46146 19938
L46109 19957
L46071 19957
L46034 19938
L46015 19920
L45996 19882
L45977 19807
L45977 19713
L45996 19638
L46015 19601
L46034 19582
L46071 19563
" />
<path d="M46540 19563
L46465 19563
L46427 19582
L46409 19601
L46371 19657
L46352 19732
L46352 19882
L46371 19920
L46390 19938
L46427 19957
L46502 19957
L46540 19938
L46559 19920
L46577 19882
L46577 19788
L46559 19751
L46540 19732
L46502 19713
L46427 19713
L46390 19732
L46371 19751
L46352 19788
" />
<path d="M11915 24361
L11897 24379
L11840 24398
L11803 24398
L11747 24379
L11709 24342
L11690 24304
L11672 24229
L11672 24173
L11690 24098
L11709 24061
L11747 24023
L11803 24004
L11840 24004
L11897 24023
L11915 24042
" />
<path d="M12159 24004
L12234 24004
L12272 24023
L12309 24061
L12328 24136
L12328 24267
L12309 24342
L12272 24379
L12234 24398
L12159 24398
L12122 24379
L12084 24342
L12065 24267
L12065 24136
L12084 24061
L12122 24023
L12159 24004
" />
<path d="M12497 24398
L12497 24004
L12721 24398
L12721 24004
" />
<path d="M12909 24398
L12909 24004
L13134 24398
L13134 24004
" />
<path d="M13228 24436
L13528 24436
" />
<path d="M13696 24004
L13734 24004
L13771 24023
L13790 24042
L13809 24079
L13828 24154
L13828 24248
L13809 24323
L13790 24361
L13771 24379
L13734 24398
L13696 24398
L13659 24379
L13640 24361
L13621 24323
L13603 24248
L13603 24154
L13621 24079
L13640 24042
L13659 24023
L13696 24004
" />
<path d="M14203 24398
L13978 24398
" />
<path d="M14090 24398
L14090 24004
L14053 24061
L14015 24098
L13978 24117
" />
<path d="M14334 24004
L14596 24398
" />
<path d="M14596 24004
L14334 24398
" />
<path d="M14821 24004
L14859 24004
L14896 24023
L14915 24042
L14934 24079
L14952 24154
L14952 24248
L14934 24323
L14915 24361
L14896 24379
L14859 24398
L14821 24398
L14784 24379
L14765 24361
L14746 24323
L14727 24248
L14727 24154
L14746 24079
L14765 24042
L14784 24023
L14821 24004
" />
<path d="M15290 24004
L15215 24004
L15177 24023
L15159 24042
L15121 24098
L15102 24173
L15102 24323
L15121 24361
L15140 24379
L15177 24398
L15252 24398
L15290 24379
L15309 24361
L15327 24323
L15327 24229
L15309 24192
L15290 24173
L15252 24154
L15177 24154
L15140 24173
L15121 24192
L15102 24229
" />
<path d="M36178 15734
L36178 15959
" />
<path d="M36178 15846
L35784 15846
L35840 15884
L35878 15921
L35896 15959
" />
<path d="M35784 15490
L35784 15453
L35803 15415
L35821 15396
L35859 15378
L35934 15359
L36028 15359
L36103 15378
L36140 15396
L36159 15415
L36178 15453
L36178 15490
L36159 15528
L36140 15546
L36103 15565
L36028 15584
L35934 15584
L35859 15565
L35821 15546
L35803 15528
L35784 15490
" />
<path d="M36178 15190
L35784 15190
" />
<path d="M36028 15153
L36178 15040
" />
<path d="M35915 15040
L36065 15190
" />
<path d="M38015 20678
L37790 20678
" />
<path d="M37903 20678
L37903 20284
L37865 20340
L37828 20378
L37790 20396
" />
<path d="M38259 20284
L38296 20284
L38334 20303
L38353 20321
L38371 20359
L38390 20434
L38390 20528
L38371 20603
L38353 20640
L38334 20659
L38296 20678
L38259 20678
L38221 20659
L38203 20640
L38184 20603
L38165 20528
L38165 20434
L38184 20359
L38203 20321
L38221 20303
L38259 20284
" />
<path d="M38559 20678
L38559 20284
" />
<path d="M38596 20528
L38709 20678
" />
<path d="M38709 20415
L38559 20565
" />
<path d="M38015 19678
L37790 19678
" />
<path d="M37903 19678
L37903 19284
L37865 19340
L37828 19378
L37790 19396
" />
<path d="M38259 19284
L38296 19284
L38334 19303
L38353 19321
L38371 19359
L38390 19434
L38390 19528
L38371 19603
L38353 19640
L38334 19659
L38296 19678
L38259 19678
L38221 19659
L38203 19640
L38184 19603
L38165 19528
L38165 19434
L38184 19359
L38203 19321
L38221 19303
L38259 19284
" />
<path d="M38559 19678
L38559 19284
" />
<path d="M38596 19528
L38709 19678
" />
<path d="M38709 19415
L38559 19565
" />
<path d="M38015 21678
L37790 21678
" />
<path d="M37903 21678
L37903 21284
L37865 21340
L37828 21378
L37790 21396
" />
<path d="M38259 21284
L38296 21284
L38334 21303
L38353 21321
L38371 21359
L38390 21434
L38390 21528
L38371 21603
L38353 21640
L38334 21659
L38296 21678
L38259 21678
L38221 21659
L38203 21640
L38184 21603
L38165 21528
L38165 21434
L38184 21359
L38203 21321
L38221 21303
L38259 21284
" />
<path d="M38559 21678
L38559 21284
" />
<path d="M38596 21528
L38709 21678
" />
<path d="M38709 21415
L38559 21565
" />
<path d="M21121 17678
L20990 17490
" />
<path d="M20896 17678
L20896 17284
L21046 17284
L21084 17303
L21103 17321
L21121 17359
L21121 17415
L21103 17453
L21084 17471
L21046 17490
L20896 17490
" />
<path d="M21121 19678
L20990 19490
" />
<path d="M20896 19678
L20896 19284
L21046 19284
L21084 19303
L21103 19321
L21121 19359
L21121 19415
L21103 19453
L21084 19471
L21046 19490
L20896 19490
" />
<path d="M21121 23678
L20990 23490
" />
<path d="M20896 23678
L20896 23284
L21046 23284
L21084 23303
L21103 23321
L21121 23359
L21121 23415
L21103 23453
L21084 23471
L21046 23490
L20896 23490
" />
<path d="M21121 21678
L20990 21490
" />
<path d="M20896 21678
L20896 21284
L21046 21284
L21084 21303
L21103 21321
L21121 21359
L21121 21415
L21103 21453
L21084 21471
L21046 21490
L20896 21490
" />
<path d="M22121 30678
L21990 30490
" />
<path d="M21896 30678
L21896 30284
L22046 30284
L22084 30303
L22103 30321
L22121 30359
L22121 30415
L22103 30453
L22084 30471
L22046 30490
L21896 30490
" />
<path d="M22121 32678
L21990 32490
" />
<path d="M21896 32678
L21896 32284
L22046 32284
L22084 32303
L22103 32321
L22121 32359
L22121 32415
L22103 32453
L22084 32471
L22046 32490
L21896 32490
" />
<path d="M22121 34678
L21990 34490
" />
<path d="M21896 34678
L21896 34284
L22046 34284
L22084 34303
L22103 34321
L22121 34359
L22121 34415
L22103 34453
L22084 34471
L22046 34490
L21896 34490
" />
<path d="M22121 36428
L21990 36240
" />
<path d="M21896 36428
L21896 36034
L22046 36034
L22084 36053
L22103 36071
L22121 36109
L22121 36165
L22103 36203
L22084 36221
L22046 36240
L21896 36240
" />
<path d="M24878 26713
L24878 26451
" />
<path d="M24878 26488
L24897 26469
L24934 26451
L24990 26451
L25028 26469
L25047 26507
L25047 26713
" />
<path d="M25047 26507
L25065 26469
L25103 26451
L25159 26451
L25197 26469
L25215 26507
L25215 26713
" />
<path d="M25365 26451
L25459 26713
" />
<path d="M25553 26451
L25459 26713
L25422 26807
L25403 26826
L25365 26844
" />
<path d="M25665 26319
L25928 26319
L25759 26713
" />
<path d="M26246 26451
L26246 26713
" />
<path d="M26153 26301
L26059 26582
L26303 26582
" />
<path d="M26453 26713
L26453 26319
" />
<path d="M26453 26507
L26678 26507
" />
<path d="M26678 26713
L26678 26319
" />
<path d="M27090 26676
L27071 26694
L27015 26713
L26978 26713
L26921 26694
L26884 26657
L26865 26619
L26846 26544
L26846 26488
L26865 26413
L26884 26376
L26921 26338
L26978 26319
L27015 26319
L27071 26338
L27090 26357
" />
<path d="M27203 26319
L27428 26319
" />
<path d="M27315 26713
L27315 26319
" />
<path d="M27634 26319
L27671 26319
L27709 26338
L27727 26357
L27746 26394
L27765 26469
L27765 26563
L27746 26638
L27727 26676
L27709 26694
L27671 26713
L27634 26713
L27596 26694
L27577 26676
L27559 26638
L27540 26563
L27540 26469
L27559 26394
L27577 26357
L27596 26338
L27634 26319
" />
<path d="M28102 26451
L28102 26713
" />
<path d="M28009 26301
L27915 26582
L28159 26582
" />
<path d="M32665 14920
L32647 14938
L32590 14957
L32553 14957
L32497 14938
L32459 14901
L32440 14863
L32422 14788
L32422 14732
L32440 14657
L32459 14620
L32497 14582
L32553 14563
L32590 14563
L32647 14582
L32665 14601
" />
<path d="M32909 14563
L32984 14563
L33022 14582
L33059 14620
L33078 14695
L33078 14826
L33059 14901
L33022 14938
L32984 14957
L32909 14957
L32872 14938
L32834 14901
L32815 14826
L32815 14695
L32834 14620
L32872 14582
L32909 14563
" />
<path d="M33247 14957
L33247 14563
L33471 14957
L33471 14563
" />
<path d="M33659 14957
L33659 14563
L33884 14957
L33884 14563
" />
<path d="M33978 14995
L34278 14995
" />
<path d="M34446 14563
L34484 14563
L34521 14582
L34540 14601
L34559 14638
L34578 14713
L34578 14807
L34559 14882
L34540 14920
L34521 14938
L34484 14957
L34446 14957
L34409 14938
L34390 14920
L34371 14882
L34353 14807
L34353 14713
L34371 14638
L34390 14601
L34409 14582
L34446 14563
" />
<path d="M34953 14957
L34728 14957
" />
<path d="M34840 14957
L34840 14563
L34803 14620
L34765 14657
L34728 14676
" />
<path d="M35084 14563
L35346 14957
" />
<path d="M35346 14563
L35084 14957
" />
<path d="M35571 14563
L35609 14563
L35646 14582
L35665 14601
L35684 14638
L35702 14713
L35702 14807
L35684 14882
L35665 14920
L35646 14938
L35609 14957
L35571 14957
L35534 14938
L35515 14920
L35496 14882
L35477 14807
L35477 14713
L35496 14638
L35515 14601
L35534 14582
L35571 14563
" />
<path d="M36040 14695
L36040 14957
" />
<path d="M35946 14545
L35852 14826
L36096 14826
" />
<path d="M32665 20920
L32647 20938
L32590 20957
L32553 20957
L32497 20938
L32459 20901
L32440 20863
L32422 20788
L32422 20732
L32440 20657
L32459 20620
L32497 20582
L32553 20563
L32590 20563
L32647 20582
L32665 20601
" />
<path d="M32909 20563
L32984 20563
L33022 20582
L33059 20620
L33078 20695
L33078 20826
L33059 20901
L33022 20938
L32984 20957
L32909 20957
L32872 20938
L32834 20901
L32815 20826
L32815 20695
L32834 20620
L32872 20582
L32909 20563
" />
<path d="M33247 20957
L33247 20563
L33471 20957
L33471 20563
" />
<path d="M33659 20957
L33659 20563
L33884 20957
L33884 20563
" />
<path d="M33978 20995
L34278 20995
" />
<path d="M34446 20563
L34484 20563
L34521 20582
L34540 20601
L34559 20638
L34578 20713
L34578 20807
L34559 20882
L34540 20920
L34521 20938
L34484 20957
L34446 20957
L34409 20938
L34390 20920
L34371 20882
L34353 20807
L34353 20713
L34371 20638
L34390 20601
L34409 20582
L34446 20563
" />
<path d="M34953 20957
L34728 20957
" />
<path d="M34840 20957
L34840 20563
L34803 20620
L34765 20657
L34728 20676
" />
<path d="M35084 20563
L35346 20957
" />
<path d="M35346 20563
L35084 20957
" />
<path d="M35571 20563
L35609 20563
L35646 20582
L35665 20601
L35684 20638
L35702 20713
L35702 20807
L35684 20882
L35665 20920
L35646 20938
L35609 20957
L35571 20957
L35534 20938
L35515 20920
L35496 20882
L35477 20807
L35477 20713
L35496 20638
L35515 20601
L35534 20582
L35571 20563
" />
<path d="M36040 20695
L36040 20957
" />
<path d="M35946 20545
L35852 20826
L36096 20826
" />
<path d="M41500 27659
L41556 27678
L41650 27678
L41687 27659
L41706 27640
L41725 27603
L41725 27565
L41706 27528
L41687 27509
L41650 27490
L41575 27471
L41537 27453
L41518 27434
L41500 27396
L41500 27359
L41518 27321
L41537 27303
L41575 27284
L41668 27284
L41725 27303
" />
<path d="M41837 27284
L42062 27284
" />
<path d="M41950 27678
L41950 27284
" />
<path d="M42418 27678
L42287 27490
" />
<path d="M42193 27678
L42193 27284
L42343 27284
L42381 27303
L42399 27321
L42418 27359
L42418 27415
L42399 27453
L42381 27471
L42343 27490
L42193 27490
" />
<path d="M42587 27678
L42587 27284
" />
<path d="M42774 27678
L42774 27284
L42924 27284
L42962 27303
L42981 27321
L42999 27359
L42999 27415
L42981 27453
L42962 27471
L42924 27490
L42774 27490
" />
<path d="M30500 15659
L30556 15678
L30650 15678
L30687 15659
L30706 15640
L30725 15603
L30725 15565
L30706 15528
L30687 15509
L30650 15490
L30575 15471
L30537 15453
L30518 15434
L30500 15396
L30500 15359
L30518 15321
L30537 15303
L30575 15284
L30668 15284
L30725 15303
" />
<path d="M30837 15284
L31062 15284
" />
<path d="M30950 15678
L30950 15284
" />
<path d="M31418 15678
L31287 15490
" />
<path d="M31193 15678
L31193 15284
L31343 15284
L31381 15303
L31399 15321
L31418 15359
L31418 15415
L31399 15453
L31381 15471
L31343 15490
L31193 15490
" />
<path d="M31587 15678
L31587 15284
" />
<path d="M31774 15678
L31774 15284
L31924 15284
L31962 15303
L31981 15321
L31999 15359
L31999 15415
L31981 15453
L31962 15471
L31924 15490
L31774 15490
" />
<path d="M32000 33159
L32056 33178
L32150 33178
L32187 33159
L32206 33140
L32225 33103
L32225 33065
L32206 33028
L32187 33009
L32150 32990
L32075 32971
L32037 32953
L32018 32934
L32000 32896
L32000 32859
L32018 32821
L32037 32803
L32075 32784
L32168 32784
L32225 32803
" />
<path d="M32337 32784
L32562 32784
" />
<path d="M32450 33178
L32450 32784
" />
<path d="M32918 33178
L32787 32990
" />
<path d="M32693 33178
L32693 32784
L32843 32784
L32881 32803
L32899 32821
L32918 32859
L32918 32915
L32899 32953
L32881 32971
L32843 32990
L32693 32990
" />
<path d="M33087 33178
L33087 32784
" />
<path d="M33274 33178
L33274 32784
L33424 32784
L33462 32803
L33481 32821
L33499 32859
L33499 32915
L33481 32953
L33462 32971
L33424 32990
L33274 32990
" />
</g> 
</svg>
