<?xml version="1.0" encoding="UTF-8" standalone="no"?>
<!-- Created with Inkscape (http://www.inkscape.org/) -->

<svg
   xmlns:dc="http://purl.org/dc/elements/1.1/"
   xmlns:cc="http://creativecommons.org/ns#"
   xmlns:rdf="http://www.w3.org/1999/02/22-rdf-syntax-ns#"
   xmlns:svg="http://www.w3.org/2000/svg"
   xmlns="http://www.w3.org/2000/svg"
   xmlns:sodipodi="http://sodipodi.sourceforge.net/DTD/sodipodi-0.dtd"
   xmlns:inkscape="http://www.inkscape.org/namespaces/inkscape"
   id="svg7382"
   version="1.1"
   inkscape:version="0.91 r13725"
   width="240"
   height="143.7"
   viewBox="0 0 240 143.7"
   sodipodi:docname="LOGO-IPSA.svg">
  <metadata
     id="metadata7388">
    <rdf:RDF>
      <cc:Work
         rdf:about="">
        <dc:format>image/svg+xml</dc:format>
        <dc:type
           rdf:resource="http://purl.org/dc/dcmitype/StillImage" />
        <dc:title></dc:title>
      </cc:Work>
    </rdf:RDF>
  </metadata>
  <defs
     id="defs7386">
    <inkscape:path-effect
       effect="powerstroke"
       id="path-effect7465"
       is_visible="true"
       offset_points="0.0026771562,-0.1650254"
       sort_points="true"
       interpolator_type="Linear"
       interpolator_beta="0.2"
       start_linecap_type="zerowidth"
       linejoin_type="round"
       miter_limit="4"
       end_linecap_type="zerowidth"
       cusp_linecap_type="round" />
    <clipPath
       clipPathUnits="userSpaceOnUse"
       id="clipPath8333">
      <g
         id="g8335">
        <rect
           y="-1.9129448"
           x="1.9975502"
           height="116.62521"
           width="151.44388"
           id="rect8337"
           style="fill:#000000;fill-opacity:1;stroke:#000000;stroke-width:0.1;stroke-miterlimit:4;stroke-dasharray:none" />
        <rect
           y="-0.064171851"
           x="18.024788"
           height="116.62521"
           width="151.44388"
           id="rect8339"
           style="fill:#000000;fill-opacity:1;stroke:#000000;stroke-width:0.1;stroke-miterlimit:4;stroke-dasharray:none" />
        <rect
           y="6.3783092"
           x="36.218304"
           height="116.62521"
           width="151.44388"
           id="rect8341"
           style="fill:#000000;fill-opacity:1;stroke:#000000;stroke-width:0.1;stroke-miterlimit:4;stroke-dasharray:none" />
        <rect
           y="16.581884"
           x="78.32933"
           height="116.62521"
           width="151.44388"
           id="rect8343"
           style="fill:#000000;fill-opacity:1;stroke:#000000;stroke-width:0.1;stroke-miterlimit:4;stroke-dasharray:none" />
        <rect
           y="38.169102"
           x="126.40534"
           height="116.62521"
           width="151.44388"
           id="rect8345"
           style="fill:#000000;fill-opacity:1;stroke:#000000;stroke-width:0.1;stroke-miterlimit:4;stroke-dasharray:none" />
        <rect
           y="18.332464"
           x="115.85268"
           height="116.62521"
           width="151.44388"
           id="rect8347"
           style="fill:#000000;fill-opacity:1;stroke:#000000;stroke-width:0.1;stroke-miterlimit:4;stroke-dasharray:none" />
        <rect
           y="-8.9918451"
           x="122.17001"
           height="116.62521"
           width="151.44388"
           id="rect8349"
           style="fill:#000000;fill-opacity:1;stroke:#000000;stroke-width:0.1;stroke-miterlimit:4;stroke-dasharray:none" />
      </g>
    </clipPath>
  </defs>
  <sodipodi:namedview
     pagecolor="#ffffff"
     bordercolor="#666666"
     borderopacity="1"
     objecttolerance="10"
     gridtolerance="10"
     guidetolerance="10"
     inkscape:pageopacity="0"
     inkscape:pageshadow="2"
     inkscape:window-width="1920"
     inkscape:window-height="1029"
     id="namedview7384"
     showgrid="false"
     inkscape:zoom="4.6451553"
     inkscape:cx="107.92545"
     inkscape:cy="53.075833"
     inkscape:window-x="0"
     inkscape:window-y="0"
     inkscape:window-maximized="1"
     inkscape:current-layer="svg7382" />
  <path
     style="fill:#014b75;fill-opacity:1"
     d="M 76.015625 1.6484375 C 71.161557 1.5115951 66.791838 3.1368391 63.744141 6.3320312 C 61.844001 8.3241283 60.169334 11.598484 59.654297 14.328125 C 58.946396 18.079905 59.96198 26.450732 61.720703 31.349609 C 62.890664 34.608494 64.021121 36.655506 67.34375 41.535156 C 75.863273 54.047028 80.293324 63.497731 81.765625 72.302734 C 82.373392 75.937426 82.224307 82.915645 81.490234 85.236328 C 80.02624 89.864566 76.863635 93.266304 73.535156 93.794922 L 72.150391 94.015625 L 73.349609 94.240234 C 74.477381 94.451617 85.0375 93.735368 85.560547 93.412109 C 86.074108 93.094709 85.747834 93.695977 84.527344 95.3125 C 82.526644 97.962412 81.516015 98.286715 74.064453 98.679688 C 70.701249 98.857054 67.0725 99.066914 66 99.146484 C 64.079262 99.288987 60.297481 98.822268 60.300781 98.443359 C 60.301699 98.336547 60.462147 97.710781 60.65625 97.050781 C 60.85035 96.390781 60.987034 95.754529 60.958984 95.636719 C 60.930943 95.518899 61.075024 95.48531 61.279297 95.5625 C 61.696366 95.720102 65.812294 95.27349 67.650391 94.871094 C 68.822617 94.614471 68.797535 94.603153 66.599609 94.380859 C 65.362109 94.255699 63.836014 94.021855 63.208984 93.861328 C 62.150602 93.590365 62.008887 93.634349 61.214844 94.484375 L 60.359375 95.400391 L 47.279297 95.400391 L 34.199219 95.400391 L 34.199219 80.833984 L 34.199219 66.267578 L 35.876953 65.525391 C 40.005946 63.699354 43.331363 60.87187 46.8125 56.226562 C 50.682602 51.06221 53.350829 44.973392 54.494141 38.699219 C 55.556522 32.869169 55.028695 23.458077 53.351562 18.300781 C 51.186208 11.642175 46.831398 6.011861 42.091797 3.7441406 C 39.01551 2.2722529 32.97093 1.5063402 27.818359 1.9355469 L 25.201172 2.1542969 L 25.125 48.552734 L 25.050781 94.949219 L 20.025391 94.857422 C 15.210914 94.768904 15 94.788837 15 95.349609 C 15 95.671518 14.827226 96.002597 14.615234 96.083984 C 14.403242 96.165332 12.748711 95.977701 10.939453 95.667969 C 9.1301952 95.358237 7.2779687 95.105016 6.8242188 95.103516 L 6 95.099609 L 6 97.589844 C 6 99.12651 6.1372064 100.21728 6.359375 100.43945 C 6.6045923 100.68467 8.039375 100.80078 10.859375 100.80078 L 15 100.80078 L 15.035156 98.775391 C 15.054666 97.661641 15.055259 96.652783 15.037109 96.533203 C 15.01896 96.413618 15.307874 96.440816 15.677734 96.59375 C 16.404995 96.894464 22.898197 97.800781 24.326172 97.800781 C 25.160724 97.800781 25.199219 97.739732 25.199219 96.457031 C 25.199219 95.139824 25.213761 95.121163 25.96875 95.408203 C 26.391991 95.56912 28.046522 95.700725 29.644531 95.703125 C 33.548455 95.70863 33.900391 95.821337 33.900391 97.066406 C 33.900391 97.614926 33.779671 98.139747 33.632812 98.230469 C 33.485957 98.321231 31.697596 98.280473 29.658203 98.140625 C 27.618809 98.000774 25.780469 97.948911 25.574219 98.025391 C 25.066216 98.213761 25.098692 100.04235 25.617188 100.47266 C 25.89771 100.70549 27.341278 100.79086 30.041016 100.73438 L 34.050781 100.65039 L 34.144531 99.824219 C 34.19674 99.370469 34.400412 98.985097 34.595703 98.966797 C 36.287943 98.808211 58.981039 99.621968 61.28125 99.923828 C 62.563537 100.09211 64.588537 100.49456 65.78125 100.81641 C 71.9671 102.48567 74.351089 102.33205 79.423828 99.939453 C 82.86931 98.314362 83.841505 98.122185 91.050781 97.644531 L 94.050781 97.445312 L 93.945312 98.978516 C 93.874557 100.01792 93.681979 100.59588 93.345703 100.77539 C 92.671324 101.1354 83.415375 102.13698 72 103.08594 C 63.825237 103.76549 60.356672 103.89233 46.302734 104.01953 C 23.890577 104.22237 15.036413 103.70926 8.109375 101.8125 C 3.8587097 100.64858 4.0045627 100.66422 3.8222656 101.36133 C 3.7336807 101.70007 3.8210936 102.11003 4.015625 102.27148 C 4.2101564 102.43293 5.9842995 102.89843 7.9589844 103.30664 C 40.070552 109.94463 75.187903 109.4118 115.64844 101.66992 C 118.28761 101.16493 120.57258 100.72897 120.72656 100.70117 C 120.88055 100.6734 121.1166 101.25534 121.25 101.99414 C 121.549 103.65012 121.31198 103.90744 119.09961 104.34375 C 118.19211 104.52273 116.16711 104.93884 114.59961 105.26953 C 106.50023 106.9782 95.546806 108.80525 85.800781 110.07227 C 69.267352 112.22169 51.045139 113.10363 35.082031 112.52734 C 24.187515 112.13403 21.203989 111.92292 11.136719 110.82227 C 4.0491044 110.04739 2.6873089 110.10153 4.2421875 111.09766 C 5.3770212 111.82468 16.306503 114.02743 24.599609 115.20117 C 48.968966 118.65022 75.408671 118.12871 102.15039 113.66992 C 107.17955 112.83138 116.87623 110.93092 120.54688 110.06445 C 121.7833 109.77255 122.19545 109.76704 122.36719 110.04492 C 122.48921 110.24236 123.02952 113.34025 123.56836 116.92773 C 124.10719 120.51521 124.80526 125.07078 125.11914 127.05078 C 125.43302 129.03078 126.10082 133.35039 126.60352 136.65039 C 127.10623 139.95039 127.57584 142.81914 127.64844 143.02539 C 127.74528 143.30039 128.86273 143.40039 131.83984 143.40039 C 135.75689 143.40039 135.90039 143.37815 135.90039 142.77344 C 135.90039 142.42875 135.36276 138.885 134.70703 134.89844 C 134.05129 130.91187 132.96284 124.2075 132.28711 120 C 131.61138 115.7925 130.88558 111.3041 130.67383 110.02539 C 130.24461 107.43335 130.2995 107.30507 132 106.95117 C 132.5775 106.83099 136.22211 105.67918 140.09961 104.39258 C 159.06647 98.0991 171.87704 91.937809 187.05078 81.810547 C 192.78886 77.980837 199.44423 72.74306 199.06055 72.359375 C 198.96937 72.268199 199.18856 71.881537 199.54883 71.498047 C 199.90907 71.114554 200.06663 70.800781 199.89844 70.800781 C 199.73025 70.800781 199.3358 71.086254 199.02148 71.435547 C 198.70715 71.78484 196.76172 73.189511 194.69922 74.558594 C 183.38143 82.071308 168.57572 89.096342 151.5 95.052734 C 145.81106 97.037159 130.47419 101.69922 129.63672 101.69922 C 129.14716 101.69922 128.85184 98.976859 129.31055 98.693359 C 129.52391 98.561494 131.12619 98.106186 132.87305 97.681641 C 141.95435 95.474577 155.82074 91.101815 165.30078 87.455078 C 166.86828 86.852102 168.48789 86.247438 168.90039 86.109375 C 173.59813 84.537054 186.27296 78.39592 192.29297 74.775391 C 198.0869 71.290825 205.1311 66.254564 204.98438 65.703125 C 204.94844 65.568089 205.65837 64.889386 206.56055 64.193359 C 207.46273 63.497335 208.19922 62.869118 208.19922 62.798828 C 208.19922 62.728535 206.54664 63.808077 204.52539 65.197266 C 199.7272 68.495022 196.13773 70.547362 188.99023 74.083984 C 173.60313 81.6976 157.68312 87.328264 135.45703 93.017578 C 131.66563 93.988084 128.47364 94.685497 128.36328 94.566406 C 128.25292 94.447318 128.06936 93.785181 127.95703 93.09375 L 127.75391 91.835938 L 128.90234 91.546875 C 129.53393 91.388418 133.02039 90.551887 136.65039 89.6875 C 163.06669 83.397163 183.30872 75.862854 204.30078 64.505859 C 211.91609 60.385872 214.75974 58.457065 218.47461 54.898438 C 220.87333 52.600602 220.96026 52.549296 221.30078 53.199219 C 221.52282 53.622987 221.68032 55.938037 221.73242 59.496094 C 221.81973 65.462146 221.91326 65.839043 223.25781 65.648438 L 223.94922 65.550781 L 224.03125 59.175781 C 224.07578 55.669531 224.21484 52.800781 224.33984 52.800781 C 224.72738 52.800781 225.97721 53.74197 227.79297 55.404297 C 228.75112 56.281488 229.79659 57 230.11719 57 C 231.25281 57 230.73205 55.764108 228.59766 53.396484 C 227.18702 51.831684 226.55516 50.907319 226.67773 50.587891 C 226.83525 50.177404 227.73526 50.10097 233.20508 50.03125 L 239.55078 49.949219 L 239.64844 49.097656 C 239.73318 48.357322 239.66351 48.271729 239.12891 48.441406 C 238.49646 48.642139 226.77975 48.080525 226.53711 47.837891 C 226.27252 47.573297 227.05633 46.319223 228.86523 44.109375 C 229.91875 42.822342 230.69922 41.575973 230.69922 41.183594 C 230.69922 40.807724 230.66334 40.5 230.61914 40.5 C 230.57494 40.5 229.3258 41.644267 227.84375 43.042969 C 226.3617 44.441674 225.03984 45.58995 224.9043 45.59375 C 224.76877 45.597548 224.46424 45.407588 224.22852 45.171875 C 223.88626 44.829605 223.79892 43.545845 223.79492 38.796875 C 223.79239 35.526338 223.67983 32.675534 223.54492 32.462891 C 223.36696 32.1824 223.09347 32.155462 222.54688 32.363281 L 221.79297 32.650391 L 221.61914 39.001953 C 221.52381 42.495465 221.37521 45.425532 221.28711 45.513672 C 221.19898 45.601806 219.93923 44.579035 218.48828 43.240234 C 216.82537 41.705857 215.60126 40.804534 215.17578 40.802734 C 214.80453 40.801234 214.5 40.915115 214.5 41.054688 C 214.5 41.194256 215.27969 42.239725 216.23242 43.378906 C 218.67236 46.296367 219.41411 47.408671 219.11133 47.691406 C 218.9061 47.88304 208.44612 48.610363 206.02539 48.601562 C 205.36176 48.599148 205.32055 49.666986 205.97461 49.917969 C 206.2356 50.018126 209.19699 50.099609 212.55664 50.099609 C 218.54815 50.099609 218.67444 50.113315 219.14844 50.775391 C 219.61976 51.433732 219.57447 51.503833 217.29102 53.642578 C 212.24272 58.37095 204.47158 62.536321 189.75 68.402344 C 179.2648 72.580321 171.33947 75.230032 155.25 79.941406 C 147.88193 82.098949 127.31941 86.91903 126.9707 86.570312 C 126.87641 86.476021 122.27711 58.331349 119.56445 41.25 C 117.05964 25.477478 113.35269 2.7350889 113.2168 2.3027344 C 113.11234 1.9704013 112.86965 1.8233615 112.59766 1.9277344 C 112.35157 2.0221679 111.36394 2.0996094 110.40234 2.0996094 L 108.6543 2.0996094 L 108.33984 4.125 C 108.16673 5.23875 107.75114 7.9057815 107.41602 10.050781 C 107.0809 12.195781 106.46397 16.245781 106.04688 19.050781 C 105.62977 21.855781 105.02569 25.837891 104.70312 27.900391 C 104.38057 29.962891 103.83623 33.539609 103.49414 35.849609 C 103.15205 38.159609 102.53477 42.209609 102.12305 44.849609 C 101.14966 51.091148 100.67199 54.234746 99.748047 60.449219 C 99.331008 63.254219 98.724874 67.238281 98.402344 69.300781 C 98.079814 71.363281 97.471198 75.345391 97.048828 78.150391 C 96.626455 80.955391 96.01414 84.889859 95.689453 86.894531 C 95.364766 88.899203 95.099609 90.885039 95.099609 91.306641 C 95.099609 92.1678 95.10671 92.165971 90.449219 92.693359 C 86.026955 93.19411 86.302959 93.380215 87.464844 90.675781 C 89.32686 86.341708 89.76397 84.113741 89.923828 78.166016 C 90.136033 70.270652 89.31183 65.358692 86.621094 58.490234 C 84.006579 51.816341 81.642288 47.375704 78 42.300781 C 70.235661 31.482469 66.61609 21.146477 68.126953 14.101562 C 68.492728 12.396026 69.859585 10.40456 71.355469 9.3964844 C 73.35733 8.0474294 76.815921 7.8788095 81.845703 8.8847656 C 82.663872 9.0483994 82.76088 8.9446104 83.902344 6.703125 C 85.186761 4.1809269 85.250206 3.4562528 84.208984 3.2070312 C 83.846449 3.120257 82.4025 2.7466116 81 2.3789062 C 79.305435 1.9346281 77.633648 1.6940516 76.015625 1.6484375 z M 13.359375 2.0039062 C 12.54375 2.0035635 11.451016 2.0160416 10.275391 2.0410156 L 6 2.1308594 L 6 47.697266 C 6 83.821007 6.0777111 93.315404 6.375 93.507812 C 6.58125 93.6413 7.8303906 93.900054 9.1503906 94.083984 C 10.470391 94.267917 12.326641 94.436664 13.275391 94.458984 L 15 94.5 L 15 48.318359 C 15 22.918096 14.899141 2.093958 14.775391 2.0429688 C 14.713516 2.0174758 14.175 2.004249 13.359375 2.0039062 z M 35.175781 8.0664062 C 35.556334 8.0648589 36.083167 8.4942793 36.808594 8.8320312 C 40.928476 10.750211 44.28093 15.793488 45.794922 22.349609 C 46.617813 25.913028 46.562819 34.351616 45.6875 38.849609 C 44.315726 45.898718 41.470749 51.704246 36.708984 57.164062 C 35.636706 58.393532 34.632137 59.400391 34.478516 59.400391 C 34.308281 59.400391 34.199219 49.383243 34.199219 33.75 C 34.199219 11.946092 34.034123 8.0710486 35.175781 8.0664062 z M 110.26367 33.076172 C 110.30812 33.094265 110.3569 33.136195 110.41016 33.189453 C 110.67098 33.450273 111.27404 36.976078 113.125 49.050781 C 113.45381 51.195781 113.98678 54.671641 114.31055 56.775391 C 114.63432 58.879141 115.16375 62.322031 115.48633 64.425781 C 115.80891 66.529531 116.48554 70.882109 116.99023 74.099609 C 117.49492 77.317109 118.11409 81.367109 118.36523 83.099609 C 118.61637 84.832109 118.95397 86.646275 119.11523 87.130859 C 119.27653 87.615446 119.3056 88.105293 119.17969 88.21875 C 119.05377 88.332207 115.16426 89.049288 110.53711 89.8125 C 105.90997 90.575709 102.01388 91.199219 101.87891 91.199219 C 101.74391 91.199219 101.71209 90.760859 101.80859 90.224609 C 101.90511 89.688359 102.72897 83.985781 103.63867 77.550781 C 106.44495 57.699652 106.80362 55.175521 107.40039 51.150391 C 107.71841 49.005391 108.39592 44.2125 108.9043 40.5 C 109.79555 33.991541 109.95256 32.94952 110.26367 33.076172 z M 4.2949219 93.5 C 3.6392427 93.56113 3.4788018 93.895891 4.0507812 94.328125 C 4.9200025 94.984981 6 94.933414 6 94.234375 C 6 93.835879 5.7362165 93.629395 5.1074219 93.537109 C 4.7872949 93.490124 4.5134816 93.479623 4.2949219 93.5 z M 119.83594 93.636719 C 119.91089 93.711665 120.06328 94.33795 120.17383 95.029297 C 120.41998 96.568645 120.41563 96.570437 115.34961 97.443359 C 113.36961 97.784531 109.42473 98.477504 106.58203 98.982422 C 103.73933 99.48734 101.19866 99.900391 100.9375 99.900391 C 100.54291 99.900391 100.49757 99.658784 100.66406 98.474609 C 100.77425 97.690859 101.03455 96.912993 101.24219 96.746094 C 101.6522 96.416532 119.61235 93.413135 119.83594 93.636719 z M 127.54492 95.335938 C 127.7405 95.329357 127.86401 95.344479 127.90234 95.382812 C 128.04809 95.528565 128.23691 96.252649 128.32031 96.992188 C 128.4932 98.526111 128.80541 98.327781 124.70117 99.283203 C 123.24439 99.622326 121.87733 99.900391 121.66211 99.900391 C 121.2172 99.900391 120.9103 98.981138 120.9043 97.628906 L 120.90039 96.708984 L 124.26953 95.914062 C 125.73154 95.568891 126.9582 95.355678 127.54492 95.335938 z M 128.61133 102.45898 C 128.81243 102.43757 128.94004 102.43655 128.9668 102.46289 C 129.06769 102.56218 129.30542 103.54488 129.49609 104.64648 C 129.75833 106.16153 129.75833 106.73699 129.49609 107.00586 C 129.30542 107.20137 127.7756 107.70762 126.0957 108.13086 C 124.4158 108.55411 122.91288 108.90039 122.75586 108.90039 C 122.47526 108.90039 121.7732 104.44066 121.99219 104.04883 C 122.1375 103.78882 127.20362 102.6089 128.61133 102.45898 z M 7.3535156 114.92383 C 7.0720987 114.90069 6.6876562 115.00948 6.1640625 115.24805 C 5.3508879 115.61856 5.1549924 116.25162 5.7753906 116.50195 C 5.9816406 116.58515 5.57625 116.66278 4.875 116.67578 L 3.5996094 116.69922 L 3.5996094 120.04102 C 3.5996094 122.87198 3.6802695 123.4456 4.125 123.7832 C 4.7609865 124.26598 8.8731706 124.34716 9.1601562 123.88281 C 9.2679263 123.70843 9.2730524 123.23515 9.171875 122.83203 C 9.007595 122.17748 8.8285775 122.09961 7.4941406 122.09961 C 6.6722843 122.09961 6 121.96578 6 121.80078 C 6 121.63578 6.5313783 121.5 7.1816406 121.5 C 8.519973 121.5 8.8371833 121.18832 8.5722656 120.13281 C 8.4157229 119.50909 8.2096571 119.40039 7.1933594 119.40039 C 6.5365031 119.40039 6 119.26461 6 119.09961 C 6 118.93461 6.6671596 118.80078 7.4824219 118.80078 C 9.1152415 118.80078 9.4473986 118.53138 9.171875 117.43359 C 9.0141362 116.80511 8.8071224 116.69794 7.71875 116.68164 C 6.5780678 116.66455 6.5253164 116.63229 7.1894531 116.36719 C 8.1404657 115.98757 8.149487 115.97555 7.9257812 115.39258 C 7.8141937 115.10179 7.6349326 114.94697 7.3535156 114.92383 z M 24.300781 116.69922 L 24.300781 120.08984 C 24.300781 122.38577 24.420138 123.59985 24.671875 123.85156 C 24.915414 124.09506 25.768373 124.19352 27.146484 124.13672 L 29.25 124.05078 L 29.34375 123.07422 C 29.437401 122.10322 29.432164 122.09961 28.068359 122.09961 L 26.699219 122.09961 L 26.699219 119.875 C 26.699219 116.99202 26.573521 116.69922 25.318359 116.69922 L 24.300781 116.69922 z M 30.300781 116.69922 L 30.300781 120.08984 C 30.300781 122.3265 30.422634 123.60231 30.660156 123.83984 C 30.872388 124.05207 31.949871 124.2087 33.285156 124.2207 C 35.137548 124.2373 35.427036 124.30018 34.875 124.56641 C 34.137405 124.92214 33.981149 125.56147 34.574219 125.80078 C 34.780469 125.88398 34.377031 125.96356 33.675781 125.97656 L 32.400391 126 L 32.400391 129.3418 C 32.400391 132.17276 32.481049 132.74444 32.925781 133.08203 C 33.561766 133.56482 37.673952 133.64794 37.960938 133.18359 C 38.068717 133.00921 38.073834 132.53593 37.972656 132.13281 C 37.808376 131.47826 37.629358 131.40039 36.294922 131.40039 C 35.473066 131.40039 34.800781 131.26461 34.800781 131.09961 C 34.800781 130.93461 35.33216 130.80078 35.982422 130.80078 C 37.320755 130.80078 37.637965 130.4891 37.373047 129.43359 C 37.216504 128.80987 37.010439 128.69922 35.994141 128.69922 C 35.337285 128.69922 34.800781 128.56539 34.800781 128.40039 C 34.800781 128.23539 35.467941 128.09961 36.283203 128.09961 C 37.916025 128.09961 38.24817 127.83021 37.972656 126.73242 C 37.815183 126.10501 37.606062 125.99686 36.519531 125.97656 C 35.294193 125.9537 35.280009 125.94183 36.095703 125.64453 C 36.65742 125.4398 36.882514 125.18895 36.769531 124.89453 C 36.676061 124.65094 36.599609 124.31174 36.599609 124.14258 C 36.599609 123.97338 36.390837 123.91537 36.134766 124.01367 C 35.878696 124.11194 35.74763 124.06569 35.84375 123.91016 C 35.939858 123.75464 35.931607 123.28337 35.826172 122.86328 C 35.65345 122.17509 35.49015 122.09961 34.167969 122.09961 C 33.360858 122.09961 32.699219 121.96579 32.699219 121.80078 C 32.699219 121.63579 33.232551 121.5 33.882812 121.5 C 35.235377 121.5 35.496601 121.23998 35.226562 120.16406 C 35.062241 119.50935 34.867925 119.40039 33.867188 119.40039 C 33.225076 119.40039 32.699219 119.2646 32.699219 119.09961 C 32.699219 118.9346 33.366379 118.80078 34.181641 118.80078 C 35.833404 118.80078 36.10597 118.5777 35.826172 117.46289 C 35.638747 116.71609 35.57476 116.69922 32.966797 116.69922 L 30.300781 116.69922 z M 19.847656 116.77148 C 18.738519 116.74089 17.828675 117.21666 17.179688 118.17969 C 15.882621 120.10441 16.610868 122.66995 18.726562 123.63086 C 20.206764 124.30314 20.174756 124.30152 21.419922 123.78125 C 22.789936 123.20883 23.399738 122.23035 23.398438 120.60742 C 23.396882 118.72473 22.549893 117.42862 21.021484 116.9707 C 20.60958 116.84729 20.217369 116.78168 19.847656 116.77148 z M 12.933594 116.84961 C 11.688655 116.84961 11.269427 116.99425 10.615234 117.64844 C 8.8937469 119.36993 9.5443194 122.77902 11.78125 123.75977 C 13.514965 124.51989 15.900391 123.45965 15.900391 121.92969 C 15.900391 120.82568 13.987486 120.44995 13.712891 121.5 C 13.619595 121.85677 13.303663 122.09961 12.933594 122.09961 C 11.71365 122.09961 11.764323 119.08924 12.988281 118.85352 C 13.277951 118.79773 13.756118 119.05017 14.050781 119.41406 C 14.442139 119.89736 14.764666 120.01937 15.244141 119.86719 C 16.105512 119.5938 16.078269 118.74062 15.175781 117.69141 C 14.559757 116.97524 14.226143 116.84961 12.933594 116.84961 z M 20.099609 118.94922 C 20.752243 118.94922 20.863204 119.09856 20.945312 120.0957 C 20.997208 120.72597 20.879444 121.4359 20.683594 121.67188 C 20.229818 122.21863 19.528149 122.22325 19.320312 121.68164 C 19.232003 121.45149 19.203619 120.74352 19.255859 120.10742 C 19.338676 119.0991 19.445732 118.94922 20.099609 118.94922 z M 3.5996094 126 L 3.5996094 129.3418 C 3.5996094 132.17276 3.6802695 132.74444 4.125 133.08203 C 4.7625678 133.56598 6.3508312 133.60727 7.890625 133.17969 C 10.049299 132.58024 10.883712 129.80355 9.515625 127.77344 C 8.5914822 126.40211 7.6944657 126.00891 5.4746094 126.00391 L 3.5996094 126 z M 11.953125 126 C 11.087677 126 11.071876 126.02832 11.160156 127.42578 C 11.20967 128.20953 11.385781 128.94908 11.550781 129.07031 C 12.062239 129.44607 12.268105 129.33045 12.748047 128.40234 C 13.432173 127.07938 13.075673 126 11.953125 126 z M 14.099609 126 L 14.099609 129.3418 C 14.099609 132.17027 14.180661 132.74701 14.625 133.08984 C 14.91375 133.31263 15.42 133.46148 15.75 133.42188 C 16.298471 133.35605 16.35733 133.09196 16.4375 130.34961 C 16.554834 126.33608 16.45524 126 15.144531 126 L 14.099609 126 z M 17.400391 126 L 17.400391 129.3418 C 17.400391 132.17113 17.481308 132.74661 17.925781 133.08789 L 17.925781 133.08594 C 18.933587 133.85922 19.340174 133.46181 19.5 131.54883 L 19.650391 129.75391 L 20.662109 131.33594 C 21.726727 133.00011 22.562483 133.65563 23.273438 133.38281 C 23.604525 133.25576 23.699219 132.51722 23.699219 130.08398 C 23.699219 126.44358 23.584041 126 22.632812 126 C 21.988701 126 21.922288 126.14281 21.839844 127.70312 L 21.75 129.40625 L 20.621094 127.70312 C 19.607764 126.17351 19.38772 126 18.447266 126 L 17.400391 126 z M 38.699219 126 L 38.699219 129.3418 C 38.699219 132.17113 38.780135 132.7452 39.224609 133.08594 C 40.232417 133.85922 40.640953 133.46181 40.800781 131.54883 L 40.949219 129.75391 L 41.962891 131.33594 C 43.027507 133.00011 43.863264 133.65563 44.574219 133.38281 C 44.905307 133.25576 45 132.51722 45 130.08398 C 45 126.44358 44.884819 126 43.933594 126 C 43.289479 126 43.223068 126.14281 43.140625 127.70312 L 43.050781 129.40625 L 41.921875 127.70312 C 40.908544 126.17351 40.686546 126 39.746094 126 L 38.699219 126 z M 46.199219 126 L 46.199219 129.3418 C 46.199219 132.17027 46.28027 132.7456 46.724609 133.08789 L 46.724609 133.08984 C 47.013359 133.31263 47.519609 133.46148 47.849609 133.42188 C 48.398081 133.35605 48.456939 133.09196 48.537109 130.34961 C 48.654442 126.33608 48.55485 126 47.244141 126 L 46.199219 126 z M 49.800781 126 L 49.800781 129.38867 C 49.800781 131.62534 49.922634 132.90115 50.160156 133.13867 C 50.592498 133.57101 55.080698 133.63535 55.341797 133.21289 C 55.439078 133.05547 55.431607 132.58414 55.326172 132.16406 C 55.15345 131.47586 54.99015 131.40039 53.667969 131.40039 C 52.860858 131.40039 52.199219 131.26461 52.199219 131.09961 C 52.199219 130.93461 52.732551 130.79883 53.382812 130.79883 C 54.735377 130.79883 54.996601 130.53881 54.726562 129.46289 C 54.562241 128.80818 54.367925 128.69922 53.367188 128.69922 C 52.725077 128.69922 52.199219 128.56539 52.199219 128.40039 C 52.199219 128.23539 52.866379 128.09961 53.681641 128.09961 C 55.333404 128.09961 55.60597 127.87847 55.326172 126.76367 C 55.138747 126.01687 55.07476 126 52.466797 126 L 49.800781 126 z M 56.099609 126 L 56.099609 128.80859 C 56.099609 131.42731 56.152372 131.67038 56.873047 132.39062 C 57.298234 132.81581 57.940265 133.22122 58.298828 133.29102 C 59.44379 133.51405 59.593602 133.50572 60.5625 133.16797 C 61.863585 132.7144 62.099609 132.12438 62.099609 129.34375 C 62.099609 126.46516 61.950663 126 61.029297 126 C 60.348078 126 60.319938 126.09294 60.236328 128.625 C 60.149937 131.24125 60.146471 131.2511 59.324219 131.3457 L 58.5 131.43945 L 58.496094 129.39453 C 58.490076 126.39146 58.33072 126 57.115234 126 L 56.099609 126 z M 63 126 L 63 129.39062 C 63 131.69241 63.119856 132.89957 63.373047 133.15234 C 63.578136 133.35744 64.084386 133.4858 64.498047 133.4375 C 65.151669 133.36112 65.261627 133.18226 65.341797 132.07422 C 65.456487 130.48906 66.113608 130.37304 66.601562 131.85156 C 66.967056 132.95901 67.647496 133.5 68.679688 133.5 C 69.420918 133.5 69.463721 132.97402 68.84375 131.49023 C 68.416448 130.46755 68.426124 130.36048 68.994141 129.75586 C 69.680352 129.02542 69.747713 128.45026 69.267578 127.39648 C 68.790191 126.34873 67.781783 126 65.236328 126 L 63 126 z M 27.941406 126.07031 C 26.838378 126.04289 25.927842 126.51903 25.28125 127.47852 C 23.993827 129.38892 24.741109 132.16779 26.78125 133.05469 L 26.78125 133.05664 C 27.975628 133.57587 27.905712 133.5725 29.060547 133.16992 C 29.750561 132.92898 30.120644 132.92736 30.408203 133.16602 C 31.049552 133.69829 31.199219 133.2372 31.199219 130.73438 C 31.199219 127.74539 30.735428 126.75398 29.105469 126.26562 C 28.697707 126.14347 28.309082 126.07945 27.941406 126.07031 z M 72.990234 126.0918 C 72.072189 126.10352 71.175688 126.36067 70.773438 126.85742 C 69.998472 127.81447 70.051626 128.87975 70.917969 129.74609 C 71.716665 130.54479 71.639295 130.80078 70.599609 130.80078 C 70.21461 130.80078 69.900391 130.90491 69.900391 131.0332 C 69.900391 131.57459 70.945659 132.69068 71.814453 133.07812 C 72.769548 133.50408 74.356552 133.40576 75.384766 132.85547 C 76.264843 132.38447 76.557498 131.21804 76.082031 130.08008 C 75.741429 129.26491 75.420809 129.02668 74.283203 128.74023 C 72.51049 128.29389 72.490614 127.97024 74.251953 128.23438 C 75.903018 128.48197 76.38192 127.84872 75.333984 126.80078 C 74.848559 126.31535 73.908279 126.08008 72.990234 126.0918 z M 6.7265625 128.09961 C 7.7012865 128.09961 8.0737938 129.58667 7.3691406 130.66211 C 6.5212011 131.95623 6 131.60887 6 129.75 C 6 128.20444 6.0463644 128.09961 6.7265625 128.09961 z M 66.318359 128.09961 C 66.853769 128.09961 67.158955 128.22536 67.050781 128.40039 C 66.948805 128.56539 66.535574 128.69922 66.132812 128.69922 C 65.730052 128.69922 65.400391 128.56539 65.400391 128.40039 C 65.400391 128.23539 65.813621 128.09961 66.318359 128.09961 z M 28.267578 128.11523 C 28.546497 128.09827 28.835373 128.23089 29.087891 128.53516 C 29.419215 128.93434 29.363703 129 28.6875 129 C 28.080082 129 27.900391 129.14942 27.900391 129.65234 C 27.900391 130.01059 28.123411 130.54961 28.396484 130.85156 C 28.862009 131.36598 28.854928 131.40039 28.283203 131.40039 C 27.279594 131.40039 26.861878 130.62988 27.175781 129.35938 C 27.366183 128.58873 27.802714 128.14351 28.267578 128.11523 z M 72.365234 130.69531 C 72.504386 130.69071 72.683914 130.70456 72.900391 130.73633 C 73.395391 130.80898 73.800781 130.9885 73.800781 131.13477 C 73.800781 131.44329 72.495574 131.49558 72.199219 131.19922 C 71.883022 130.88303 71.94778 130.70913 72.365234 130.69531 z M 91.052734 133.52344 C 90.771317 133.5003 90.386876 133.60909 89.863281 133.84766 C 89.050107 134.21817 88.854212 134.85123 89.474609 135.10156 C 89.680859 135.18476 89.275469 135.26239 88.574219 135.27539 L 87.300781 135.30078 L 87.300781 138.64258 C 87.300781 141.47354 87.379487 142.04522 87.824219 142.38281 C 88.460204 142.8656 92.574342 142.94677 92.861328 142.48242 C 92.969108 142.30804 92.974225 141.83671 92.873047 141.43359 C 92.708767 140.77904 92.527795 140.69922 91.193359 140.69922 C 90.371503 140.69922 89.699219 140.56539 89.699219 140.40039 C 89.699219 140.23539 90.232552 140.09961 90.882812 140.09961 C 92.221146 140.09961 92.538355 139.78793 92.273438 138.73242 C 92.116895 138.1087 91.910829 138 90.894531 138 C 90.237675 138 89.699219 137.86422 89.699219 137.69922 C 89.699219 137.53422 90.366379 137.40039 91.181641 137.40039 C 92.814464 137.40039 93.14857 137.13099 92.873047 136.0332 C 92.71531 135.40472 92.508295 135.29755 91.419922 135.28125 C 90.279238 135.26416 90.224535 135.2319 90.888672 134.9668 C 91.839684 134.58717 91.848707 134.57516 91.625 133.99219 C 91.513412 133.7014 91.334151 133.54658 91.052734 133.52344 z M 100.19922 135.23633 L 100.19922 138.60938 C 100.19922 141.4681 100.27975 142.04544 100.72461 142.38867 C 101.68737 143.1315 102.43956 142.77484 102.54297 141.52539 C 102.62122 140.57994 102.74677 140.40039 103.32422 140.40039 C 104.42238 140.40039 105.88829 139.78308 106.20703 139.1875 C 106.69918 138.26792 106.53747 137.17635 105.7793 136.29492 C 105.12007 135.52852 104.84991 135.44852 102.62891 135.34766 L 100.19922 135.23633 z M 3.5996094 135.30078 L 3.5996094 138.64258 C 3.5996094 141.47354 3.6802695 142.04522 4.125 142.38281 C 4.7625678 142.86676 6.3508312 142.90805 7.890625 142.48047 C 10.049299 141.88102 10.883712 139.10433 9.515625 137.07422 C 8.5914822 135.70289 7.6944657 135.30969 5.4746094 135.30469 L 3.5996094 135.30078 z M 11.099609 135.30078 L 11.099609 138.68945 C 11.099609 140.92612 11.223414 142.20193 11.460938 142.43945 C 11.893281 142.87179 16.379526 142.93613 16.640625 142.51367 C 16.737908 142.35625 16.732388 141.88297 16.626953 141.46289 C 16.454233 140.77469 16.288978 140.69922 14.966797 140.69922 C 14.159684 140.69922 13.5 140.56539 13.5 140.40039 C 13.5 140.23539 14.031379 140.09961 14.681641 140.09961 C 16.034202 140.09961 16.297382 139.83959 16.027344 138.76367 C 15.863022 138.10896 15.668705 138 14.667969 138 C 14.025856 138 13.5 137.86422 13.5 137.69922 C 13.5 137.53422 14.16716 137.40039 14.982422 137.40039 C 16.634083 137.40039 16.906751 137.17925 16.626953 136.06445 C 16.439529 135.31765 16.375539 135.30078 13.767578 135.30078 L 11.099609 135.30078 z M 20.099609 135.30078 L 20.099609 138.68945 C 20.099609 140.98538 20.220919 142.19943 20.472656 142.45117 C 20.716195 142.69467 21.569155 142.79313 22.947266 142.73633 L 25.050781 142.65039 L 25.144531 141.67578 C 25.238182 140.70478 25.232946 140.69922 23.869141 140.69922 L 22.5 140.69922 L 22.5 138.47461 C 22.5 135.59162 22.372349 135.30078 21.117188 135.30078 L 20.099609 135.30078 z M 25.751953 135.30078 C 24.886505 135.30078 24.872657 135.32715 24.960938 136.72461 C 25.010451 137.50836 25.184609 138.24986 25.349609 138.37109 C 25.861067 138.74685 26.068886 138.63125 26.548828 137.70312 C 27.232954 136.38017 26.874501 135.30078 25.751953 135.30078 z M 34.800781 135.30078 L 34.800781 138.64258 C 34.800781 141.47105 34.87988 142.04584 35.324219 142.38867 C 35.612969 142.61146 36.119219 142.76226 36.449219 142.72266 C 36.997691 142.65684 37.058502 142.39274 37.138672 139.65039 C 37.256005 135.63686 37.154459 135.30078 35.84375 135.30078 L 34.800781 135.30078 z M 38.400391 135.30078 L 38.400391 138.68945 C 38.400391 140.99123 38.520246 142.19992 38.773438 142.45312 C 38.978527 142.65822 39.484777 142.78658 39.898438 142.73828 C 40.552059 142.6619 40.662017 142.48304 40.742188 141.375 C 40.856878 139.78984 41.512044 139.67382 42 141.15234 C 42.365493 142.25979 43.047886 142.80078 44.080078 142.80078 C 44.821309 142.80078 44.864112 142.27481 44.244141 140.79102 C 43.816839 139.76834 43.826514 139.66126 44.394531 139.05664 C 45.080742 138.3262 45.146151 137.75105 44.666016 136.69727 C 44.188629 135.64952 43.182174 135.30078 40.636719 135.30078 L 38.400391 135.30078 z M 48.599609 135.30078 L 48.599609 138.68945 C 48.599609 140.92612 48.723416 142.20193 48.960938 142.43945 C 49.393279 142.87179 53.879526 142.93613 54.140625 142.51367 C 54.237906 142.35625 54.232388 141.88297 54.126953 141.46289 C 53.954231 140.77469 53.788978 140.69922 52.466797 140.69922 C 51.659686 140.69922 51 140.56539 51 140.40039 C 51 140.23539 51.531379 140.09961 52.181641 140.09961 C 53.534204 140.09961 53.797383 139.83959 53.527344 138.76367 C 53.363022 138.10896 53.168706 138 52.167969 138 C 51.525858 138 51 137.87825 51 137.72852 C 51 137.33474 54.328104 137.18806 55.123047 137.54688 C 55.728247 137.82004 55.794775 138.06445 55.796875 139.98828 C 55.799425 142.31756 56.142149 142.92061 57.359375 142.74805 C 58.008293 142.65606 58.055439 142.4996 58.136719 140.20703 C 58.212409 138.07221 58.298351 137.74381 58.8125 137.60938 C 59.259314 137.49252 59.400391 137.1976 59.400391 136.37891 L 59.400391 135.30078 L 56.849609 135.30078 C 54.634295 135.30078 54.295855 135.36813 54.265625 135.82422 C 54.232481 136.32422 54.224415 136.32422 54.09375 135.82422 C 53.976012 135.37362 53.575557 135.30078 51.277344 135.30078 L 48.599609 135.30078 z M 62.699219 135.30078 L 62.699219 138.64258 C 62.699219 141.47354 62.779877 142.0452 63.224609 142.38281 C 63.862178 142.86676 65.450439 142.90805 66.990234 142.48047 C 69.148905 141.88102 69.983324 139.10433 68.615234 137.07422 C 67.691093 135.70289 66.794075 135.30969 64.574219 135.30469 L 62.699219 135.30078 z M 70.199219 135.30078 L 70.199219 138.68945 C 70.199219 140.92612 70.323025 142.20193 70.560547 142.43945 C 70.992889 142.87179 75.481088 142.93613 75.742188 142.51367 C 75.839468 142.35625 75.831997 141.88297 75.726562 141.46289 C 75.553842 140.77469 75.39054 140.69922 74.068359 140.69922 C 73.261248 140.69922 72.599609 140.56539 72.599609 140.40039 C 72.599609 140.23539 73.132941 140.09961 73.783203 140.09961 C 75.135766 140.09961 75.396992 139.83959 75.126953 138.76367 C 74.962631 138.10896 74.768315 138 73.767578 138 C 73.125467 138 72.599609 137.86422 72.599609 137.69922 C 72.599609 137.53422 73.266769 137.40039 74.082031 137.40039 C 75.733794 137.40039 76.00636 137.17925 75.726562 136.06445 C 75.539137 135.31765 75.47515 135.30078 72.867188 135.30078 L 70.199219 135.30078 z M 79.199219 135.30078 L 79.199219 138.68945 C 79.199219 140.98538 79.320527 142.19943 79.572266 142.45117 C 79.815803 142.69467 80.668762 142.79313 82.046875 142.73633 L 84.150391 142.65039 L 84.244141 141.67578 C 84.337792 140.70478 84.332553 140.69922 82.96875 140.69922 L 81.599609 140.69922 L 81.599609 138.47461 C 81.599609 135.59162 81.473911 135.30078 80.21875 135.30078 L 79.199219 135.30078 z M 85.152344 135.30078 C 84.286897 135.30078 84.271095 135.32715 84.359375 136.72461 C 84.408887 137.50836 84.585 138.24986 84.75 138.37109 C 85.261458 138.74685 85.469276 138.63125 85.949219 137.70312 C 86.633345 136.38017 86.274893 135.30078 85.152344 135.30078 z M 120.30078 135.30078 L 120.30078 138.68945 C 120.30078 140.92612 120.42264 142.20193 120.66016 142.43945 C 121.0925 142.87179 125.58069 142.93613 125.8418 142.51367 C 125.9391 142.35625 125.9316 141.88297 125.82617 141.46289 C 125.65344 140.77469 125.49015 140.69922 124.16797 140.69922 C 123.36086 140.69922 122.69922 140.56539 122.69922 140.40039 C 122.69922 140.23539 123.23255 140.09961 123.88281 140.09961 C 125.23518 140.09961 125.4966 139.83959 125.22656 138.76367 C 125.06224 138.10896 124.86792 138 123.86719 138 C 123.22508 138 122.69922 137.86422 122.69922 137.69922 C 122.69922 137.53422 123.36638 137.40039 124.18164 137.40039 C 125.83301 137.40039 126.10596 137.17925 125.82617 136.06445 C 125.63874 135.31765 125.57476 135.30078 122.9668 135.30078 L 120.30078 135.30078 z M 96.091797 135.39258 C 95.173752 135.4043 94.275297 135.66145 93.873047 136.1582 C 93.098081 137.11525 93.151235 138.17858 94.017578 139.04492 C 94.816274 139.84362 94.738905 140.09961 93.699219 140.09961 C 93.31422 140.09961 93 140.20569 93 140.33398 C 93 140.87537 94.04527 141.99106 94.914062 142.37891 C 95.869158 142.80485 97.456161 142.70459 98.484375 142.1543 C 99.364452 141.6833 99.657108 140.51687 99.181641 139.37891 C 98.841039 138.56374 98.52042 138.32551 97.382812 138.03906 C 95.6101 137.59272 95.590224 137.27103 97.351562 137.53516 C 99.002629 137.78275 99.48153 137.14754 98.433594 136.09961 C 97.948168 135.61418 97.009842 135.38086 96.091797 135.39258 z M 29.599609 135.44922 L 28.498047 138.75 C 27.507831 141.71614 27.444778 142.08753 27.873047 142.41602 C 28.608022 142.97975 29.08147 142.87076 29.455078 142.05078 C 29.720281 141.46872 30.021318 141.30078 30.798828 141.30078 C 31.349841 141.30078 31.800781 141.45452 31.800781 141.64258 C 31.800781 142.42352 33.637295 143.16577 34.023438 142.54102 C 34.111331 142.3988 33.670086 140.74622 33.041016 138.86719 L 31.896484 135.44922 L 30.748047 135.44922 L 29.599609 135.44922 z M 108.5 135.44922 L 107.39844 138.75 C 106.40823 141.71614 106.34517 142.08753 106.77344 142.41602 C 107.50841 142.97975 107.98186 142.87076 108.35547 142.05078 C 108.62067 141.46872 108.91976 141.30078 109.69727 141.30078 C 110.24828 141.30078 110.69922 141.45452 110.69922 141.64258 C 110.69922 142.42352 112.53769 143.16582 112.92383 142.54102 C 113.01173 142.39881 112.57048 140.74623 111.94141 138.86719 L 110.79688 135.44922 L 109.64844 135.44922 L 108.5 135.44922 z M 116.43359 135.44922 C 115.18865 135.44922 114.76942 135.59386 114.11523 136.24805 C 112.39374 137.96954 113.04432 141.37861 115.28125 142.35938 C 117.01496 143.11949 119.40039 142.05926 119.40039 140.5293 C 119.40039 139.42529 117.48749 139.04956 117.21289 140.09961 C 117.1196 140.45638 116.80366 140.69922 116.43359 140.69922 C 115.21368 140.69922 115.26432 137.69079 116.48828 137.45508 C 116.77795 137.3993 117.25611 137.64977 117.55078 138.01367 C 117.94213 138.49696 118.26467 138.62093 118.74414 138.46875 C 119.60547 138.19536 119.57827 137.34022 118.67578 136.29102 C 118.05976 135.57485 117.72614 135.44922 116.43359 135.44922 z M 6.7265625 137.40039 C 7.7012865 137.40039 8.0737938 138.88745 7.3691406 139.96289 C 6.5212011 141.25701 6 140.90965 6 139.05078 C 6 137.50522 6.0463644 137.40039 6.7265625 137.40039 z M 41.716797 137.40039 C 42.252207 137.40039 42.557393 137.52419 42.449219 137.69922 C 42.347243 137.86422 41.935965 138 41.533203 138 C 41.130441 138 40.800781 137.86422 40.800781 137.69922 C 40.800781 137.53422 41.212059 137.40039 41.716797 137.40039 z M 65.826172 137.40039 C 66.800896 137.40039 67.173402 138.88743 66.46875 139.96289 C 65.620809 141.25701 65.099609 140.90965 65.099609 139.05078 C 65.099609 137.50522 65.145976 137.40039 65.826172 137.40039 z M 103.375 137.40039 C 103.86087 137.40039 104.10474 137.54029 104.02734 137.77539 C 103.83734 138.35238 102.59961 138.43528 102.59961 137.87109 C 102.59961 137.56479 102.87085 137.40039 103.375 137.40039 z M 30.716797 138.41406 C 30.824375 138.41883 30.900391 138.5395 30.900391 138.73242 C 30.900391 138.98966 30.764609 139.19922 30.599609 139.19922 C 30.434609 139.19922 30.300781 139.07323 30.300781 138.91797 C 30.300781 138.7627 30.434609 138.5512 30.599609 138.44922 C 30.640859 138.42372 30.680937 138.41247 30.716797 138.41406 z M 109.61719 138.41406 C 109.72477 138.41883 109.80078 138.5395 109.80078 138.73242 C 109.80078 138.98966 109.665 139.19922 109.5 139.19922 C 109.335 139.19922 109.19922 139.07323 109.19922 138.91797 C 109.19922 138.7627 109.335 138.5512 109.5 138.44922 C 109.54125 138.42372 109.58133 138.41247 109.61719 138.41406 z M 95.466797 139.99609 C 95.605948 139.99149 95.783524 140.00338 96 140.03516 C 96.495 140.10781 96.900391 140.28732 96.900391 140.43359 C 96.900391 140.74211 95.597136 140.79636 95.300781 140.5 C 94.984584 140.18381 95.049343 140.00991 95.466797 139.99609 z "
     id="path7392"
     clip-path="url(#clipPath8333)"
     mask="none" />
  <text
     xml:space="preserve"
     style="font-style:normal;font-variant:normal;font-weight:normal;font-stretch:normal;font-size:40px;line-height:80.00000119%;font-family:'Amiri Quran';-inkscape-font-specification:'Amiri Quran';letter-spacing:0px;word-spacing:0px;fill:#000000;fill-opacity:1;stroke:none;stroke-width:1px;stroke-linecap:butt;stroke-linejoin:miter;stroke-opacity:1"
     x="3.3782146"
     y="124.85143"
     id="text8351"
     sodipodi:linespacing="80.000001%"><tspan
       sodipodi:role="line"
       x="3.3782146"
       y="124.85143"
       id="tspan8355"
       style="font-style:normal;font-variant:normal;font-weight:bold;font-stretch:normal;font-size:11.25px;line-height:80.00000119%;font-family:Cabin;-inkscape-font-specification:'Cabin Bold';fill:#014b75;fill-opacity:1">ÉCOLE</tspan><tspan
       sodipodi:role="line"
       x="3.3782146"
       y="133.85143"
       id="tspan8359"
       style="font-style:normal;font-variant:normal;font-weight:bold;font-stretch:normal;font-size:11.25px;line-height:80.00000119%;font-family:Cabin;-inkscape-font-specification:'Cabin Bold';fill:#014b75;fill-opacity:1">D'INGÉNIEURS</tspan><tspan
       sodipodi:role="line"
       x="3.3782146"
       y="142.85143"
       id="tspan8361"
       style="font-style:normal;font-variant:normal;font-weight:bold;font-stretch:normal;font-size:11.25px;line-height:80.00000119%;font-family:Cabin;-inkscape-font-specification:'Cabin Bold';fill:#014b75;fill-opacity:1">DE L'AIR ET DE L'ESPACE</tspan></text>
</svg>
